ISO-10303-21;
HEADER;
/* Generated by software containing ST-Developer
 * from STEP Tools, Inc. (www.steptools.com) 
 */

FILE_DESCRIPTION(
/* description */ (''),
/* implementation_level */ '2;1');

FILE_NAME(
/* name */ 'bottom.step',
/* time_stamp */ '2026-09-05T21:19:39-07:00',
/* author */ (''),
/* organization */ (''),
/* preprocessor_version */ 'ST-DEVELOPER v20.1',
/* originating_system */ 'Autodesk Translation Framework v15.8.0.0',
/* authorisation */ '');

FILE_SCHEMA (('AUTOMOTIVE_DESIGN { 1 0 10303 214 3 1 1 }'));
ENDSEC;

DATA;
#10=MECHANICAL_DESIGN_GEOMETRIC_PRESENTATION_REPRESENTATION('',(#13),#776);
#11=SHAPE_REPRESENTATION_RELATIONSHIP('SRR','None',#783,#12);
#12=ADVANCED_BREP_SHAPE_REPRESENTATION('',(#14),#775);
#13=STYLED_ITEM('',(#792),#14);
#14=MANIFOLD_SOLID_BREP('bottom',#442);
#15=FACE_BOUND('',#64,.T.);
#16=FACE_BOUND('',#65,.T.);
#17=FACE_BOUND('',#66,.T.);
#18=FACE_BOUND('',#67,.T.);
#19=PLANE('',#459);
#20=PLANE('',#463);
#21=PLANE('',#464);
#22=PLANE('',#477);
#23=PLANE('',#480);
#24=PLANE('',#483);
#25=PLANE('',#486);
#26=PLANE('',#489);
#27=PLANE('',#492);
#28=PLANE('',#494);
#29=PLANE('',#497);
#30=PLANE('',#500);
#31=PLANE('',#503);
#32=PLANE('',#506);
#33=FACE_OUTER_BOUND('',#59,.T.);
#34=FACE_OUTER_BOUND('',#60,.T.);
#35=FACE_OUTER_BOUND('',#61,.T.);
#36=FACE_OUTER_BOUND('',#62,.T.);
#37=FACE_OUTER_BOUND('',#63,.T.);
#38=FACE_OUTER_BOUND('',#68,.T.);
#39=FACE_OUTER_BOUND('',#69,.T.);
#40=FACE_OUTER_BOUND('',#70,.T.);
#41=FACE_OUTER_BOUND('',#71,.T.);
#42=FACE_OUTER_BOUND('',#72,.T.);
#43=FACE_OUTER_BOUND('',#73,.T.);
#44=FACE_OUTER_BOUND('',#74,.T.);
#45=FACE_OUTER_BOUND('',#75,.T.);
#46=FACE_OUTER_BOUND('',#76,.T.);
#47=FACE_OUTER_BOUND('',#77,.T.);
#48=FACE_OUTER_BOUND('',#78,.T.);
#49=FACE_OUTER_BOUND('',#79,.T.);
#50=FACE_OUTER_BOUND('',#80,.T.);
#51=FACE_OUTER_BOUND('',#81,.T.);
#52=FACE_OUTER_BOUND('',#82,.T.);
#53=FACE_OUTER_BOUND('',#83,.T.);
#54=FACE_OUTER_BOUND('',#84,.T.);
#55=FACE_OUTER_BOUND('',#85,.T.);
#56=FACE_OUTER_BOUND('',#86,.T.);
#57=FACE_OUTER_BOUND('',#87,.T.);
#58=FACE_OUTER_BOUND('',#88,.T.);
#59=EDGE_LOOP('',(#284,#285,#286,#287));
#60=EDGE_LOOP('',(#288,#289,#290,#291));
#61=EDGE_LOOP('',(#292,#293,#294,#295));
#62=EDGE_LOOP('',(#296,#297,#298,#299));
#63=EDGE_LOOP('',(#300,#301,#302,#303,#304,#305,#306,#307,#308,#309,#310,
#311,#312,#313,#314));
#64=EDGE_LOOP('',(#315));
#65=EDGE_LOOP('',(#316));
#66=EDGE_LOOP('',(#317));
#67=EDGE_LOOP('',(#318));
#68=EDGE_LOOP('',(#319,#320,#321,#322));
#69=EDGE_LOOP('',(#323,#324,#325,#326));
#70=EDGE_LOOP('',(#327,#328,#329,#330));
#71=EDGE_LOOP('',(#331));
#72=EDGE_LOOP('',(#332,#333,#334,#335));
#73=EDGE_LOOP('',(#336));
#74=EDGE_LOOP('',(#337,#338,#339,#340));
#75=EDGE_LOOP('',(#341));
#76=EDGE_LOOP('',(#342,#343,#344,#345));
#77=EDGE_LOOP('',(#346));
#78=EDGE_LOOP('',(#347,#348,#349,#350));
#79=EDGE_LOOP('',(#351,#352,#353,#354,#355,#356,#357,#358,#359));
#80=EDGE_LOOP('',(#360,#361,#362,#363));
#81=EDGE_LOOP('',(#364,#365,#366,#367));
#82=EDGE_LOOP('',(#368,#369,#370,#371));
#83=EDGE_LOOP('',(#372,#373,#374,#375));
#84=EDGE_LOOP('',(#376,#377,#378,#379,#380,#381));
#85=EDGE_LOOP('',(#382,#383,#384,#385,#386,#387));
#86=EDGE_LOOP('',(#388,#389,#390,#391));
#87=EDGE_LOOP('',(#392,#393,#394,#395));
#88=EDGE_LOOP('',(#396,#397,#398,#399,#400,#401,#402,#403));
#89=LINE('',#652,#124);
#90=LINE('',#655,#125);
#91=LINE('',#658,#126);
#92=LINE('',#660,#127);
#93=LINE('',#661,#128);
#94=LINE('',#667,#129);
#95=LINE('',#670,#130);
#96=LINE('',#672,#131);
#97=LINE('',#673,#132);
#98=LINE('',#678,#133);
#99=LINE('',#682,#134);
#100=LINE('',#686,#135);
#101=LINE('',#690,#136);
#102=LINE('',#694,#137);
#103=LINE('',#706,#138);
#104=LINE('',#709,#139);
#105=LINE('',#712,#140);
#106=LINE('',#713,#141);
#107=LINE('',#720,#142);
#108=LINE('',#725,#143);
#109=LINE('',#730,#144);
#110=LINE('',#735,#145);
#111=LINE('',#738,#146);
#112=LINE('',#742,#147);
#113=LINE('',#744,#148);
#114=LINE('',#745,#149);
#115=LINE('',#749,#150);
#116=LINE('',#752,#151);
#117=LINE('',#753,#152);
#118=LINE('',#757,#153);
#119=LINE('',#760,#154);
#120=LINE('',#761,#155);
#121=LINE('',#765,#156);
#122=LINE('',#768,#157);
#123=LINE('',#769,#158);
#124=VECTOR('',#513,10.);
#125=VECTOR('',#516,10.);
#126=VECTOR('',#519,10.);
#127=VECTOR('',#520,10.);
#128=VECTOR('',#521,10.);
#129=VECTOR('',#526,10.);
#130=VECTOR('',#529,10.);
#131=VECTOR('',#532,10.);
#132=VECTOR('',#533,10.);
#133=VECTOR('',#538,10.);
#134=VECTOR('',#541,10.);
#135=VECTOR('',#544,10.);
#136=VECTOR('',#547,10.);
#137=VECTOR('',#550,10.);
#138=VECTOR('',#563,10.);
#139=VECTOR('',#566,10.);
#140=VECTOR('',#569,10.);
#141=VECTOR('',#570,10.);
#142=VECTOR('',#581,0.800000000000001);
#143=VECTOR('',#588,0.800000000000001);
#144=VECTOR('',#595,0.800000000000001);
#145=VECTOR('',#602,0.799999999999996);
#146=VECTOR('',#605,10.);
#147=VECTOR('',#610,10.);
#148=VECTOR('',#611,10.);
#149=VECTOR('',#612,10.);
#150=VECTOR('',#617,10.);
#151=VECTOR('',#620,10.);
#152=VECTOR('',#621,10.);
#153=VECTOR('',#626,10.);
#154=VECTOR('',#629,10.);
#155=VECTOR('',#630,10.);
#156=VECTOR('',#635,10.);
#157=VECTOR('',#638,10.);
#158=VECTOR('',#639,10.);
#159=CIRCLE('',#457,1.2);
#160=CIRCLE('',#458,1.2);
#161=CIRCLE('',#461,1.2);
#162=CIRCLE('',#462,1.2);
#163=CIRCLE('',#465,11.);
#164=CIRCLE('',#466,11.);
#165=CIRCLE('',#467,11.);
#166=CIRCLE('',#468,11.);
#167=CIRCLE('',#469,1.2);
#168=CIRCLE('',#470,1.2);
#169=CIRCLE('',#471,0.800000000000001);
#170=CIRCLE('',#472,0.800000000000001);
#171=CIRCLE('',#473,0.800000000000001);
#172=CIRCLE('',#474,0.799999999999996);
#173=CIRCLE('',#476,1.2);
#174=CIRCLE('',#479,1.2);
#175=CIRCLE('',#481,0.800000000000001);
#176=CIRCLE('',#484,0.800000000000001);
#177=CIRCLE('',#487,0.800000000000001);
#178=CIRCLE('',#490,0.799999999999996);
#179=CIRCLE('',#493,11.);
#180=CIRCLE('',#496,11.);
#181=CIRCLE('',#499,11.);
#182=CIRCLE('',#502,11.);
#183=CIRCLE('',#505,11.);
#184=VERTEX_POINT('',#648);
#185=VERTEX_POINT('',#649);
#186=VERTEX_POINT('',#651);
#187=VERTEX_POINT('',#653);
#188=VERTEX_POINT('',#657);
#189=VERTEX_POINT('',#659);
#190=VERTEX_POINT('',#663);
#191=VERTEX_POINT('',#664);
#192=VERTEX_POINT('',#666);
#193=VERTEX_POINT('',#668);
#194=VERTEX_POINT('',#675);
#195=VERTEX_POINT('',#677);
#196=VERTEX_POINT('',#679);
#197=VERTEX_POINT('',#681);
#198=VERTEX_POINT('',#683);
#199=VERTEX_POINT('',#685);
#200=VERTEX_POINT('',#687);
#201=VERTEX_POINT('',#689);
#202=VERTEX_POINT('',#691);
#203=VERTEX_POINT('',#693);
#204=VERTEX_POINT('',#696);
#205=VERTEX_POINT('',#698);
#206=VERTEX_POINT('',#700);
#207=VERTEX_POINT('',#702);
#208=VERTEX_POINT('',#705);
#209=VERTEX_POINT('',#707);
#210=VERTEX_POINT('',#711);
#211=VERTEX_POINT('',#717);
#212=VERTEX_POINT('',#722);
#213=VERTEX_POINT('',#727);
#214=VERTEX_POINT('',#732);
#215=VERTEX_POINT('',#737);
#216=VERTEX_POINT('',#741);
#217=VERTEX_POINT('',#743);
#218=VERTEX_POINT('',#747);
#219=VERTEX_POINT('',#751);
#220=VERTEX_POINT('',#755);
#221=VERTEX_POINT('',#759);
#222=VERTEX_POINT('',#763);
#223=VERTEX_POINT('',#767);
#224=EDGE_CURVE('',#184,#185,#159,.T.);
#225=EDGE_CURVE('',#184,#186,#89,.T.);
#226=EDGE_CURVE('',#186,#187,#160,.T.);
#227=EDGE_CURVE('',#187,#185,#90,.T.);
#228=EDGE_CURVE('',#188,#187,#91,.T.);
#229=EDGE_CURVE('',#189,#188,#92,.T.);
#230=EDGE_CURVE('',#185,#189,#93,.T.);
#231=EDGE_CURVE('',#190,#191,#161,.T.);
#232=EDGE_CURVE('',#191,#192,#94,.T.);
#233=EDGE_CURVE('',#193,#192,#162,.T.);
#234=EDGE_CURVE('',#193,#190,#95,.T.);
#235=EDGE_CURVE('',#192,#184,#96,.T.);
#236=EDGE_CURVE('',#186,#191,#97,.T.);
#237=EDGE_CURVE('',#190,#194,#163,.T.);
#238=EDGE_CURVE('',#194,#195,#98,.T.);
#239=EDGE_CURVE('',#195,#196,#164,.T.);
#240=EDGE_CURVE('',#196,#197,#99,.T.);
#241=EDGE_CURVE('',#197,#198,#165,.T.);
#242=EDGE_CURVE('',#198,#199,#100,.T.);
#243=EDGE_CURVE('',#199,#200,#166,.T.);
#244=EDGE_CURVE('',#200,#201,#101,.T.);
#245=EDGE_CURVE('',#202,#201,#167,.T.);
#246=EDGE_CURVE('',#202,#203,#102,.T.);
#247=EDGE_CURVE('',#188,#203,#168,.T.);
#248=EDGE_CURVE('',#204,#204,#169,.T.);
#249=EDGE_CURVE('',#205,#205,#170,.T.);
#250=EDGE_CURVE('',#206,#206,#171,.T.);
#251=EDGE_CURVE('',#207,#207,#172,.T.);
#252=EDGE_CURVE('',#201,#208,#103,.T.);
#253=EDGE_CURVE('',#208,#209,#173,.F.);
#254=EDGE_CURVE('',#209,#202,#104,.T.);
#255=EDGE_CURVE('',#210,#209,#105,.T.);
#256=EDGE_CURVE('',#203,#210,#106,.T.);
#257=EDGE_CURVE('',#189,#210,#174,.T.);
#258=EDGE_CURVE('',#211,#211,#175,.T.);
#259=EDGE_CURVE('',#211,#204,#107,.T.);
#260=EDGE_CURVE('',#212,#212,#176,.T.);
#261=EDGE_CURVE('',#212,#205,#108,.T.);
#262=EDGE_CURVE('',#213,#213,#177,.T.);
#263=EDGE_CURVE('',#213,#206,#109,.T.);
#264=EDGE_CURVE('',#214,#214,#178,.T.);
#265=EDGE_CURVE('',#214,#207,#110,.T.);
#266=EDGE_CURVE('',#215,#208,#111,.T.);
#267=EDGE_CURVE('',#215,#193,#179,.T.);
#268=EDGE_CURVE('',#216,#196,#112,.T.);
#269=EDGE_CURVE('',#217,#216,#113,.T.);
#270=EDGE_CURVE('',#217,#197,#114,.T.);
#271=EDGE_CURVE('',#218,#217,#180,.T.);
#272=EDGE_CURVE('',#218,#198,#115,.T.);
#273=EDGE_CURVE('',#219,#218,#116,.T.);
#274=EDGE_CURVE('',#219,#199,#117,.T.);
#275=EDGE_CURVE('',#220,#219,#181,.T.);
#276=EDGE_CURVE('',#220,#200,#118,.T.);
#277=EDGE_CURVE('',#221,#220,#119,.T.);
#278=EDGE_CURVE('',#215,#221,#120,.T.);
#279=EDGE_CURVE('',#222,#221,#182,.T.);
#280=EDGE_CURVE('',#222,#194,#121,.T.);
#281=EDGE_CURVE('',#223,#222,#122,.T.);
#282=EDGE_CURVE('',#195,#223,#123,.T.);
#283=EDGE_CURVE('',#216,#223,#183,.T.);
#284=ORIENTED_EDGE('',*,*,#224,.F.);
#285=ORIENTED_EDGE('',*,*,#225,.T.);
#286=ORIENTED_EDGE('',*,*,#226,.T.);
#287=ORIENTED_EDGE('',*,*,#227,.T.);
#288=ORIENTED_EDGE('',*,*,#227,.F.);
#289=ORIENTED_EDGE('',*,*,#228,.F.);
#290=ORIENTED_EDGE('',*,*,#229,.F.);
#291=ORIENTED_EDGE('',*,*,#230,.F.);
#292=ORIENTED_EDGE('',*,*,#231,.T.);
#293=ORIENTED_EDGE('',*,*,#232,.T.);
#294=ORIENTED_EDGE('',*,*,#233,.F.);
#295=ORIENTED_EDGE('',*,*,#234,.T.);
#296=ORIENTED_EDGE('',*,*,#225,.F.);
#297=ORIENTED_EDGE('',*,*,#235,.F.);
#298=ORIENTED_EDGE('',*,*,#232,.F.);
#299=ORIENTED_EDGE('',*,*,#236,.F.);
#300=ORIENTED_EDGE('',*,*,#231,.F.);
#301=ORIENTED_EDGE('',*,*,#237,.T.);
#302=ORIENTED_EDGE('',*,*,#238,.T.);
#303=ORIENTED_EDGE('',*,*,#239,.T.);
#304=ORIENTED_EDGE('',*,*,#240,.T.);
#305=ORIENTED_EDGE('',*,*,#241,.T.);
#306=ORIENTED_EDGE('',*,*,#242,.T.);
#307=ORIENTED_EDGE('',*,*,#243,.T.);
#308=ORIENTED_EDGE('',*,*,#244,.T.);
#309=ORIENTED_EDGE('',*,*,#245,.F.);
#310=ORIENTED_EDGE('',*,*,#246,.T.);
#311=ORIENTED_EDGE('',*,*,#247,.F.);
#312=ORIENTED_EDGE('',*,*,#228,.T.);
#313=ORIENTED_EDGE('',*,*,#226,.F.);
#314=ORIENTED_EDGE('',*,*,#236,.T.);
#315=ORIENTED_EDGE('',*,*,#248,.T.);
#316=ORIENTED_EDGE('',*,*,#249,.T.);
#317=ORIENTED_EDGE('',*,*,#250,.T.);
#318=ORIENTED_EDGE('',*,*,#251,.T.);
#319=ORIENTED_EDGE('',*,*,#245,.T.);
#320=ORIENTED_EDGE('',*,*,#252,.T.);
#321=ORIENTED_EDGE('',*,*,#253,.T.);
#322=ORIENTED_EDGE('',*,*,#254,.T.);
#323=ORIENTED_EDGE('',*,*,#254,.F.);
#324=ORIENTED_EDGE('',*,*,#255,.F.);
#325=ORIENTED_EDGE('',*,*,#256,.F.);
#326=ORIENTED_EDGE('',*,*,#246,.F.);
#327=ORIENTED_EDGE('',*,*,#257,.F.);
#328=ORIENTED_EDGE('',*,*,#229,.T.);
#329=ORIENTED_EDGE('',*,*,#247,.T.);
#330=ORIENTED_EDGE('',*,*,#256,.T.);
#331=ORIENTED_EDGE('',*,*,#258,.F.);
#332=ORIENTED_EDGE('',*,*,#258,.T.);
#333=ORIENTED_EDGE('',*,*,#259,.T.);
#334=ORIENTED_EDGE('',*,*,#248,.F.);
#335=ORIENTED_EDGE('',*,*,#259,.F.);
#336=ORIENTED_EDGE('',*,*,#260,.F.);
#337=ORIENTED_EDGE('',*,*,#260,.T.);
#338=ORIENTED_EDGE('',*,*,#261,.T.);
#339=ORIENTED_EDGE('',*,*,#249,.F.);
#340=ORIENTED_EDGE('',*,*,#261,.F.);
#341=ORIENTED_EDGE('',*,*,#262,.F.);
#342=ORIENTED_EDGE('',*,*,#262,.T.);
#343=ORIENTED_EDGE('',*,*,#263,.T.);
#344=ORIENTED_EDGE('',*,*,#250,.F.);
#345=ORIENTED_EDGE('',*,*,#263,.F.);
#346=ORIENTED_EDGE('',*,*,#264,.F.);
#347=ORIENTED_EDGE('',*,*,#264,.T.);
#348=ORIENTED_EDGE('',*,*,#265,.T.);
#349=ORIENTED_EDGE('',*,*,#251,.F.);
#350=ORIENTED_EDGE('',*,*,#265,.F.);
#351=ORIENTED_EDGE('',*,*,#224,.T.);
#352=ORIENTED_EDGE('',*,*,#230,.T.);
#353=ORIENTED_EDGE('',*,*,#257,.T.);
#354=ORIENTED_EDGE('',*,*,#255,.T.);
#355=ORIENTED_EDGE('',*,*,#253,.F.);
#356=ORIENTED_EDGE('',*,*,#266,.F.);
#357=ORIENTED_EDGE('',*,*,#267,.T.);
#358=ORIENTED_EDGE('',*,*,#233,.T.);
#359=ORIENTED_EDGE('',*,*,#235,.T.);
#360=ORIENTED_EDGE('',*,*,#268,.F.);
#361=ORIENTED_EDGE('',*,*,#269,.F.);
#362=ORIENTED_EDGE('',*,*,#270,.T.);
#363=ORIENTED_EDGE('',*,*,#240,.F.);
#364=ORIENTED_EDGE('',*,*,#270,.F.);
#365=ORIENTED_EDGE('',*,*,#271,.F.);
#366=ORIENTED_EDGE('',*,*,#272,.T.);
#367=ORIENTED_EDGE('',*,*,#241,.F.);
#368=ORIENTED_EDGE('',*,*,#272,.F.);
#369=ORIENTED_EDGE('',*,*,#273,.F.);
#370=ORIENTED_EDGE('',*,*,#274,.T.);
#371=ORIENTED_EDGE('',*,*,#242,.F.);
#372=ORIENTED_EDGE('',*,*,#274,.F.);
#373=ORIENTED_EDGE('',*,*,#275,.F.);
#374=ORIENTED_EDGE('',*,*,#276,.T.);
#375=ORIENTED_EDGE('',*,*,#243,.F.);
#376=ORIENTED_EDGE('',*,*,#252,.F.);
#377=ORIENTED_EDGE('',*,*,#244,.F.);
#378=ORIENTED_EDGE('',*,*,#276,.F.);
#379=ORIENTED_EDGE('',*,*,#277,.F.);
#380=ORIENTED_EDGE('',*,*,#278,.F.);
#381=ORIENTED_EDGE('',*,*,#266,.T.);
#382=ORIENTED_EDGE('',*,*,#267,.F.);
#383=ORIENTED_EDGE('',*,*,#278,.T.);
#384=ORIENTED_EDGE('',*,*,#279,.F.);
#385=ORIENTED_EDGE('',*,*,#280,.T.);
#386=ORIENTED_EDGE('',*,*,#237,.F.);
#387=ORIENTED_EDGE('',*,*,#234,.F.);
#388=ORIENTED_EDGE('',*,*,#280,.F.);
#389=ORIENTED_EDGE('',*,*,#281,.F.);
#390=ORIENTED_EDGE('',*,*,#282,.F.);
#391=ORIENTED_EDGE('',*,*,#238,.F.);
#392=ORIENTED_EDGE('',*,*,#282,.T.);
#393=ORIENTED_EDGE('',*,*,#283,.F.);
#394=ORIENTED_EDGE('',*,*,#268,.T.);
#395=ORIENTED_EDGE('',*,*,#239,.F.);
#396=ORIENTED_EDGE('',*,*,#283,.T.);
#397=ORIENTED_EDGE('',*,*,#281,.T.);
#398=ORIENTED_EDGE('',*,*,#279,.T.);
#399=ORIENTED_EDGE('',*,*,#277,.T.);
#400=ORIENTED_EDGE('',*,*,#275,.T.);
#401=ORIENTED_EDGE('',*,*,#273,.T.);
#402=ORIENTED_EDGE('',*,*,#271,.T.);
#403=ORIENTED_EDGE('',*,*,#269,.T.);
#404=CYLINDRICAL_SURFACE('',#456,1.2);
#405=CYLINDRICAL_SURFACE('',#460,1.2);
#406=CYLINDRICAL_SURFACE('',#475,1.2);
#407=CYLINDRICAL_SURFACE('',#478,1.2);
#408=CYLINDRICAL_SURFACE('',#482,0.800000000000001);
#409=CYLINDRICAL_SURFACE('',#485,0.800000000000001);
#410=CYLINDRICAL_SURFACE('',#488,0.800000000000001);
#411=CYLINDRICAL_SURFACE('',#491,0.799999999999996);
#412=CYLINDRICAL_SURFACE('',#495,11.);
#413=CYLINDRICAL_SURFACE('',#498,11.);
#414=CYLINDRICAL_SURFACE('',#501,11.);
#415=CYLINDRICAL_SURFACE('',#504,11.);
#416=ADVANCED_FACE('',(#33),#404,.F.);
#417=ADVANCED_FACE('',(#34),#19,.T.);
#418=ADVANCED_FACE('',(#35),#405,.T.);
#419=ADVANCED_FACE('',(#36),#20,.T.);
#420=ADVANCED_FACE('',(#37,#15,#16,#17,#18),#21,.T.);
#421=ADVANCED_FACE('',(#38),#406,.T.);
#422=ADVANCED_FACE('',(#39),#22,.T.);
#423=ADVANCED_FACE('',(#40),#407,.F.);
#424=ADVANCED_FACE('',(#41),#23,.T.);
#425=ADVANCED_FACE('',(#42),#408,.F.);
#426=ADVANCED_FACE('',(#43),#24,.T.);
#427=ADVANCED_FACE('',(#44),#409,.F.);
#428=ADVANCED_FACE('',(#45),#25,.T.);
#429=ADVANCED_FACE('',(#46),#410,.F.);
#430=ADVANCED_FACE('',(#47),#26,.T.);
#431=ADVANCED_FACE('',(#48),#411,.F.);
#432=ADVANCED_FACE('',(#49),#27,.T.);
#433=ADVANCED_FACE('',(#50),#28,.T.);
#434=ADVANCED_FACE('',(#51),#412,.T.);
#435=ADVANCED_FACE('',(#52),#29,.T.);
#436=ADVANCED_FACE('',(#53),#413,.T.);
#437=ADVANCED_FACE('',(#54),#30,.T.);
#438=ADVANCED_FACE('',(#55),#414,.T.);
#439=ADVANCED_FACE('',(#56),#31,.T.);
#440=ADVANCED_FACE('',(#57),#415,.T.);
#441=ADVANCED_FACE('',(#58),#32,.F.);
#442=CLOSED_SHELL('',(#416,#417,#418,#419,#420,#421,#422,#423,#424,#425,
#426,#427,#428,#429,#430,#431,#432,#433,#434,#435,#436,#437,#438,#439,#440,
#441));
#443=DERIVED_UNIT_ELEMENT(#445,1.);
#444=DERIVED_UNIT_ELEMENT(#778,-3.);
#445=(
MASS_UNIT()
NAMED_UNIT(*)
SI_UNIT(.KILO.,.GRAM.)
);
#446=DERIVED_UNIT((#443,#444));
#447=MEASURE_REPRESENTATION_ITEM('density measure',
POSITIVE_RATIO_MEASURE(7850.),#446);
#448=PROPERTY_DEFINITION_REPRESENTATION(#453,#450);
#449=PROPERTY_DEFINITION_REPRESENTATION(#454,#451);
#450=REPRESENTATION('material name',(#452),#775);
#451=REPRESENTATION('density',(#447),#775);
#452=DESCRIPTIVE_REPRESENTATION_ITEM('Steel','Steel');
#453=PROPERTY_DEFINITION('material property','material name',#785);
#454=PROPERTY_DEFINITION('material property','density of part',#785);
#455=AXIS2_PLACEMENT_3D('',#646,#507,#508);
#456=AXIS2_PLACEMENT_3D('',#647,#509,#510);
#457=AXIS2_PLACEMENT_3D('',#650,#511,#512);
#458=AXIS2_PLACEMENT_3D('',#654,#514,#515);
#459=AXIS2_PLACEMENT_3D('',#656,#517,#518);
#460=AXIS2_PLACEMENT_3D('',#662,#522,#523);
#461=AXIS2_PLACEMENT_3D('',#665,#524,#525);
#462=AXIS2_PLACEMENT_3D('',#669,#527,#528);
#463=AXIS2_PLACEMENT_3D('',#671,#530,#531);
#464=AXIS2_PLACEMENT_3D('',#674,#534,#535);
#465=AXIS2_PLACEMENT_3D('',#676,#536,#537);
#466=AXIS2_PLACEMENT_3D('',#680,#539,#540);
#467=AXIS2_PLACEMENT_3D('',#684,#542,#543);
#468=AXIS2_PLACEMENT_3D('',#688,#545,#546);
#469=AXIS2_PLACEMENT_3D('',#692,#548,#549);
#470=AXIS2_PLACEMENT_3D('',#695,#551,#552);
#471=AXIS2_PLACEMENT_3D('',#697,#553,#554);
#472=AXIS2_PLACEMENT_3D('',#699,#555,#556);
#473=AXIS2_PLACEMENT_3D('',#701,#557,#558);
#474=AXIS2_PLACEMENT_3D('',#703,#559,#560);
#475=AXIS2_PLACEMENT_3D('',#704,#561,#562);
#476=AXIS2_PLACEMENT_3D('',#708,#564,#565);
#477=AXIS2_PLACEMENT_3D('',#710,#567,#568);
#478=AXIS2_PLACEMENT_3D('',#714,#571,#572);
#479=AXIS2_PLACEMENT_3D('',#715,#573,#574);
#480=AXIS2_PLACEMENT_3D('',#716,#575,#576);
#481=AXIS2_PLACEMENT_3D('',#718,#577,#578);
#482=AXIS2_PLACEMENT_3D('',#719,#579,#580);
#483=AXIS2_PLACEMENT_3D('',#721,#582,#583);
#484=AXIS2_PLACEMENT_3D('',#723,#584,#585);
#485=AXIS2_PLACEMENT_3D('',#724,#586,#587);
#486=AXIS2_PLACEMENT_3D('',#726,#589,#590);
#487=AXIS2_PLACEMENT_3D('',#728,#591,#592);
#488=AXIS2_PLACEMENT_3D('',#729,#593,#594);
#489=AXIS2_PLACEMENT_3D('',#731,#596,#597);
#490=AXIS2_PLACEMENT_3D('',#733,#598,#599);
#491=AXIS2_PLACEMENT_3D('',#734,#600,#601);
#492=AXIS2_PLACEMENT_3D('',#736,#603,#604);
#493=AXIS2_PLACEMENT_3D('',#739,#606,#607);
#494=AXIS2_PLACEMENT_3D('',#740,#608,#609);
#495=AXIS2_PLACEMENT_3D('',#746,#613,#614);
#496=AXIS2_PLACEMENT_3D('',#748,#615,#616);
#497=AXIS2_PLACEMENT_3D('',#750,#618,#619);
#498=AXIS2_PLACEMENT_3D('',#754,#622,#623);
#499=AXIS2_PLACEMENT_3D('',#756,#624,#625);
#500=AXIS2_PLACEMENT_3D('',#758,#627,#628);
#501=AXIS2_PLACEMENT_3D('',#762,#631,#632);
#502=AXIS2_PLACEMENT_3D('',#764,#633,#634);
#503=AXIS2_PLACEMENT_3D('',#766,#636,#637);
#504=AXIS2_PLACEMENT_3D('',#770,#640,#641);
#505=AXIS2_PLACEMENT_3D('',#771,#642,#643);
#506=AXIS2_PLACEMENT_3D('',#772,#644,#645);
#507=DIRECTION('axis',(0.,0.,1.));
#508=DIRECTION('refdir',(1.,0.,0.));
#509=DIRECTION('center_axis',(0.,0.,1.));
#510=DIRECTION('ref_axis',(-0.707106781186547,-0.707106781186547,0.));
#511=DIRECTION('center_axis',(0.,0.,1.));
#512=DIRECTION('ref_axis',(-0.707106781186547,-0.707106781186547,0.));
#513=DIRECTION('',(0.,0.,1.));
#514=DIRECTION('center_axis',(0.,0.,1.));
#515=DIRECTION('ref_axis',(-0.707106781186547,-0.707106781186547,0.));
#516=DIRECTION('',(0.,0.,-1.));
#517=DIRECTION('center_axis',(0.,1.,0.));
#518=DIRECTION('ref_axis',(-1.,0.,0.));
#519=DIRECTION('',(-1.,0.,0.));
#520=DIRECTION('',(0.,0.,1.));
#521=DIRECTION('',(1.,0.,0.));
#522=DIRECTION('center_axis',(0.,0.,1.));
#523=DIRECTION('ref_axis',(0.662401321106836,0.749149177264394,0.));
#524=DIRECTION('center_axis',(0.,0.,-1.));
#525=DIRECTION('ref_axis',(0.662401321106836,0.749149177264394,0.));
#526=DIRECTION('',(0.,0.,-1.));
#527=DIRECTION('center_axis',(0.,0.,-1.));
#528=DIRECTION('ref_axis',(0.662401321106836,0.749149177264394,0.));
#529=DIRECTION('',(0.,0.,1.));
#530=DIRECTION('center_axis',(1.,-2.05596856412066E-16,0.));
#531=DIRECTION('ref_axis',(2.05596856412066E-16,1.,0.));
#532=DIRECTION('',(-2.05596856412066E-16,-1.,0.));
#533=DIRECTION('',(2.05596856412066E-16,1.,0.));
#534=DIRECTION('center_axis',(0.,0.,1.));
#535=DIRECTION('ref_axis',(1.,0.,0.));
#536=DIRECTION('center_axis',(0.,0.,1.));
#537=DIRECTION('ref_axis',(4.03717463500057E-16,1.,0.));
#538=DIRECTION('',(2.75831807360287E-16,-1.,0.));
#539=DIRECTION('center_axis',(0.,0.,1.));
#540=DIRECTION('ref_axis',(-1.,4.03717463500057E-16,0.));
#541=DIRECTION('',(1.,0.,0.));
#542=DIRECTION('center_axis',(0.,0.,1.));
#543=DIRECTION('ref_axis',(0.,-1.,0.));
#544=DIRECTION('',(-2.75831807360287E-16,1.,0.));
#545=DIRECTION('center_axis',(0.,0.,1.));
#546=DIRECTION('ref_axis',(1.,4.03717463500057E-16,0.));
#547=DIRECTION('',(-1.,0.,0.));
#548=DIRECTION('center_axis',(0.,0.,-1.));
#549=DIRECTION('ref_axis',(-0.707106781186547,0.707106781186547,0.));
#550=DIRECTION('',(0.,-1.,0.));
#551=DIRECTION('center_axis',(0.,0.,1.));
#552=DIRECTION('ref_axis',(0.707106781186547,-0.707106781186547,0.));
#553=DIRECTION('center_axis',(0.,0.,-1.));
#554=DIRECTION('ref_axis',(1.,0.,0.));
#555=DIRECTION('center_axis',(0.,0.,-1.));
#556=DIRECTION('ref_axis',(1.,0.,0.));
#557=DIRECTION('center_axis',(0.,0.,-1.));
#558=DIRECTION('ref_axis',(1.,0.,0.));
#559=DIRECTION('center_axis',(0.,0.,-1.));
#560=DIRECTION('ref_axis',(1.,0.,0.));
#561=DIRECTION('center_axis',(0.,0.,1.));
#562=DIRECTION('ref_axis',(-0.707106781186547,0.707106781186547,0.));
#563=DIRECTION('',(0.,0.,-1.));
#564=DIRECTION('center_axis',(0.,0.,-1.));
#565=DIRECTION('ref_axis',(-0.707106781186547,0.707106781186547,0.));
#566=DIRECTION('',(0.,0.,1.));
#567=DIRECTION('center_axis',(-1.,0.,0.));
#568=DIRECTION('ref_axis',(0.,-1.,0.));
#569=DIRECTION('',(0.,1.,0.));
#570=DIRECTION('',(0.,0.,-1.));
#571=DIRECTION('center_axis',(0.,0.,1.));
#572=DIRECTION('ref_axis',(0.707106781186547,-0.707106781186547,0.));
#573=DIRECTION('center_axis',(0.,0.,1.));
#574=DIRECTION('ref_axis',(0.707106781186547,-0.707106781186547,0.));
#575=DIRECTION('center_axis',(0.,0.,1.));
#576=DIRECTION('ref_axis',(1.,0.,0.));
#577=DIRECTION('center_axis',(0.,0.,-1.));
#578=DIRECTION('ref_axis',(1.,0.,0.));
#579=DIRECTION('center_axis',(0.,0.,1.));
#580=DIRECTION('ref_axis',(1.,0.,0.));
#581=DIRECTION('',(0.,0.,1.));
#582=DIRECTION('center_axis',(0.,0.,1.));
#583=DIRECTION('ref_axis',(1.,0.,0.));
#584=DIRECTION('center_axis',(0.,0.,-1.));
#585=DIRECTION('ref_axis',(1.,0.,0.));
#586=DIRECTION('center_axis',(0.,0.,1.));
#587=DIRECTION('ref_axis',(1.,0.,0.));
#588=DIRECTION('',(0.,0.,1.));
#589=DIRECTION('center_axis',(0.,0.,1.));
#590=DIRECTION('ref_axis',(1.,0.,0.));
#591=DIRECTION('center_axis',(0.,0.,-1.));
#592=DIRECTION('ref_axis',(1.,0.,0.));
#593=DIRECTION('center_axis',(0.,0.,1.));
#594=DIRECTION('ref_axis',(1.,0.,0.));
#595=DIRECTION('',(0.,0.,1.));
#596=DIRECTION('center_axis',(0.,0.,1.));
#597=DIRECTION('ref_axis',(1.,0.,0.));
#598=DIRECTION('center_axis',(0.,0.,-1.));
#599=DIRECTION('ref_axis',(1.,0.,0.));
#600=DIRECTION('center_axis',(0.,0.,1.));
#601=DIRECTION('ref_axis',(1.,0.,0.));
#602=DIRECTION('',(0.,0.,1.));
#603=DIRECTION('center_axis',(0.,0.,1.));
#604=DIRECTION('ref_axis',(1.,0.,0.));
#605=DIRECTION('',(1.,0.,0.));
#606=DIRECTION('center_axis',(0.,0.,1.));
#607=DIRECTION('ref_axis',(4.03717463500057E-16,1.,0.));
#608=DIRECTION('center_axis',(0.,-1.,0.));
#609=DIRECTION('ref_axis',(-1.,0.,0.));
#610=DIRECTION('',(0.,0.,1.));
#611=DIRECTION('',(-1.,0.,0.));
#612=DIRECTION('',(0.,0.,1.));
#613=DIRECTION('center_axis',(0.,0.,-1.));
#614=DIRECTION('ref_axis',(0.,-1.,0.));
#615=DIRECTION('center_axis',(0.,0.,-1.));
#616=DIRECTION('ref_axis',(0.,-1.,0.));
#617=DIRECTION('',(0.,0.,1.));
#618=DIRECTION('center_axis',(1.,2.75831807360287E-16,0.));
#619=DIRECTION('ref_axis',(2.75831807360287E-16,-1.,0.));
#620=DIRECTION('',(2.75831807360287E-16,-1.,0.));
#621=DIRECTION('',(0.,0.,1.));
#622=DIRECTION('center_axis',(0.,0.,-1.));
#623=DIRECTION('ref_axis',(1.,4.03717463500057E-16,0.));
#624=DIRECTION('center_axis',(0.,0.,-1.));
#625=DIRECTION('ref_axis',(1.,4.03717463500057E-16,0.));
#626=DIRECTION('',(0.,0.,1.));
#627=DIRECTION('center_axis',(0.,1.,0.));
#628=DIRECTION('ref_axis',(1.,0.,0.));
#629=DIRECTION('',(1.,0.,0.));
#630=DIRECTION('',(0.,0.,-1.));
#631=DIRECTION('center_axis',(0.,0.,-1.));
#632=DIRECTION('ref_axis',(4.03717463500057E-16,1.,0.));
#633=DIRECTION('center_axis',(0.,0.,-1.));
#634=DIRECTION('ref_axis',(4.03717463500057E-16,1.,0.));
#635=DIRECTION('',(0.,0.,1.));
#636=DIRECTION('center_axis',(-1.,-2.75831807360287E-16,0.));
#637=DIRECTION('ref_axis',(-2.75831807360287E-16,1.,0.));
#638=DIRECTION('',(-2.75831807360287E-16,1.,0.));
#639=DIRECTION('',(0.,0.,-1.));
#640=DIRECTION('center_axis',(0.,0.,-1.));
#641=DIRECTION('ref_axis',(-1.,4.03717463500057E-16,0.));
#642=DIRECTION('center_axis',(0.,0.,-1.));
#643=DIRECTION('ref_axis',(-1.,4.03717463500057E-16,0.));
#644=DIRECTION('center_axis',(0.,0.,1.));
#645=DIRECTION('ref_axis',(1.,0.,0.));
#646=CARTESIAN_POINT('',(0.,0.,0.));
#647=CARTESIAN_POINT('Origin',(-32.2,-14.9,-10.8));
#648=CARTESIAN_POINT('',(-33.4,-14.9,-10.8));
#649=CARTESIAN_POINT('',(-32.2,-16.1,-10.8));
#650=CARTESIAN_POINT('Origin',(-32.2,-14.9,-10.8));
#651=CARTESIAN_POINT('',(-33.4,-14.9,-6.));
#652=CARTESIAN_POINT('',(-33.4,-14.9,-10.8));
#653=CARTESIAN_POINT('',(-32.2,-16.1,-6.));
#654=CARTESIAN_POINT('Origin',(-32.2,-14.9,-6.));
#655=CARTESIAN_POINT('',(-32.2,-16.1,-10.8));
#656=CARTESIAN_POINT('Origin',(23.2375,-16.1,-10.8));
#657=CARTESIAN_POINT('',(22.0375,-16.1,-6.));
#658=CARTESIAN_POINT('',(23.2375,-16.1,-6.));
#659=CARTESIAN_POINT('',(22.0375,-16.1,-10.8));
#660=CARTESIAN_POINT('',(22.0375,-16.1,-10.8));
#661=CARTESIAN_POINT('',(11.61875,-16.1,-10.8));
#662=CARTESIAN_POINT('Origin',(-34.6,25.8262531326303,-10.8));
#663=CARTESIAN_POINT('',(-34.7469387755102,27.0172229039727,-6.));
#664=CARTESIAN_POINT('',(-33.4,25.8262531326303,-6.));
#665=CARTESIAN_POINT('Origin',(-34.6,25.8262531326303,-6.));
#666=CARTESIAN_POINT('',(-33.4,25.8262531326303,-10.8));
#667=CARTESIAN_POINT('',(-33.4,25.8262531326303,-10.8));
#668=CARTESIAN_POINT('',(-34.7469387755102,27.0172229039727,-10.8));
#669=CARTESIAN_POINT('Origin',(-34.6,25.8262531326303,-10.8));
#670=CARTESIAN_POINT('',(-34.7469387755102,27.0172229039727,-10.8));
#671=CARTESIAN_POINT('Origin',(-33.4,-16.1,-10.8));
#672=CARTESIAN_POINT('',(-33.4,-8.05,-10.8));
#673=CARTESIAN_POINT('',(-33.4,-16.1,-6.));
#674=CARTESIAN_POINT('Origin',(0.,0.,-6.));
#675=CARTESIAN_POINT('',(-44.4,16.1,-6.));
#676=CARTESIAN_POINT('Origin',(-33.4,16.1,-6.));
#677=CARTESIAN_POINT('',(-44.4,-16.1,-6.));
#678=CARTESIAN_POINT('',(-44.4,-16.1,-6.));
#679=CARTESIAN_POINT('',(-33.4,-27.1,-6.));
#680=CARTESIAN_POINT('Origin',(-33.4,-16.1,-6.));
#681=CARTESIAN_POINT('',(33.4,-27.1,-6.));
#682=CARTESIAN_POINT('',(33.4,-27.1,-6.));
#683=CARTESIAN_POINT('',(44.4,-16.1,-6.));
#684=CARTESIAN_POINT('Origin',(33.4,-16.1,-6.));
#685=CARTESIAN_POINT('',(44.4,16.1,-6.));
#686=CARTESIAN_POINT('',(44.4,16.1,-6.));
#687=CARTESIAN_POINT('',(33.4,27.1,-6.));
#688=CARTESIAN_POINT('Origin',(33.4,16.1,-6.));
#689=CARTESIAN_POINT('',(24.4375,27.1,-6.));
#690=CARTESIAN_POINT('',(-33.4,27.1,-6.));
#691=CARTESIAN_POINT('',(23.2375,25.9,-6.));
#692=CARTESIAN_POINT('Origin',(24.4375,25.9,-6.));
#693=CARTESIAN_POINT('',(23.2375,-14.9,-6.));
#694=CARTESIAN_POINT('',(23.2375,27.1,-6.));
#695=CARTESIAN_POINT('Origin',(22.0375,-14.9,-6.));
#696=CARTESIAN_POINT('',(35.7,19.165,-6.));
#697=CARTESIAN_POINT('Origin',(36.5,19.165,-6.));
#698=CARTESIAN_POINT('',(-37.3,19.165,-6.));
#699=CARTESIAN_POINT('Origin',(-36.5,19.165,-6.));
#700=CARTESIAN_POINT('',(35.7,-19.165,-6.));
#701=CARTESIAN_POINT('Origin',(36.5,-19.165,-6.));
#702=CARTESIAN_POINT('',(-37.3,-19.165,-6.));
#703=CARTESIAN_POINT('Origin',(-36.5,-19.165,-6.));
#704=CARTESIAN_POINT('Origin',(24.4375,25.9,-10.8));
#705=CARTESIAN_POINT('',(24.4375,27.1,-10.8));
#706=CARTESIAN_POINT('',(24.4375,27.1,-10.8));
#707=CARTESIAN_POINT('',(23.2375,25.9,-10.8));
#708=CARTESIAN_POINT('Origin',(24.4375,25.9,-10.8));
#709=CARTESIAN_POINT('',(23.2375,25.9,-10.8));
#710=CARTESIAN_POINT('Origin',(23.2375,27.1,-10.8));
#711=CARTESIAN_POINT('',(23.2375,-14.9,-10.8));
#712=CARTESIAN_POINT('',(23.2375,13.55,-10.8));
#713=CARTESIAN_POINT('',(23.2375,-14.9,-10.8));
#714=CARTESIAN_POINT('Origin',(22.0375,-14.9,-10.8));
#715=CARTESIAN_POINT('Origin',(22.0375,-14.9,-10.8));
#716=CARTESIAN_POINT('Origin',(36.5,19.165,-12.8));
#717=CARTESIAN_POINT('',(35.7,19.165,-12.8));
#718=CARTESIAN_POINT('Origin',(36.5,19.165,-12.8));
#719=CARTESIAN_POINT('Origin',(36.5,19.165,-10.8));
#720=CARTESIAN_POINT('',(35.7,19.165,-10.8));
#721=CARTESIAN_POINT('Origin',(-36.5,19.165,-12.8));
#722=CARTESIAN_POINT('',(-37.3,19.165,-12.8));
#723=CARTESIAN_POINT('Origin',(-36.5,19.165,-12.8));
#724=CARTESIAN_POINT('Origin',(-36.5,19.165,-10.8));
#725=CARTESIAN_POINT('',(-37.3,19.165,-10.8));
#726=CARTESIAN_POINT('Origin',(36.5,-19.165,-12.8));
#727=CARTESIAN_POINT('',(35.7,-19.165,-12.8));
#728=CARTESIAN_POINT('Origin',(36.5,-19.165,-12.8));
#729=CARTESIAN_POINT('Origin',(36.5,-19.165,-10.8));
#730=CARTESIAN_POINT('',(35.7,-19.165,-10.8));
#731=CARTESIAN_POINT('Origin',(-36.5,-19.165,-12.8));
#732=CARTESIAN_POINT('',(-37.3,-19.165,-12.8));
#733=CARTESIAN_POINT('Origin',(-36.5,-19.165,-12.8));
#734=CARTESIAN_POINT('Origin',(-36.5,-19.165,-10.8));
#735=CARTESIAN_POINT('',(-37.3,-19.165,-10.8));
#736=CARTESIAN_POINT('Origin',(0.,0.,-10.8));
#737=CARTESIAN_POINT('',(-33.4,27.1,-10.8));
#738=CARTESIAN_POINT('',(-33.4,27.1,-10.8));
#739=CARTESIAN_POINT('Origin',(-33.4,16.1,-10.8));
#740=CARTESIAN_POINT('Origin',(33.4,-27.1,-10.8));
#741=CARTESIAN_POINT('',(-33.4,-27.1,-14.4));
#742=CARTESIAN_POINT('',(-33.4,-27.1,-10.8));
#743=CARTESIAN_POINT('',(33.4,-27.1,-14.4));
#744=CARTESIAN_POINT('',(33.4,-27.1,-14.4));
#745=CARTESIAN_POINT('',(33.4,-27.1,-10.8));
#746=CARTESIAN_POINT('Origin',(33.4,-16.1,-10.8));
#747=CARTESIAN_POINT('',(44.4,-16.1,-14.4));
#748=CARTESIAN_POINT('Origin',(33.4,-16.1,-14.4));
#749=CARTESIAN_POINT('',(44.4,-16.1,-10.8));
#750=CARTESIAN_POINT('Origin',(44.4,16.1,-10.8));
#751=CARTESIAN_POINT('',(44.4,16.1,-14.4));
#752=CARTESIAN_POINT('',(44.4,16.1,-14.4));
#753=CARTESIAN_POINT('',(44.4,16.1,-10.8));
#754=CARTESIAN_POINT('Origin',(33.4,16.1,-10.8));
#755=CARTESIAN_POINT('',(33.4,27.1,-14.4));
#756=CARTESIAN_POINT('Origin',(33.4,16.1,-14.4));
#757=CARTESIAN_POINT('',(33.4,27.1,-10.8));
#758=CARTESIAN_POINT('Origin',(-33.4,27.1,-10.8));
#759=CARTESIAN_POINT('',(-33.4,27.1,-14.4));
#760=CARTESIAN_POINT('',(-33.4,27.1,-14.4));
#761=CARTESIAN_POINT('',(-33.4,27.1,-10.8));
#762=CARTESIAN_POINT('Origin',(-33.4,16.1,-10.8));
#763=CARTESIAN_POINT('',(-44.4,16.1,-14.4));
#764=CARTESIAN_POINT('Origin',(-33.4,16.1,-14.4));
#765=CARTESIAN_POINT('',(-44.4,16.1,-10.8));
#766=CARTESIAN_POINT('Origin',(-44.4,-16.1,-10.8));
#767=CARTESIAN_POINT('',(-44.4,-16.1,-14.4));
#768=CARTESIAN_POINT('',(-44.4,-16.1,-14.4));
#769=CARTESIAN_POINT('',(-44.4,-16.1,-10.8));
#770=CARTESIAN_POINT('Origin',(-33.4,-16.1,-10.8));
#771=CARTESIAN_POINT('Origin',(-33.4,-16.1,-14.4));
#772=CARTESIAN_POINT('Origin',(0.,0.,-14.4));
#773=UNCERTAINTY_MEASURE_WITH_UNIT(LENGTH_MEASURE(0.01),#777,
'DISTANCE_ACCURACY_VALUE',
'Maximum model space distance between geometric entities at asserted c
onnectivities');
#774=UNCERTAINTY_MEASURE_WITH_UNIT(LENGTH_MEASURE(0.01),#777,
'DISTANCE_ACCURACY_VALUE',
'Maximum model space distance between geometric entities at asserted c
onnectivities');
#775=(
GEOMETRIC_REPRESENTATION_CONTEXT(3)
GLOBAL_UNCERTAINTY_ASSIGNED_CONTEXT((#773))
GLOBAL_UNIT_ASSIGNED_CONTEXT((#777,#779,#780))
REPRESENTATION_CONTEXT('','3D')
);
#776=(
GEOMETRIC_REPRESENTATION_CONTEXT(3)
GLOBAL_UNCERTAINTY_ASSIGNED_CONTEXT((#774))
GLOBAL_UNIT_ASSIGNED_CONTEXT((#777,#779,#780))
REPRESENTATION_CONTEXT('','3D')
);
#777=(
LENGTH_UNIT()
NAMED_UNIT(*)
SI_UNIT(.MILLI.,.METRE.)
);
#778=(
LENGTH_UNIT()
NAMED_UNIT(*)
SI_UNIT($,.METRE.)
);
#779=(
NAMED_UNIT(*)
PLANE_ANGLE_UNIT()
SI_UNIT($,.RADIAN.)
);
#780=(
NAMED_UNIT(*)
SI_UNIT($,.STERADIAN.)
SOLID_ANGLE_UNIT()
);
#781=SHAPE_DEFINITION_REPRESENTATION(#782,#783);
#782=PRODUCT_DEFINITION_SHAPE('',$,#785);
#783=SHAPE_REPRESENTATION('',(#455),#775);
#784=PRODUCT_DEFINITION_CONTEXT('part definition',#789,'design');
#785=PRODUCT_DEFINITION('v4.1-plate','v4.1-plate',#786,#784);
#786=PRODUCT_DEFINITION_FORMATION('',$,#791);
#787=PRODUCT_RELATED_PRODUCT_CATEGORY('v4.1-plate','v4.1-plate',(#791));
#788=APPLICATION_PROTOCOL_DEFINITION('international standard',
'automotive_design',2009,#789);
#789=APPLICATION_CONTEXT(
'Core Data for Automotive Mechanical Design Process');
#790=PRODUCT_CONTEXT('part definition',#789,'mechanical');
#791=PRODUCT('v4.1-plate','v4.1-plate',$,(#790));
#792=PRESENTATION_STYLE_ASSIGNMENT((#794));
#793=PRESENTATION_STYLE_ASSIGNMENT((#795));
#794=SURFACE_STYLE_USAGE(.BOTH.,#796);
#795=SURFACE_STYLE_USAGE(.BOTH.,#797);
#796=SURFACE_SIDE_STYLE('',(#798));
#797=SURFACE_SIDE_STYLE('',(#799));
#798=SURFACE_STYLE_FILL_AREA(#800);
#799=SURFACE_STYLE_FILL_AREA(#801);
#800=FILL_AREA_STYLE('Steel - Satin',(#802));
#801=FILL_AREA_STYLE('Opaque(15,102,15)',(#803));
#802=FILL_AREA_STYLE_COLOUR('Steel - Satin',#804);
#803=FILL_AREA_STYLE_COLOUR('Opaque(15,102,15)',#805);
#804=COLOUR_RGB('Steel - Satin',0.627450980392157,0.627450980392157,0.627450980392157);
#805=COLOUR_RGB('Opaque(15,102,15)',0.309803921568627,0.749019607843137,
0.309803921568627);
ENDSEC;
END-ISO-10303-21;
