ISO-10303-21;
HEADER;
/* Generated by software containing ST-Developer
 * from STEP Tools, Inc. (www.steptools.com) 
 */

FILE_DESCRIPTION(
/* description */ (''),
/* implementation_level */ '2;1');

FILE_NAME(
/* name */ 'keycap-1.25u.step',
/* time_stamp */ '2026-09-05T21:20:01-07:00',
/* author */ (''),
/* organization */ (''),
/* preprocessor_version */ 'ST-DEVELOPER v20.1',
/* originating_system */ 'Autodesk Translation Framework v15.8.0.0',
/* authorisation */ '');

FILE_SCHEMA (('AUTOMOTIVE_DESIGN { 1 0 10303 214 3 1 1 }'));
ENDSEC;

DATA;
#10=MECHANICAL_DESIGN_GEOMETRIC_PRESENTATION_REPRESENTATION('',(#13),#587);
#11=SHAPE_REPRESENTATION_RELATIONSHIP('SRR','None',#594,#12);
#12=ADVANCED_BREP_SHAPE_REPRESENTATION('',(#14),#586);
#13=STYLED_ITEM('',(#603),#14);
#14=MANIFOLD_SOLID_BREP('1.25u',#351);
#15=CIRCLE('',#375,1.);
#16=CIRCLE('',#376,1.);
#17=CIRCLE('',#379,1.);
#18=CIRCLE('',#380,1.);
#19=CIRCLE('',#383,1.00000000000001);
#20=CIRCLE('',#384,1.00000000000001);
#21=CIRCLE('',#387,1.);
#22=CIRCLE('',#388,1.);
#23=CYLINDRICAL_SURFACE('',#374,1.);
#24=CYLINDRICAL_SURFACE('',#378,1.);
#25=CYLINDRICAL_SURFACE('',#382,1.00000000000001);
#26=CYLINDRICAL_SURFACE('',#386,1.);
#27=FACE_OUTER_BOUND('',#45,.T.);
#28=FACE_OUTER_BOUND('',#46,.T.);
#29=FACE_OUTER_BOUND('',#47,.T.);
#30=FACE_OUTER_BOUND('',#48,.T.);
#31=FACE_OUTER_BOUND('',#49,.T.);
#32=FACE_OUTER_BOUND('',#50,.T.);
#33=FACE_OUTER_BOUND('',#51,.T.);
#34=FACE_OUTER_BOUND('',#52,.T.);
#35=FACE_OUTER_BOUND('',#53,.T.);
#36=FACE_OUTER_BOUND('',#54,.T.);
#37=FACE_OUTER_BOUND('',#55,.T.);
#38=FACE_OUTER_BOUND('',#56,.T.);
#39=FACE_OUTER_BOUND('',#57,.T.);
#40=FACE_OUTER_BOUND('',#58,.T.);
#41=FACE_OUTER_BOUND('',#59,.T.);
#42=FACE_OUTER_BOUND('',#60,.T.);
#43=FACE_OUTER_BOUND('',#61,.T.);
#44=FACE_OUTER_BOUND('',#62,.T.);
#45=EDGE_LOOP('',(#223,#224,#225,#226));
#46=EDGE_LOOP('',(#227,#228,#229,#230));
#47=EDGE_LOOP('',(#231,#232,#233,#234));
#48=EDGE_LOOP('',(#235,#236,#237,#238));
#49=EDGE_LOOP('',(#239,#240,#241,#242));
#50=EDGE_LOOP('',(#243,#244,#245,#246));
#51=EDGE_LOOP('',(#247,#248,#249,#250));
#52=EDGE_LOOP('',(#251,#252,#253,#254));
#53=EDGE_LOOP('',(#255,#256,#257,#258));
#54=EDGE_LOOP('',(#259,#260,#261,#262));
#55=EDGE_LOOP('',(#263,#264,#265,#266,#267,#268,#269,#270));
#56=EDGE_LOOP('',(#271,#272,#273,#274));
#57=EDGE_LOOP('',(#275,#276,#277,#278));
#58=EDGE_LOOP('',(#279,#280,#281,#282));
#59=EDGE_LOOP('',(#283,#284,#285,#286,#287,#288,#289,#290));
#60=EDGE_LOOP('',(#291,#292,#293,#294));
#61=EDGE_LOOP('',(#295,#296,#297,#298,#299,#300,#301,#302));
#62=EDGE_LOOP('',(#303,#304,#305,#306,#307,#308,#309,#310,#311,#312,#313,
#314,#315,#316,#317,#318));
#63=LINE('',#489,#103);
#64=LINE('',#491,#104);
#65=LINE('',#493,#105);
#66=LINE('',#494,#106);
#67=LINE('',#498,#107);
#68=LINE('',#500,#108);
#69=LINE('',#502,#109);
#70=LINE('',#503,#110);
#71=LINE('',#505,#111);
#72=LINE('',#506,#112);
#73=LINE('',#508,#113);
#74=LINE('',#512,#114);
#75=LINE('',#514,#115);
#76=LINE('',#516,#116);
#77=LINE('',#517,#117);
#78=LINE('',#521,#118);
#79=LINE('',#523,#119);
#80=LINE('',#525,#120);
#81=LINE('',#526,#121);
#82=LINE('',#528,#122);
#83=LINE('',#529,#123);
#84=LINE('',#531,#124);
#85=LINE('',#535,#125);
#86=LINE('',#537,#126);
#87=LINE('',#539,#127);
#88=LINE('',#540,#128);
#89=LINE('',#546,#129);
#90=LINE('',#548,#130);
#91=LINE('',#550,#131);
#92=LINE('',#552,#132);
#93=LINE('',#553,#133);
#94=LINE('',#559,#134);
#95=LINE('',#562,#135);
#96=LINE('',#564,#136);
#97=LINE('',#565,#137);
#98=LINE('',#571,#138);
#99=LINE('',#573,#139);
#100=LINE('',#575,#140);
#101=LINE('',#577,#141);
#102=LINE('',#578,#142);
#103=VECTOR('',#395,10.);
#104=VECTOR('',#396,10.);
#105=VECTOR('',#397,10.);
#106=VECTOR('',#398,10.);
#107=VECTOR('',#401,10.);
#108=VECTOR('',#402,10.);
#109=VECTOR('',#403,10.);
#110=VECTOR('',#404,10.);
#111=VECTOR('',#407,10.);
#112=VECTOR('',#408,10.);
#113=VECTOR('',#411,10.);
#114=VECTOR('',#414,10.);
#115=VECTOR('',#415,10.);
#116=VECTOR('',#416,10.);
#117=VECTOR('',#417,10.);
#118=VECTOR('',#420,10.);
#119=VECTOR('',#421,10.);
#120=VECTOR('',#422,10.);
#121=VECTOR('',#423,10.);
#122=VECTOR('',#426,10.);
#123=VECTOR('',#427,10.);
#124=VECTOR('',#430,10.);
#125=VECTOR('',#433,10.);
#126=VECTOR('',#434,10.);
#127=VECTOR('',#435,10.);
#128=VECTOR('',#436,10.);
#129=VECTOR('',#443,10.);
#130=VECTOR('',#446,10.);
#131=VECTOR('',#447,10.);
#132=VECTOR('',#448,10.);
#133=VECTOR('',#449,10.);
#134=VECTOR('',#456,10.);
#135=VECTOR('',#459,10.);
#136=VECTOR('',#460,10.);
#137=VECTOR('',#461,10.);
#138=VECTOR('',#468,10.);
#139=VECTOR('',#471,10.);
#140=VECTOR('',#472,10.);
#141=VECTOR('',#473,10.);
#142=VECTOR('',#474,10.);
#143=VERTEX_POINT('',#487);
#144=VERTEX_POINT('',#488);
#145=VERTEX_POINT('',#490);
#146=VERTEX_POINT('',#492);
#147=VERTEX_POINT('',#496);
#148=VERTEX_POINT('',#497);
#149=VERTEX_POINT('',#499);
#150=VERTEX_POINT('',#501);
#151=VERTEX_POINT('',#510);
#152=VERTEX_POINT('',#511);
#153=VERTEX_POINT('',#513);
#154=VERTEX_POINT('',#515);
#155=VERTEX_POINT('',#519);
#156=VERTEX_POINT('',#520);
#157=VERTEX_POINT('',#522);
#158=VERTEX_POINT('',#524);
#159=VERTEX_POINT('',#533);
#160=VERTEX_POINT('',#534);
#161=VERTEX_POINT('',#536);
#162=VERTEX_POINT('',#538);
#163=VERTEX_POINT('',#542);
#164=VERTEX_POINT('',#544);
#165=VERTEX_POINT('',#549);
#166=VERTEX_POINT('',#551);
#167=VERTEX_POINT('',#555);
#168=VERTEX_POINT('',#557);
#169=VERTEX_POINT('',#561);
#170=VERTEX_POINT('',#563);
#171=VERTEX_POINT('',#567);
#172=VERTEX_POINT('',#569);
#173=VERTEX_POINT('',#574);
#174=VERTEX_POINT('',#576);
#175=EDGE_CURVE('',#143,#144,#63,.T.);
#176=EDGE_CURVE('',#143,#145,#64,.T.);
#177=EDGE_CURVE('',#146,#145,#65,.T.);
#178=EDGE_CURVE('',#144,#146,#66,.T.);
#179=EDGE_CURVE('',#147,#148,#67,.T.);
#180=EDGE_CURVE('',#149,#148,#68,.T.);
#181=EDGE_CURVE('',#150,#149,#69,.T.);
#182=EDGE_CURVE('',#147,#150,#70,.T.);
#183=EDGE_CURVE('',#143,#147,#71,.T.);
#184=EDGE_CURVE('',#145,#150,#72,.T.);
#185=EDGE_CURVE('',#146,#149,#73,.T.);
#186=EDGE_CURVE('',#151,#152,#74,.T.);
#187=EDGE_CURVE('',#151,#153,#75,.T.);
#188=EDGE_CURVE('',#154,#153,#76,.T.);
#189=EDGE_CURVE('',#152,#154,#77,.T.);
#190=EDGE_CURVE('',#155,#156,#78,.T.);
#191=EDGE_CURVE('',#157,#156,#79,.T.);
#192=EDGE_CURVE('',#158,#157,#80,.T.);
#193=EDGE_CURVE('',#155,#158,#81,.T.);
#194=EDGE_CURVE('',#151,#155,#82,.T.);
#195=EDGE_CURVE('',#153,#158,#83,.T.);
#196=EDGE_CURVE('',#154,#157,#84,.T.);
#197=EDGE_CURVE('',#159,#160,#85,.T.);
#198=EDGE_CURVE('',#159,#161,#86,.T.);
#199=EDGE_CURVE('',#162,#161,#87,.T.);
#200=EDGE_CURVE('',#160,#162,#88,.T.);
#201=EDGE_CURVE('',#163,#160,#15,.T.);
#202=EDGE_CURVE('',#164,#162,#16,.T.);
#203=EDGE_CURVE('',#163,#164,#89,.T.);
#204=EDGE_CURVE('',#163,#148,#90,.T.);
#205=EDGE_CURVE('',#165,#164,#91,.T.);
#206=EDGE_CURVE('',#166,#165,#92,.T.);
#207=EDGE_CURVE('',#144,#166,#93,.T.);
#208=EDGE_CURVE('',#167,#166,#17,.T.);
#209=EDGE_CURVE('',#168,#165,#18,.T.);
#210=EDGE_CURVE('',#167,#168,#94,.T.);
#211=EDGE_CURVE('',#169,#167,#95,.T.);
#212=EDGE_CURVE('',#170,#168,#96,.T.);
#213=EDGE_CURVE('',#169,#170,#97,.T.);
#214=EDGE_CURVE('',#171,#169,#19,.T.);
#215=EDGE_CURVE('',#172,#170,#20,.T.);
#216=EDGE_CURVE('',#171,#172,#98,.T.);
#217=EDGE_CURVE('',#156,#171,#99,.T.);
#218=EDGE_CURVE('',#173,#172,#100,.T.);
#219=EDGE_CURVE('',#174,#173,#101,.T.);
#220=EDGE_CURVE('',#174,#152,#102,.T.);
#221=EDGE_CURVE('',#159,#174,#21,.T.);
#222=EDGE_CURVE('',#161,#173,#22,.T.);
#223=ORIENTED_EDGE('',*,*,#175,.F.);
#224=ORIENTED_EDGE('',*,*,#176,.T.);
#225=ORIENTED_EDGE('',*,*,#177,.F.);
#226=ORIENTED_EDGE('',*,*,#178,.F.);
#227=ORIENTED_EDGE('',*,*,#179,.T.);
#228=ORIENTED_EDGE('',*,*,#180,.F.);
#229=ORIENTED_EDGE('',*,*,#181,.F.);
#230=ORIENTED_EDGE('',*,*,#182,.F.);
#231=ORIENTED_EDGE('',*,*,#183,.T.);
#232=ORIENTED_EDGE('',*,*,#182,.T.);
#233=ORIENTED_EDGE('',*,*,#184,.F.);
#234=ORIENTED_EDGE('',*,*,#176,.F.);
#235=ORIENTED_EDGE('',*,*,#184,.T.);
#236=ORIENTED_EDGE('',*,*,#181,.T.);
#237=ORIENTED_EDGE('',*,*,#185,.F.);
#238=ORIENTED_EDGE('',*,*,#177,.T.);
#239=ORIENTED_EDGE('',*,*,#186,.F.);
#240=ORIENTED_EDGE('',*,*,#187,.T.);
#241=ORIENTED_EDGE('',*,*,#188,.F.);
#242=ORIENTED_EDGE('',*,*,#189,.F.);
#243=ORIENTED_EDGE('',*,*,#190,.T.);
#244=ORIENTED_EDGE('',*,*,#191,.F.);
#245=ORIENTED_EDGE('',*,*,#192,.F.);
#246=ORIENTED_EDGE('',*,*,#193,.F.);
#247=ORIENTED_EDGE('',*,*,#194,.T.);
#248=ORIENTED_EDGE('',*,*,#193,.T.);
#249=ORIENTED_EDGE('',*,*,#195,.F.);
#250=ORIENTED_EDGE('',*,*,#187,.F.);
#251=ORIENTED_EDGE('',*,*,#195,.T.);
#252=ORIENTED_EDGE('',*,*,#192,.T.);
#253=ORIENTED_EDGE('',*,*,#196,.F.);
#254=ORIENTED_EDGE('',*,*,#188,.T.);
#255=ORIENTED_EDGE('',*,*,#197,.F.);
#256=ORIENTED_EDGE('',*,*,#198,.T.);
#257=ORIENTED_EDGE('',*,*,#199,.F.);
#258=ORIENTED_EDGE('',*,*,#200,.F.);
#259=ORIENTED_EDGE('',*,*,#201,.T.);
#260=ORIENTED_EDGE('',*,*,#200,.T.);
#261=ORIENTED_EDGE('',*,*,#202,.F.);
#262=ORIENTED_EDGE('',*,*,#203,.F.);
#263=ORIENTED_EDGE('',*,*,#180,.T.);
#264=ORIENTED_EDGE('',*,*,#204,.F.);
#265=ORIENTED_EDGE('',*,*,#203,.T.);
#266=ORIENTED_EDGE('',*,*,#205,.F.);
#267=ORIENTED_EDGE('',*,*,#206,.F.);
#268=ORIENTED_EDGE('',*,*,#207,.F.);
#269=ORIENTED_EDGE('',*,*,#178,.T.);
#270=ORIENTED_EDGE('',*,*,#185,.T.);
#271=ORIENTED_EDGE('',*,*,#208,.T.);
#272=ORIENTED_EDGE('',*,*,#206,.T.);
#273=ORIENTED_EDGE('',*,*,#209,.F.);
#274=ORIENTED_EDGE('',*,*,#210,.F.);
#275=ORIENTED_EDGE('',*,*,#211,.T.);
#276=ORIENTED_EDGE('',*,*,#210,.T.);
#277=ORIENTED_EDGE('',*,*,#212,.F.);
#278=ORIENTED_EDGE('',*,*,#213,.F.);
#279=ORIENTED_EDGE('',*,*,#214,.T.);
#280=ORIENTED_EDGE('',*,*,#213,.T.);
#281=ORIENTED_EDGE('',*,*,#215,.F.);
#282=ORIENTED_EDGE('',*,*,#216,.F.);
#283=ORIENTED_EDGE('',*,*,#191,.T.);
#284=ORIENTED_EDGE('',*,*,#217,.T.);
#285=ORIENTED_EDGE('',*,*,#216,.T.);
#286=ORIENTED_EDGE('',*,*,#218,.F.);
#287=ORIENTED_EDGE('',*,*,#219,.F.);
#288=ORIENTED_EDGE('',*,*,#220,.T.);
#289=ORIENTED_EDGE('',*,*,#189,.T.);
#290=ORIENTED_EDGE('',*,*,#196,.T.);
#291=ORIENTED_EDGE('',*,*,#221,.T.);
#292=ORIENTED_EDGE('',*,*,#219,.T.);
#293=ORIENTED_EDGE('',*,*,#222,.F.);
#294=ORIENTED_EDGE('',*,*,#198,.F.);
#295=ORIENTED_EDGE('',*,*,#222,.T.);
#296=ORIENTED_EDGE('',*,*,#218,.T.);
#297=ORIENTED_EDGE('',*,*,#215,.T.);
#298=ORIENTED_EDGE('',*,*,#212,.T.);
#299=ORIENTED_EDGE('',*,*,#209,.T.);
#300=ORIENTED_EDGE('',*,*,#205,.T.);
#301=ORIENTED_EDGE('',*,*,#202,.T.);
#302=ORIENTED_EDGE('',*,*,#199,.T.);
#303=ORIENTED_EDGE('',*,*,#221,.F.);
#304=ORIENTED_EDGE('',*,*,#197,.T.);
#305=ORIENTED_EDGE('',*,*,#201,.F.);
#306=ORIENTED_EDGE('',*,*,#204,.T.);
#307=ORIENTED_EDGE('',*,*,#179,.F.);
#308=ORIENTED_EDGE('',*,*,#183,.F.);
#309=ORIENTED_EDGE('',*,*,#175,.T.);
#310=ORIENTED_EDGE('',*,*,#207,.T.);
#311=ORIENTED_EDGE('',*,*,#208,.F.);
#312=ORIENTED_EDGE('',*,*,#211,.F.);
#313=ORIENTED_EDGE('',*,*,#214,.F.);
#314=ORIENTED_EDGE('',*,*,#217,.F.);
#315=ORIENTED_EDGE('',*,*,#190,.F.);
#316=ORIENTED_EDGE('',*,*,#194,.F.);
#317=ORIENTED_EDGE('',*,*,#186,.T.);
#318=ORIENTED_EDGE('',*,*,#220,.F.);
#319=PLANE('',#365);
#320=PLANE('',#366);
#321=PLANE('',#367);
#322=PLANE('',#368);
#323=PLANE('',#369);
#324=PLANE('',#370);
#325=PLANE('',#371);
#326=PLANE('',#372);
#327=PLANE('',#373);
#328=PLANE('',#377);
#329=PLANE('',#381);
#330=PLANE('',#385);
#331=PLANE('',#389);
#332=PLANE('',#390);
#333=ADVANCED_FACE('',(#27),#319,.T.);
#334=ADVANCED_FACE('',(#28),#320,.T.);
#335=ADVANCED_FACE('',(#29),#321,.T.);
#336=ADVANCED_FACE('',(#30),#322,.T.);
#337=ADVANCED_FACE('',(#31),#323,.T.);
#338=ADVANCED_FACE('',(#32),#324,.T.);
#339=ADVANCED_FACE('',(#33),#325,.T.);
#340=ADVANCED_FACE('',(#34),#326,.T.);
#341=ADVANCED_FACE('',(#35),#327,.T.);
#342=ADVANCED_FACE('',(#36),#23,.T.);
#343=ADVANCED_FACE('',(#37),#328,.T.);
#344=ADVANCED_FACE('',(#38),#24,.T.);
#345=ADVANCED_FACE('',(#39),#329,.T.);
#346=ADVANCED_FACE('',(#40),#25,.T.);
#347=ADVANCED_FACE('',(#41),#330,.T.);
#348=ADVANCED_FACE('',(#42),#26,.T.);
#349=ADVANCED_FACE('',(#43),#331,.T.);
#350=ADVANCED_FACE('',(#44),#332,.F.);
#351=CLOSED_SHELL('',(#333,#334,#335,#336,#337,#338,#339,#340,#341,#342,
#343,#344,#345,#346,#347,#348,#349,#350));
#352=DERIVED_UNIT_ELEMENT(#354,1.);
#353=DERIVED_UNIT_ELEMENT(#589,-3.);
#354=(
MASS_UNIT()
NAMED_UNIT(*)
SI_UNIT(.KILO.,.GRAM.)
);
#355=DERIVED_UNIT((#352,#353));
#356=MEASURE_REPRESENTATION_ITEM('density measure',
POSITIVE_RATIO_MEASURE(7850.),#355);
#357=PROPERTY_DEFINITION_REPRESENTATION(#362,#359);
#358=PROPERTY_DEFINITION_REPRESENTATION(#363,#360);
#359=REPRESENTATION('material name',(#361),#586);
#360=REPRESENTATION('density',(#356),#586);
#361=DESCRIPTIVE_REPRESENTATION_ITEM('Steel','Steel');
#362=PROPERTY_DEFINITION('material property','material name',#596);
#363=PROPERTY_DEFINITION('material property','density of part',#596);
#364=AXIS2_PLACEMENT_3D('',#485,#391,#392);
#365=AXIS2_PLACEMENT_3D('',#486,#393,#394);
#366=AXIS2_PLACEMENT_3D('',#495,#399,#400);
#367=AXIS2_PLACEMENT_3D('',#504,#405,#406);
#368=AXIS2_PLACEMENT_3D('',#507,#409,#410);
#369=AXIS2_PLACEMENT_3D('',#509,#412,#413);
#370=AXIS2_PLACEMENT_3D('',#518,#418,#419);
#371=AXIS2_PLACEMENT_3D('',#527,#424,#425);
#372=AXIS2_PLACEMENT_3D('',#530,#428,#429);
#373=AXIS2_PLACEMENT_3D('',#532,#431,#432);
#374=AXIS2_PLACEMENT_3D('',#541,#437,#438);
#375=AXIS2_PLACEMENT_3D('',#543,#439,#440);
#376=AXIS2_PLACEMENT_3D('',#545,#441,#442);
#377=AXIS2_PLACEMENT_3D('',#547,#444,#445);
#378=AXIS2_PLACEMENT_3D('',#554,#450,#451);
#379=AXIS2_PLACEMENT_3D('',#556,#452,#453);
#380=AXIS2_PLACEMENT_3D('',#558,#454,#455);
#381=AXIS2_PLACEMENT_3D('',#560,#457,#458);
#382=AXIS2_PLACEMENT_3D('',#566,#462,#463);
#383=AXIS2_PLACEMENT_3D('',#568,#464,#465);
#384=AXIS2_PLACEMENT_3D('',#570,#466,#467);
#385=AXIS2_PLACEMENT_3D('',#572,#469,#470);
#386=AXIS2_PLACEMENT_3D('',#579,#475,#476);
#387=AXIS2_PLACEMENT_3D('',#580,#477,#478);
#388=AXIS2_PLACEMENT_3D('',#581,#479,#480);
#389=AXIS2_PLACEMENT_3D('',#582,#481,#482);
#390=AXIS2_PLACEMENT_3D('',#583,#483,#484);
#391=DIRECTION('axis',(0.,0.,1.));
#392=DIRECTION('refdir',(1.,0.,0.));
#393=DIRECTION('center_axis',(0.,-1.,0.));
#394=DIRECTION('ref_axis',(1.,0.,0.));
#395=DIRECTION('',(-1.,0.,0.));
#396=DIRECTION('',(0.,0.,1.));
#397=DIRECTION('',(1.,0.,0.));
#398=DIRECTION('',(0.,0.,1.));
#399=DIRECTION('center_axis',(0.,1.,0.));
#400=DIRECTION('ref_axis',(-1.,0.,0.));
#401=DIRECTION('',(-1.,0.,0.));
#402=DIRECTION('',(0.,0.,-1.));
#403=DIRECTION('',(-1.,0.,0.));
#404=DIRECTION('',(0.,0.,1.));
#405=DIRECTION('center_axis',(1.,0.,0.));
#406=DIRECTION('ref_axis',(0.,1.,0.));
#407=DIRECTION('',(0.,1.,0.));
#408=DIRECTION('',(0.,1.,0.));
#409=DIRECTION('center_axis',(0.,0.,1.));
#410=DIRECTION('ref_axis',(1.,0.,0.));
#411=DIRECTION('',(0.,1.,0.));
#412=DIRECTION('center_axis',(0.,1.,0.));
#413=DIRECTION('ref_axis',(-1.,0.,0.));
#414=DIRECTION('',(1.,0.,0.));
#415=DIRECTION('',(0.,0.,1.));
#416=DIRECTION('',(-1.,0.,0.));
#417=DIRECTION('',(0.,0.,1.));
#418=DIRECTION('center_axis',(0.,-1.,0.));
#419=DIRECTION('ref_axis',(1.,0.,0.));
#420=DIRECTION('',(1.,0.,0.));
#421=DIRECTION('',(0.,0.,-1.));
#422=DIRECTION('',(1.,0.,0.));
#423=DIRECTION('',(0.,0.,1.));
#424=DIRECTION('center_axis',(-1.,0.,0.));
#425=DIRECTION('ref_axis',(0.,-1.,0.));
#426=DIRECTION('',(0.,-1.,0.));
#427=DIRECTION('',(0.,-1.,0.));
#428=DIRECTION('center_axis',(0.,0.,1.));
#429=DIRECTION('ref_axis',(1.,0.,0.));
#430=DIRECTION('',(0.,-1.,0.));
#431=DIRECTION('center_axis',(0.,1.,0.));
#432=DIRECTION('ref_axis',(-1.,0.,0.));
#433=DIRECTION('',(1.,0.,0.));
#434=DIRECTION('',(0.,0.,1.));
#435=DIRECTION('',(-1.,0.,0.));
#436=DIRECTION('',(0.,0.,1.));
#437=DIRECTION('center_axis',(0.,0.,1.));
#438=DIRECTION('ref_axis',(1.,0.,0.));
#439=DIRECTION('center_axis',(0.,0.,1.));
#440=DIRECTION('ref_axis',(1.,0.,0.));
#441=DIRECTION('center_axis',(0.,0.,1.));
#442=DIRECTION('ref_axis',(1.,0.,0.));
#443=DIRECTION('',(0.,0.,1.));
#444=DIRECTION('center_axis',(1.,0.,0.));
#445=DIRECTION('ref_axis',(0.,1.,0.));
#446=DIRECTION('',(0.,-1.,0.));
#447=DIRECTION('',(0.,1.,0.));
#448=DIRECTION('',(0.,0.,1.));
#449=DIRECTION('',(0.,-1.,0.));
#450=DIRECTION('center_axis',(0.,0.,1.));
#451=DIRECTION('ref_axis',(0.,-1.,0.));
#452=DIRECTION('center_axis',(0.,0.,1.));
#453=DIRECTION('ref_axis',(0.,-1.,0.));
#454=DIRECTION('center_axis',(0.,0.,1.));
#455=DIRECTION('ref_axis',(0.,-1.,0.));
#456=DIRECTION('',(0.,0.,1.));
#457=DIRECTION('center_axis',(2.00945343823558E-16,-1.,0.));
#458=DIRECTION('ref_axis',(1.,2.00945343823558E-16,0.));
#459=DIRECTION('',(1.,2.00945343823558E-16,0.));
#460=DIRECTION('',(1.,2.00945343823558E-16,0.));
#461=DIRECTION('',(0.,0.,1.));
#462=DIRECTION('center_axis',(0.,0.,1.));
#463=DIRECTION('ref_axis',(-1.,0.,0.));
#464=DIRECTION('center_axis',(0.,0.,1.));
#465=DIRECTION('ref_axis',(-1.,0.,0.));
#466=DIRECTION('center_axis',(0.,0.,1.));
#467=DIRECTION('ref_axis',(-1.,0.,0.));
#468=DIRECTION('',(0.,0.,1.));
#469=DIRECTION('center_axis',(-1.,0.,0.));
#470=DIRECTION('ref_axis',(0.,-1.,0.));
#471=DIRECTION('',(0.,-1.,0.));
#472=DIRECTION('',(0.,-1.,0.));
#473=DIRECTION('',(0.,0.,1.));
#474=DIRECTION('',(0.,-1.,0.));
#475=DIRECTION('center_axis',(0.,0.,1.));
#476=DIRECTION('ref_axis',(0.,1.,0.));
#477=DIRECTION('center_axis',(0.,0.,1.));
#478=DIRECTION('ref_axis',(0.,1.,0.));
#479=DIRECTION('center_axis',(0.,0.,1.));
#480=DIRECTION('ref_axis',(0.,1.,0.));
#481=DIRECTION('center_axis',(0.,0.,1.));
#482=DIRECTION('ref_axis',(1.,0.,0.));
#483=DIRECTION('center_axis',(0.,0.,1.));
#484=DIRECTION('ref_axis',(1.,0.,0.));
#485=CARTESIAN_POINT('',(0.,0.,0.));
#486=CARTESIAN_POINT('Origin',(-35.475,2.85,0.));
#487=CARTESIAN_POINT('',(-34.875,2.85,0.));
#488=CARTESIAN_POINT('',(-35.475,2.85,0.));
#489=CARTESIAN_POINT('',(-34.875,2.85,0.));
#490=CARTESIAN_POINT('',(-34.875,2.85,1.2));
#491=CARTESIAN_POINT('',(-34.875,2.85,0.));
#492=CARTESIAN_POINT('',(-35.475,2.85,1.2));
#493=CARTESIAN_POINT('',(-34.875,2.85,1.2));
#494=CARTESIAN_POINT('',(-35.475,2.85,0.));
#495=CARTESIAN_POINT('Origin',(-34.875,4.45,0.));
#496=CARTESIAN_POINT('',(-34.875,4.45,0.));
#497=CARTESIAN_POINT('',(-35.475,4.45,0.));
#498=CARTESIAN_POINT('',(-34.875,4.45,0.));
#499=CARTESIAN_POINT('',(-35.475,4.45,1.2));
#500=CARTESIAN_POINT('',(-35.475,4.45,0.));
#501=CARTESIAN_POINT('',(-34.875,4.45,1.2));
#502=CARTESIAN_POINT('',(-34.875,4.45,1.2));
#503=CARTESIAN_POINT('',(-34.875,4.45,0.));
#504=CARTESIAN_POINT('Origin',(-34.875,2.85,0.));
#505=CARTESIAN_POINT('',(-34.875,3.65,0.));
#506=CARTESIAN_POINT('',(-34.875,3.65,1.2));
#507=CARTESIAN_POINT('Origin',(-35.175,3.65,1.2));
#508=CARTESIAN_POINT('',(-35.475,2.725,1.2));
#509=CARTESIAN_POINT('Origin',(-43.,4.45,0.));
#510=CARTESIAN_POINT('',(-43.6,4.45,0.));
#511=CARTESIAN_POINT('',(-43.,4.45,0.));
#512=CARTESIAN_POINT('',(-43.6,4.45,0.));
#513=CARTESIAN_POINT('',(-43.6,4.45,1.2));
#514=CARTESIAN_POINT('',(-43.6,4.45,0.));
#515=CARTESIAN_POINT('',(-43.,4.45,1.2));
#516=CARTESIAN_POINT('',(-43.6,4.45,1.2));
#517=CARTESIAN_POINT('',(-43.,4.45,0.));
#518=CARTESIAN_POINT('Origin',(-43.6,2.85,0.));
#519=CARTESIAN_POINT('',(-43.6,2.85,0.));
#520=CARTESIAN_POINT('',(-43.,2.85,0.));
#521=CARTESIAN_POINT('',(-43.6,2.85,0.));
#522=CARTESIAN_POINT('',(-43.,2.85,1.2));
#523=CARTESIAN_POINT('',(-43.,2.85,0.));
#524=CARTESIAN_POINT('',(-43.6,2.85,1.2));
#525=CARTESIAN_POINT('',(-43.6,2.85,1.2));
#526=CARTESIAN_POINT('',(-43.6,2.85,0.));
#527=CARTESIAN_POINT('Origin',(-43.6,4.45,0.));
#528=CARTESIAN_POINT('',(-43.6,3.65,0.));
#529=CARTESIAN_POINT('',(-43.6,3.65,1.2));
#530=CARTESIAN_POINT('Origin',(-43.3,3.65,1.2));
#531=CARTESIAN_POINT('',(-43.,4.575,1.2));
#532=CARTESIAN_POINT('Origin',(-36.475,6.5,0.));
#533=CARTESIAN_POINT('',(-42.,6.5,0.));
#534=CARTESIAN_POINT('',(-36.475,6.5,0.));
#535=CARTESIAN_POINT('',(-42.,6.5,0.));
#536=CARTESIAN_POINT('',(-42.,6.5,5.));
#537=CARTESIAN_POINT('',(-42.,6.5,0.));
#538=CARTESIAN_POINT('',(-36.475,6.5,5.));
#539=CARTESIAN_POINT('',(-42.,6.5,5.));
#540=CARTESIAN_POINT('',(-36.475,6.5,0.));
#541=CARTESIAN_POINT('Origin',(-36.475,5.5,0.));
#542=CARTESIAN_POINT('',(-35.475,5.5,0.));
#543=CARTESIAN_POINT('Origin',(-36.475,5.5,0.));
#544=CARTESIAN_POINT('',(-35.475,5.5,5.));
#545=CARTESIAN_POINT('Origin',(-36.475,5.5,5.));
#546=CARTESIAN_POINT('',(-35.475,5.5,0.));
#547=CARTESIAN_POINT('Origin',(-35.475,1.8,0.));
#548=CARTESIAN_POINT('',(-35.475,5.5,0.));
#549=CARTESIAN_POINT('',(-35.475,1.8,5.));
#550=CARTESIAN_POINT('',(-35.475,5.5,5.));
#551=CARTESIAN_POINT('',(-35.475,1.8,0.));
#552=CARTESIAN_POINT('',(-35.475,1.8,0.));
#553=CARTESIAN_POINT('',(-35.475,5.5,0.));
#554=CARTESIAN_POINT('Origin',(-36.475,1.8,0.));
#555=CARTESIAN_POINT('',(-36.475,0.799999999999999,0.));
#556=CARTESIAN_POINT('Origin',(-36.475,1.8,0.));
#557=CARTESIAN_POINT('',(-36.475,0.8,5.));
#558=CARTESIAN_POINT('Origin',(-36.475,1.8,5.));
#559=CARTESIAN_POINT('',(-36.475,0.799999999999999,0.));
#560=CARTESIAN_POINT('Origin',(-42.,0.799999999999998,0.));
#561=CARTESIAN_POINT('',(-42.,0.799999999999998,0.));
#562=CARTESIAN_POINT('',(-42.,0.799999999999998,0.));
#563=CARTESIAN_POINT('',(-42.,0.799999999999998,5.));
#564=CARTESIAN_POINT('',(-42.,0.799999999999998,5.));
#565=CARTESIAN_POINT('',(-42.,0.799999999999998,0.));
#566=CARTESIAN_POINT('Origin',(-42.,1.8,0.));
#567=CARTESIAN_POINT('',(-43.,1.8,0.));
#568=CARTESIAN_POINT('Origin',(-42.,1.8,0.));
#569=CARTESIAN_POINT('',(-43.,1.8,5.));
#570=CARTESIAN_POINT('Origin',(-42.,1.8,5.));
#571=CARTESIAN_POINT('',(-43.,1.8,0.));
#572=CARTESIAN_POINT('Origin',(-43.,5.5,0.));
#573=CARTESIAN_POINT('',(-43.,5.5,0.));
#574=CARTESIAN_POINT('',(-43.,5.5,5.));
#575=CARTESIAN_POINT('',(-43.,5.5,5.));
#576=CARTESIAN_POINT('',(-43.,5.5,0.));
#577=CARTESIAN_POINT('',(-43.,5.5,0.));
#578=CARTESIAN_POINT('',(-43.,5.5,0.));
#579=CARTESIAN_POINT('Origin',(-42.,5.5,0.));
#580=CARTESIAN_POINT('Origin',(-42.,5.5,0.));
#581=CARTESIAN_POINT('Origin',(-42.,5.5,5.));
#582=CARTESIAN_POINT('Origin',(-39.2375,3.65,5.));
#583=CARTESIAN_POINT('Origin',(-39.2375,3.65,0.));
#584=UNCERTAINTY_MEASURE_WITH_UNIT(LENGTH_MEASURE(0.01),#588,
'DISTANCE_ACCURACY_VALUE',
'Maximum model space distance between geometric entities at asserted c
onnectivities');
#585=UNCERTAINTY_MEASURE_WITH_UNIT(LENGTH_MEASURE(0.01),#588,
'DISTANCE_ACCURACY_VALUE',
'Maximum model space distance between geometric entities at asserted c
onnectivities');
#586=(
GEOMETRIC_REPRESENTATION_CONTEXT(3)
GLOBAL_UNCERTAINTY_ASSIGNED_CONTEXT((#584))
GLOBAL_UNIT_ASSIGNED_CONTEXT((#588,#590,#591))
REPRESENTATION_CONTEXT('','3D')
);
#587=(
GEOMETRIC_REPRESENTATION_CONTEXT(3)
GLOBAL_UNCERTAINTY_ASSIGNED_CONTEXT((#585))
GLOBAL_UNIT_ASSIGNED_CONTEXT((#588,#590,#591))
REPRESENTATION_CONTEXT('','3D')
);
#588=(
LENGTH_UNIT()
NAMED_UNIT(*)
SI_UNIT(.MILLI.,.METRE.)
);
#589=(
LENGTH_UNIT()
NAMED_UNIT(*)
SI_UNIT($,.METRE.)
);
#590=(
NAMED_UNIT(*)
PLANE_ANGLE_UNIT()
SI_UNIT($,.RADIAN.)
);
#591=(
NAMED_UNIT(*)
SI_UNIT($,.STERADIAN.)
SOLID_ANGLE_UNIT()
);
#592=SHAPE_DEFINITION_REPRESENTATION(#593,#594);
#593=PRODUCT_DEFINITION_SHAPE('',$,#596);
#594=SHAPE_REPRESENTATION('',(#364),#586);
#595=PRODUCT_DEFINITION_CONTEXT('part definition',#600,'design');
#596=PRODUCT_DEFINITION('v4.1-plate','v4.1-plate',#597,#595);
#597=PRODUCT_DEFINITION_FORMATION('',$,#602);
#598=PRODUCT_RELATED_PRODUCT_CATEGORY('v4.1-plate','v4.1-plate',(#602));
#599=APPLICATION_PROTOCOL_DEFINITION('international standard',
'automotive_design',2009,#600);
#600=APPLICATION_CONTEXT(
'Core Data for Automotive Mechanical Design Process');
#601=PRODUCT_CONTEXT('part definition',#600,'mechanical');
#602=PRODUCT('v4.1-plate','v4.1-plate',$,(#601));
#603=PRESENTATION_STYLE_ASSIGNMENT((#605));
#604=PRESENTATION_STYLE_ASSIGNMENT((#606));
#605=SURFACE_STYLE_USAGE(.BOTH.,#607);
#606=SURFACE_STYLE_USAGE(.BOTH.,#608);
#607=SURFACE_SIDE_STYLE('',(#609));
#608=SURFACE_SIDE_STYLE('',(#610));
#609=SURFACE_STYLE_FILL_AREA(#611);
#610=SURFACE_STYLE_FILL_AREA(#612);
#611=FILL_AREA_STYLE('Steel - Satin',(#613));
#612=FILL_AREA_STYLE('Opaque(15,102,15)',(#614));
#613=FILL_AREA_STYLE_COLOUR('Steel - Satin',#615);
#614=FILL_AREA_STYLE_COLOUR('Opaque(15,102,15)',#616);
#615=COLOUR_RGB('Steel - Satin',0.627450980392157,0.627450980392157,0.627450980392157);
#616=COLOUR_RGB('Opaque(15,102,15)',0.309803921568627,0.749019607843137,
0.309803921568627);
ENDSEC;
END-ISO-10303-21;
