solid ASCII
  facet normal 0.000000e+00 -1.000000e+00 0.000000e+00
    outer loop
      vertex   -3.547500e+01 2.850000e+00 0.000000e+00
      vertex   -3.487500e+01 2.850000e+00 0.000000e+00
      vertex   -3.547500e+01 2.850000e+00 1.200000e+00
    endloop
  endfacet
  facet normal 0.000000e+00 -1.000000e+00 0.000000e+00
    outer loop
      vertex   -3.547500e+01 2.850000e+00 1.200000e+00
      vertex   -3.487500e+01 2.850000e+00 0.000000e+00
      vertex   -3.487500e+01 2.850000e+00 1.200000e+00
    endloop
  endfacet
  facet normal 0.000000e+00 1.000000e+00 -0.000000e+00
    outer loop
      vertex   -3.487500e+01 4.450000e+00 0.000000e+00
      vertex   -3.547500e+01 4.450000e+00 0.000000e+00
      vertex   -3.487500e+01 4.450000e+00 1.200000e+00
    endloop
  endfacet
  facet normal 0.000000e+00 1.000000e+00 0.000000e+00
    outer loop
      vertex   -3.487500e+01 4.450000e+00 1.200000e+00
      vertex   -3.547500e+01 4.450000e+00 0.000000e+00
      vertex   -3.547500e+01 4.450000e+00 1.200000e+00
    endloop
  endfacet
  facet normal 1.000000e+00 0.000000e+00 0.000000e+00
    outer loop
      vertex   -3.487500e+01 2.850000e+00 0.000000e+00
      vertex   -3.487500e+01 4.450000e+00 0.000000e+00
      vertex   -3.487500e+01 2.850000e+00 1.200000e+00
    endloop
  endfacet
  facet normal 1.000000e+00 -0.000000e+00 0.000000e+00
    outer loop
      vertex   -3.487500e+01 2.850000e+00 1.200000e+00
      vertex   -3.487500e+01 4.450000e+00 0.000000e+00
      vertex   -3.487500e+01 4.450000e+00 1.200000e+00
    endloop
  endfacet
  facet normal 0.000000e+00 0.000000e+00 1.000000e+00
    outer loop
      vertex   -3.487500e+01 4.450000e+00 1.200000e+00
      vertex   -3.547500e+01 4.450000e+00 1.200000e+00
      vertex   -3.487500e+01 2.850000e+00 1.200000e+00
    endloop
  endfacet
  facet normal 0.000000e+00 0.000000e+00 1.000000e+00
    outer loop
      vertex   -3.487500e+01 2.850000e+00 1.200000e+00
      vertex   -3.547500e+01 4.450000e+00 1.200000e+00
      vertex   -3.547500e+01 2.850000e+00 1.200000e+00
    endloop
  endfacet
  facet normal 0.000000e+00 1.000000e+00 -0.000000e+00
    outer loop
      vertex   -4.300000e+01 4.450000e+00 0.000000e+00
      vertex   -4.360000e+01 4.450000e+00 0.000000e+00
      vertex   -4.300000e+01 4.450000e+00 1.200000e+00
    endloop
  endfacet
  facet normal 0.000000e+00 1.000000e+00 0.000000e+00
    outer loop
      vertex   -4.300000e+01 4.450000e+00 1.200000e+00
      vertex   -4.360000e+01 4.450000e+00 0.000000e+00
      vertex   -4.360000e+01 4.450000e+00 1.200000e+00
    endloop
  endfacet
  facet normal 0.000000e+00 -1.000000e+00 0.000000e+00
    outer loop
      vertex   -4.360000e+01 2.850000e+00 0.000000e+00
      vertex   -4.300000e+01 2.850000e+00 0.000000e+00
      vertex   -4.360000e+01 2.850000e+00 1.200000e+00
    endloop
  endfacet
  facet normal 0.000000e+00 -1.000000e+00 0.000000e+00
    outer loop
      vertex   -4.360000e+01 2.850000e+00 1.200000e+00
      vertex   -4.300000e+01 2.850000e+00 0.000000e+00
      vertex   -4.300000e+01 2.850000e+00 1.200000e+00
    endloop
  endfacet
  facet normal -1.000000e+00 0.000000e+00 0.000000e+00
    outer loop
      vertex   -4.360000e+01 4.450000e+00 0.000000e+00
      vertex   -4.360000e+01 2.850000e+00 0.000000e+00
      vertex   -4.360000e+01 4.450000e+00 1.200000e+00
    endloop
  endfacet
  facet normal -1.000000e+00 -0.000000e+00 0.000000e+00
    outer loop
      vertex   -4.360000e+01 4.450000e+00 1.200000e+00
      vertex   -4.360000e+01 2.850000e+00 0.000000e+00
      vertex   -4.360000e+01 2.850000e+00 1.200000e+00
    endloop
  endfacet
  facet normal 0.000000e+00 0.000000e+00 1.000000e+00
    outer loop
      vertex   -4.360000e+01 2.850000e+00 1.200000e+00
      vertex   -4.300000e+01 2.850000e+00 1.200000e+00
      vertex   -4.360000e+01 4.450000e+00 1.200000e+00
    endloop
  endfacet
  facet normal -0.000000e+00 0.000000e+00 1.000000e+00
    outer loop
      vertex   -4.360000e+01 4.450000e+00 1.200000e+00
      vertex   -4.300000e+01 2.850000e+00 1.200000e+00
      vertex   -4.300000e+01 4.450000e+00 1.200000e+00
    endloop
  endfacet
  facet normal 0.000000e+00 1.000000e+00 -0.000000e+00
    outer loop
      vertex   -3.647500e+01 6.500000e+00 0.000000e+00
      vertex   -4.200000e+01 6.500000e+00 0.000000e+00
      vertex   -3.647500e+01 6.500000e+00 5.000000e+00
    endloop
  endfacet
  facet normal 0.000000e+00 1.000000e+00 0.000000e+00
    outer loop
      vertex   -3.647500e+01 6.500000e+00 5.000000e+00
      vertex   -4.200000e+01 6.500000e+00 0.000000e+00
      vertex   -4.200000e+01 6.500000e+00 5.000000e+00
    endloop
  endfacet
  facet normal 9.981756e-01 6.037850e-02 0.000000e+00
    outer loop
      vertex   -3.547500e+01 5.500000e+00 5.000000e+00
      vertex   -3.547500e+01 5.500000e+00 0.000000e+00
      vertex   -3.548229e+01 5.620537e+00 2.500000e+00
    endloop
  endfacet
  facet normal 9.981756e-01 6.037850e-02 0.000000e+00
    outer loop
      vertex   -3.548229e+01 5.620537e+00 2.500000e+00
      vertex   -3.547500e+01 5.500000e+00 0.000000e+00
      vertex   -3.548229e+01 5.620537e+00 0.000000e+00
    endloop
  endfacet
  facet normal 9.836199e-01 1.802550e-01 0.000000e+00
    outer loop
      vertex   -3.548229e+01 5.620537e+00 2.500000e+00
      vertex   -3.548229e+01 5.620537e+00 0.000000e+00
      vertex   -3.550406e+01 5.739316e+00 2.500000e+00
    endloop
  endfacet
  facet normal 9.836199e-01 1.802550e-01 0.000000e+00
    outer loop
      vertex   -3.550406e+01 5.739316e+00 2.500000e+00
      vertex   -3.548229e+01 5.620537e+00 0.000000e+00
      vertex   -3.550406e+01 5.739316e+00 0.000000e+00
    endloop
  endfacet
  facet normal 9.547209e-01 2.975031e-01 0.000000e+00
    outer loop
      vertex   -3.550406e+01 5.739316e+00 2.500000e+00
      vertex   -3.550406e+01 5.739316e+00 0.000000e+00
      vertex   -3.553998e+01 5.854605e+00 2.500000e+00
    endloop
  endfacet
  facet normal 9.547209e-01 2.975031e-01 0.000000e+00
    outer loop
      vertex   -3.553998e+01 5.854605e+00 2.500000e+00
      vertex   -3.550406e+01 5.739316e+00 0.000000e+00
      vertex   -3.553998e+01 5.854605e+00 0.000000e+00
    endloop
  endfacet
  facet normal 9.118998e-01 4.104128e-01 0.000000e+00
    outer loop
      vertex   -3.553998e+01 5.854605e+00 2.500000e+00
      vertex   -3.553998e+01 5.854605e+00 0.000000e+00
      vertex   -3.558954e+01 5.964723e+00 2.500000e+00
    endloop
  endfacet
  facet normal 9.118998e-01 4.104128e-01 0.000000e+00
    outer loop
      vertex   -3.558954e+01 5.964723e+00 2.500000e+00
      vertex   -3.553998e+01 5.854605e+00 0.000000e+00
      vertex   -3.558954e+01 5.964723e+00 0.000000e+00
    endloop
  endfacet
  facet normal 8.557813e-01 5.173378e-01 0.000000e+00
    outer loop
      vertex   -3.558954e+01 5.964723e+00 2.500000e+00
      vertex   -3.558954e+01 5.964723e+00 0.000000e+00
      vertex   -3.565202e+01 6.068065e+00 2.500000e+00
    endloop
  endfacet
  facet normal 8.557813e-01 5.173378e-01 0.000000e+00
    outer loop
      vertex   -3.565202e+01 6.068065e+00 2.500000e+00
      vertex   -3.558954e+01 5.964723e+00 0.000000e+00
      vertex   -3.565202e+01 6.068065e+00 0.000000e+00
    endloop
  endfacet
  facet normal 7.871835e-01 6.167189e-01 0.000000e+00
    outer loop
      vertex   -3.565202e+01 6.068065e+00 2.500000e+00
      vertex   -3.565202e+01 6.068065e+00 0.000000e+00
      vertex   -3.572649e+01 6.163123e+00 2.500000e+00
    endloop
  endfacet
  facet normal 7.871835e-01 6.167189e-01 0.000000e+00
    outer loop
      vertex   -3.572649e+01 6.163123e+00 2.500000e+00
      vertex   -3.565202e+01 6.068065e+00 0.000000e+00
      vertex   -3.572649e+01 6.163123e+00 0.000000e+00
    endloop
  endfacet
  facet normal 7.071068e-01 7.071068e-01 0.000000e+00
    outer loop
      vertex   -3.572649e+01 6.163123e+00 2.500000e+00
      vertex   -3.572649e+01 6.163123e+00 0.000000e+00
      vertex   -3.581188e+01 6.248511e+00 2.500000e+00
    endloop
  endfacet
  facet normal 7.071068e-01 7.071068e-01 0.000000e+00
    outer loop
      vertex   -3.581188e+01 6.248511e+00 2.500000e+00
      vertex   -3.572649e+01 6.163123e+00 0.000000e+00
      vertex   -3.581188e+01 6.248511e+00 0.000000e+00
    endloop
  endfacet
  facet normal 6.167189e-01 7.871835e-01 0.000000e+00
    outer loop
      vertex   -3.581188e+01 6.248511e+00 2.500000e+00
      vertex   -3.581188e+01 6.248511e+00 0.000000e+00
      vertex   -3.590694e+01 6.322984e+00 2.500000e+00
    endloop
  endfacet
  facet normal 6.167189e-01 7.871835e-01 2.796638e-16
    outer loop
      vertex   -3.590694e+01 6.322984e+00 2.500000e+00
      vertex   -3.581188e+01 6.248511e+00 0.000000e+00
      vertex   -3.590694e+01 6.322984e+00 0.000000e+00
    endloop
  endfacet
  facet normal 5.173378e-01 8.557813e-01 3.040346e-16
    outer loop
      vertex   -3.590694e+01 6.322984e+00 2.500000e+00
      vertex   -3.590694e+01 6.322984e+00 0.000000e+00
      vertex   -3.601028e+01 6.385456e+00 2.500000e+00
    endloop
  endfacet
  facet normal 5.173378e-01 8.557813e-01 3.040346e-16
    outer loop
      vertex   -3.601028e+01 6.385456e+00 2.500000e+00
      vertex   -3.590694e+01 6.322984e+00 0.000000e+00
      vertex   -3.601028e+01 6.385456e+00 0.000000e+00
    endloop
  endfacet
  facet normal 4.104128e-01 9.118998e-01 3.239719e-16
    outer loop
      vertex   -3.601028e+01 6.385456e+00 2.500000e+00
      vertex   -3.601028e+01 6.385456e+00 0.000000e+00
      vertex   -3.612040e+01 6.435016e+00 2.500000e+00
    endloop
  endfacet
  facet normal 4.104128e-01 9.118998e-01 0.000000e+00
    outer loop
      vertex   -3.612040e+01 6.435016e+00 2.500000e+00
      vertex   -3.601028e+01 6.385456e+00 0.000000e+00
      vertex   -3.612040e+01 6.435016e+00 0.000000e+00
    endloop
  endfacet
  facet normal 2.975031e-01 9.547209e-01 0.000000e+00
    outer loop
      vertex   -3.612040e+01 6.435016e+00 2.500000e+00
      vertex   -3.612040e+01 6.435016e+00 0.000000e+00
      vertex   -3.623568e+01 6.470942e+00 2.500000e+00
    endloop
  endfacet
  facet normal 2.975031e-01 9.547209e-01 0.000000e+00
    outer loop
      vertex   -3.623568e+01 6.470942e+00 2.500000e+00
      vertex   -3.612040e+01 6.435016e+00 0.000000e+00
      vertex   -3.623568e+01 6.470942e+00 0.000000e+00
    endloop
  endfacet
  facet normal 1.802550e-01 9.836199e-01 0.000000e+00
    outer loop
      vertex   -3.623568e+01 6.470942e+00 2.500000e+00
      vertex   -3.623568e+01 6.470942e+00 0.000000e+00
      vertex   -3.635446e+01 6.492709e+00 2.500000e+00
    endloop
  endfacet
  facet normal 1.802550e-01 9.836199e-01 0.000000e+00
    outer loop
      vertex   -3.635446e+01 6.492709e+00 2.500000e+00
      vertex   -3.623568e+01 6.470942e+00 0.000000e+00
      vertex   -3.635446e+01 6.492709e+00 0.000000e+00
    endloop
  endfacet
  facet normal 6.037850e-02 9.981756e-01 0.000000e+00
    outer loop
      vertex   -3.635446e+01 6.492709e+00 2.500000e+00
      vertex   -3.635446e+01 6.492709e+00 0.000000e+00
      vertex   -3.647500e+01 6.500000e+00 0.000000e+00
    endloop
  endfacet
  facet normal 6.037850e-02 9.981756e-01 -0.000000e+00
    outer loop
      vertex   -3.647500e+01 6.500000e+00 0.000000e+00
      vertex   -3.647500e+01 6.500000e+00 5.000000e+00
      vertex   -3.635446e+01 6.492709e+00 2.500000e+00
    endloop
  endfacet
  facet normal 6.037850e-02 9.981756e-01 -0.000000e+00
    outer loop
      vertex   -3.635446e+01 6.492709e+00 2.500000e+00
      vertex   -3.647500e+01 6.500000e+00 5.000000e+00
      vertex   -3.635446e+01 6.492709e+00 5.000000e+00
    endloop
  endfacet
  facet normal 1.802550e-01 9.836199e-01 -0.000000e+00
    outer loop
      vertex   -3.635446e+01 6.492709e+00 2.500000e+00
      vertex   -3.635446e+01 6.492709e+00 5.000000e+00
      vertex   -3.623568e+01 6.470942e+00 2.500000e+00
    endloop
  endfacet
  facet normal 1.802550e-01 9.836199e-01 -0.000000e+00
    outer loop
      vertex   -3.623568e+01 6.470942e+00 2.500000e+00
      vertex   -3.635446e+01 6.492709e+00 5.000000e+00
      vertex   -3.623568e+01 6.470942e+00 5.000000e+00
    endloop
  endfacet
  facet normal 2.975031e-01 9.547209e-01 -0.000000e+00
    outer loop
      vertex   -3.623568e+01 6.470942e+00 2.500000e+00
      vertex   -3.623568e+01 6.470942e+00 5.000000e+00
      vertex   -3.612040e+01 6.435016e+00 2.500000e+00
    endloop
  endfacet
  facet normal 2.975031e-01 9.547209e-01 -0.000000e+00
    outer loop
      vertex   -3.612040e+01 6.435016e+00 2.500000e+00
      vertex   -3.623568e+01 6.470942e+00 5.000000e+00
      vertex   -3.612040e+01 6.435016e+00 5.000000e+00
    endloop
  endfacet
  facet normal 4.104128e-01 9.118998e-01 -0.000000e+00
    outer loop
      vertex   -3.612040e+01 6.435016e+00 2.500000e+00
      vertex   -3.612040e+01 6.435016e+00 5.000000e+00
      vertex   -3.601028e+01 6.385456e+00 2.500000e+00
    endloop
  endfacet
  facet normal 4.104128e-01 9.118998e-01 -3.239719e-16
    outer loop
      vertex   -3.601028e+01 6.385456e+00 2.500000e+00
      vertex   -3.612040e+01 6.435016e+00 5.000000e+00
      vertex   -3.601028e+01 6.385456e+00 5.000000e+00
    endloop
  endfacet
  facet normal 5.173378e-01 8.557813e-01 -3.040346e-16
    outer loop
      vertex   -3.601028e+01 6.385456e+00 2.500000e+00
      vertex   -3.601028e+01 6.385456e+00 5.000000e+00
      vertex   -3.590694e+01 6.322984e+00 2.500000e+00
    endloop
  endfacet
  facet normal 5.173378e-01 8.557813e-01 -3.040346e-16
    outer loop
      vertex   -3.590694e+01 6.322984e+00 2.500000e+00
      vertex   -3.601028e+01 6.385456e+00 5.000000e+00
      vertex   -3.590694e+01 6.322984e+00 5.000000e+00
    endloop
  endfacet
  facet normal 6.167189e-01 7.871835e-01 -2.796638e-16
    outer loop
      vertex   -3.590694e+01 6.322984e+00 2.500000e+00
      vertex   -3.590694e+01 6.322984e+00 5.000000e+00
      vertex   -3.581188e+01 6.248511e+00 2.500000e+00
    endloop
  endfacet
  facet normal 6.167189e-01 7.871835e-01 -0.000000e+00
    outer loop
      vertex   -3.581188e+01 6.248511e+00 2.500000e+00
      vertex   -3.590694e+01 6.322984e+00 5.000000e+00
      vertex   -3.581188e+01 6.248511e+00 5.000000e+00
    endloop
  endfacet
  facet normal 7.071068e-01 7.071068e-01 -0.000000e+00
    outer loop
      vertex   -3.581188e+01 6.248511e+00 2.500000e+00
      vertex   -3.581188e+01 6.248511e+00 5.000000e+00
      vertex   -3.572649e+01 6.163123e+00 2.500000e+00
    endloop
  endfacet
  facet normal 7.071068e-01 7.071068e-01 -0.000000e+00
    outer loop
      vertex   -3.572649e+01 6.163123e+00 2.500000e+00
      vertex   -3.581188e+01 6.248511e+00 5.000000e+00
      vertex   -3.572649e+01 6.163123e+00 5.000000e+00
    endloop
  endfacet
  facet normal 7.871835e-01 6.167189e-01 -0.000000e+00
    outer loop
      vertex   -3.572649e+01 6.163123e+00 2.500000e+00
      vertex   -3.572649e+01 6.163123e+00 5.000000e+00
      vertex   -3.565202e+01 6.068065e+00 2.500000e+00
    endloop
  endfacet
  facet normal 7.871835e-01 6.167189e-01 -0.000000e+00
    outer loop
      vertex   -3.565202e+01 6.068065e+00 2.500000e+00
      vertex   -3.572649e+01 6.163123e+00 5.000000e+00
      vertex   -3.565202e+01 6.068065e+00 5.000000e+00
    endloop
  endfacet
  facet normal 8.557813e-01 5.173378e-01 -0.000000e+00
    outer loop
      vertex   -3.565202e+01 6.068065e+00 2.500000e+00
      vertex   -3.565202e+01 6.068065e+00 5.000000e+00
      vertex   -3.558954e+01 5.964723e+00 2.500000e+00
    endloop
  endfacet
  facet normal 8.557813e-01 5.173378e-01 -0.000000e+00
    outer loop
      vertex   -3.558954e+01 5.964723e+00 2.500000e+00
      vertex   -3.565202e+01 6.068065e+00 5.000000e+00
      vertex   -3.558954e+01 5.964723e+00 5.000000e+00
    endloop
  endfacet
  facet normal 9.118998e-01 4.104128e-01 -0.000000e+00
    outer loop
      vertex   -3.558954e+01 5.964723e+00 2.500000e+00
      vertex   -3.558954e+01 5.964723e+00 5.000000e+00
      vertex   -3.553998e+01 5.854605e+00 2.500000e+00
    endloop
  endfacet
  facet normal 9.118998e-01 4.104128e-01 -0.000000e+00
    outer loop
      vertex   -3.553998e+01 5.854605e+00 2.500000e+00
      vertex   -3.558954e+01 5.964723e+00 5.000000e+00
      vertex   -3.553998e+01 5.854605e+00 5.000000e+00
    endloop
  endfacet
  facet normal 9.547209e-01 2.975031e-01 -0.000000e+00
    outer loop
      vertex   -3.553998e+01 5.854605e+00 2.500000e+00
      vertex   -3.553998e+01 5.854605e+00 5.000000e+00
      vertex   -3.550406e+01 5.739316e+00 2.500000e+00
    endloop
  endfacet
  facet normal 9.547209e-01 2.975031e-01 -0.000000e+00
    outer loop
      vertex   -3.550406e+01 5.739316e+00 2.500000e+00
      vertex   -3.553998e+01 5.854605e+00 5.000000e+00
      vertex   -3.550406e+01 5.739316e+00 5.000000e+00
    endloop
  endfacet
  facet normal 9.836199e-01 1.802550e-01 -0.000000e+00
    outer loop
      vertex   -3.550406e+01 5.739316e+00 2.500000e+00
      vertex   -3.550406e+01 5.739316e+00 5.000000e+00
      vertex   -3.548229e+01 5.620537e+00 2.500000e+00
    endloop
  endfacet
  facet normal 9.836199e-01 1.802550e-01 -0.000000e+00
    outer loop
      vertex   -3.548229e+01 5.620537e+00 2.500000e+00
      vertex   -3.550406e+01 5.739316e+00 5.000000e+00
      vertex   -3.548229e+01 5.620537e+00 5.000000e+00
    endloop
  endfacet
  facet normal 9.981756e-01 6.037850e-02 -0.000000e+00
    outer loop
      vertex   -3.548229e+01 5.620537e+00 2.500000e+00
      vertex   -3.548229e+01 5.620537e+00 5.000000e+00
      vertex   -3.547500e+01 5.500000e+00 5.000000e+00
    endloop
  endfacet
  facet normal 1.000000e+00 6.767074e-15 -0.000000e+00
    outer loop
      vertex   -3.547500e+01 4.450000e+00 0.000000e+00
      vertex   -3.547500e+01 5.500000e+00 0.000000e+00
      vertex   -3.547500e+01 4.450000e+00 1.200000e+00
    endloop
  endfacet
  facet normal 1.000000e+00 6.767074e-15 0.000000e+00
    outer loop
      vertex   -3.547500e+01 4.450000e+00 1.200000e+00
      vertex   -3.547500e+01 5.500000e+00 0.000000e+00
      vertex   -3.547500e+01 5.500000e+00 5.000000e+00
    endloop
  endfacet
  facet normal 1.000000e+00 0.000000e+00 1.869849e-15
    outer loop
      vertex   -3.547500e+01 4.450000e+00 1.200000e+00
      vertex   -3.547500e+01 5.500000e+00 5.000000e+00
      vertex   -3.547500e+01 1.800000e+00 5.000000e+00
    endloop
  endfacet
  facet normal 1.000000e+00 0.000000e+00 1.869849e-15
    outer loop
      vertex   -3.547500e+01 4.450000e+00 1.200000e+00
      vertex   -3.547500e+01 1.800000e+00 5.000000e+00
      vertex   -3.547500e+01 2.850000e+00 1.200000e+00
    endloop
  endfacet
  facet normal 1.000000e+00 -6.767074e-15 0.000000e+00
    outer loop
      vertex   -3.547500e+01 2.850000e+00 1.200000e+00
      vertex   -3.547500e+01 1.800000e+00 5.000000e+00
      vertex   -3.547500e+01 1.800000e+00 0.000000e+00
    endloop
  endfacet
  facet normal 1.000000e+00 -6.767074e-15 0.000000e+00
    outer loop
      vertex   -3.547500e+01 2.850000e+00 1.200000e+00
      vertex   -3.547500e+01 1.800000e+00 0.000000e+00
      vertex   -3.547500e+01 2.850000e+00 0.000000e+00
    endloop
  endfacet
  facet normal 6.037850e-02 -9.981756e-01 2.216395e-17
    outer loop
      vertex   -3.647500e+01 8.000000e-01 5.000000e+00
      vertex   -3.647500e+01 8.000000e-01 0.000000e+00
      vertex   -3.635446e+01 8.072911e-01 2.500000e+00
    endloop
  endfacet
  facet normal 6.037850e-02 -9.981756e-01 -8.865580e-17
    outer loop
      vertex   -3.635446e+01 8.072911e-01 2.500000e+00
      vertex   -3.647500e+01 8.000000e-01 0.000000e+00
      vertex   -3.635446e+01 8.072911e-01 0.000000e+00
    endloop
  endfacet
  facet normal 1.802550e-01 -9.836199e-01 -8.736300e-17
    outer loop
      vertex   -3.635446e+01 8.072911e-01 2.500000e+00
      vertex   -3.635446e+01 8.072911e-01 0.000000e+00
      vertex   -3.623568e+01 8.290582e-01 2.500000e+00
    endloop
  endfacet
  facet normal 1.802550e-01 -9.836199e-01 -2.184075e-16
    outer loop
      vertex   -3.623568e+01 8.290582e-01 2.500000e+00
      vertex   -3.635446e+01 8.072911e-01 0.000000e+00
      vertex   -3.623568e+01 8.290582e-01 0.000000e+00
    endloop
  endfacet
  facet normal 2.975031e-01 -9.547209e-01 -2.119906e-16
    outer loop
      vertex   -3.623568e+01 8.290582e-01 2.500000e+00
      vertex   -3.623568e+01 8.290582e-01 0.000000e+00
      vertex   -3.612040e+01 8.649838e-01 2.500000e+00
    endloop
  endfacet
  facet normal 2.975031e-01 -9.547209e-01 0.000000e+00
    outer loop
      vertex   -3.612040e+01 8.649838e-01 2.500000e+00
      vertex   -3.623568e+01 8.290582e-01 0.000000e+00
      vertex   -3.612040e+01 8.649838e-01 0.000000e+00
    endloop
  endfacet
  facet normal 4.104128e-01 -9.118998e-01 0.000000e+00
    outer loop
      vertex   -3.612040e+01 8.649838e-01 2.500000e+00
      vertex   -3.612040e+01 8.649838e-01 0.000000e+00
      vertex   -3.601028e+01 9.145440e-01 2.500000e+00
    endloop
  endfacet
  facet normal 4.104128e-01 -9.118998e-01 3.239719e-16
    outer loop
      vertex   -3.601028e+01 9.145440e-01 2.500000e+00
      vertex   -3.612040e+01 8.649838e-01 0.000000e+00
      vertex   -3.601028e+01 9.145440e-01 0.000000e+00
    endloop
  endfacet
  facet normal 5.173378e-01 -8.557813e-01 3.040346e-16
    outer loop
      vertex   -3.601028e+01 9.145440e-01 2.500000e+00
      vertex   -3.601028e+01 9.145440e-01 0.000000e+00
      vertex   -3.590694e+01 9.770161e-01 2.500000e+00
    endloop
  endfacet
  facet normal 5.173378e-01 -8.557813e-01 -3.040346e-16
    outer loop
      vertex   -3.590694e+01 9.770161e-01 2.500000e+00
      vertex   -3.601028e+01 9.145440e-01 0.000000e+00
      vertex   -3.590694e+01 9.770161e-01 0.000000e+00
    endloop
  endfacet
  facet normal 6.167189e-01 -7.871835e-01 -2.796638e-16
    outer loop
      vertex   -3.590694e+01 9.770161e-01 2.500000e+00
      vertex   -3.590694e+01 9.770161e-01 0.000000e+00
      vertex   -3.581188e+01 1.051489e+00 2.500000e+00
    endloop
  endfacet
  facet normal 6.167189e-01 -7.871835e-01 6.991594e-17
    outer loop
      vertex   -3.581188e+01 1.051489e+00 2.500000e+00
      vertex   -3.590694e+01 9.770161e-01 0.000000e+00
      vertex   -3.581188e+01 1.051489e+00 0.000000e+00
    endloop
  endfacet
  facet normal 7.071068e-01 -7.071068e-01 6.280370e-17
    outer loop
      vertex   -3.581188e+01 1.051489e+00 2.500000e+00
      vertex   -3.581188e+01 1.051489e+00 0.000000e+00
      vertex   -3.572649e+01 1.136877e+00 2.500000e+00
    endloop
  endfacet
  facet normal 7.071068e-01 -7.071068e-01 -6.280370e-17
    outer loop
      vertex   -3.572649e+01 1.136877e+00 2.500000e+00
      vertex   -3.581188e+01 1.051489e+00 0.000000e+00
      vertex   -3.572649e+01 1.136877e+00 0.000000e+00
    endloop
  endfacet
  facet normal 7.871835e-01 -6.167189e-01 -5.477564e-17
    outer loop
      vertex   -3.572649e+01 1.136877e+00 2.500000e+00
      vertex   -3.572649e+01 1.136877e+00 0.000000e+00
      vertex   -3.565202e+01 1.231935e+00 2.500000e+00
    endloop
  endfacet
  facet normal 7.871835e-01 -6.167189e-01 0.000000e+00
    outer loop
      vertex   -3.565202e+01 1.231935e+00 2.500000e+00
      vertex   -3.572649e+01 1.136877e+00 0.000000e+00
      vertex   -3.565202e+01 1.231935e+00 0.000000e+00
    endloop
  endfacet
  facet normal 8.557813e-01 -5.173378e-01 0.000000e+00
    outer loop
      vertex   -3.565202e+01 1.231935e+00 2.500000e+00
      vertex   -3.565202e+01 1.231935e+00 0.000000e+00
      vertex   -3.558954e+01 1.335277e+00 2.500000e+00
    endloop
  endfacet
  facet normal 8.557813e-01 -5.173378e-01 4.594883e-17
    outer loop
      vertex   -3.558954e+01 1.335277e+00 2.500000e+00
      vertex   -3.565202e+01 1.231935e+00 0.000000e+00
      vertex   -3.558954e+01 1.335277e+00 0.000000e+00
    endloop
  endfacet
  facet normal 9.118998e-01 -4.104128e-01 3.645198e-17
    outer loop
      vertex   -3.558954e+01 1.335277e+00 2.500000e+00
      vertex   -3.558954e+01 1.335277e+00 0.000000e+00
      vertex   -3.553998e+01 1.445395e+00 2.500000e+00
    endloop
  endfacet
  facet normal 9.118998e-01 -4.104128e-01 7.290396e-17
    outer loop
      vertex   -3.553998e+01 1.445395e+00 2.500000e+00
      vertex   -3.558954e+01 1.335277e+00 0.000000e+00
      vertex   -3.553998e+01 1.445395e+00 0.000000e+00
    endloop
  endfacet
  facet normal 9.547209e-01 -2.975031e-01 5.284716e-17
    outer loop
      vertex   -3.553998e+01 1.445395e+00 2.500000e+00
      vertex   -3.553998e+01 1.445395e+00 0.000000e+00
      vertex   -3.550406e+01 1.560684e+00 2.500000e+00
    endloop
  endfacet
  facet normal 9.547209e-01 -2.975031e-01 0.000000e+00
    outer loop
      vertex   -3.550406e+01 1.560684e+00 2.500000e+00
      vertex   -3.553998e+01 1.445395e+00 0.000000e+00
      vertex   -3.550406e+01 1.560684e+00 0.000000e+00
    endloop
  endfacet
  facet normal 9.836199e-01 -1.802550e-01 0.000000e+00
    outer loop
      vertex   -3.550406e+01 1.560684e+00 2.500000e+00
      vertex   -3.550406e+01 1.560684e+00 0.000000e+00
      vertex   -3.548229e+01 1.679463e+00 2.500000e+00
    endloop
  endfacet
  facet normal 9.836199e-01 -1.802550e-01 0.000000e+00
    outer loop
      vertex   -3.548229e+01 1.679463e+00 2.500000e+00
      vertex   -3.550406e+01 1.560684e+00 0.000000e+00
      vertex   -3.548229e+01 1.679463e+00 0.000000e+00
    endloop
  endfacet
  facet normal 9.981756e-01 -6.037850e-02 0.000000e+00
    outer loop
      vertex   -3.548229e+01 1.679463e+00 2.500000e+00
      vertex   -3.548229e+01 1.679463e+00 0.000000e+00
      vertex   -3.547500e+01 1.800000e+00 0.000000e+00
    endloop
  endfacet
  facet normal 9.981756e-01 -6.037850e-02 0.000000e+00
    outer loop
      vertex   -3.547500e+01 1.800000e+00 0.000000e+00
      vertex   -3.547500e+01 1.800000e+00 5.000000e+00
      vertex   -3.548229e+01 1.679463e+00 2.500000e+00
    endloop
  endfacet
  facet normal 9.981756e-01 -6.037850e-02 0.000000e+00
    outer loop
      vertex   -3.548229e+01 1.679463e+00 2.500000e+00
      vertex   -3.547500e+01 1.800000e+00 5.000000e+00
      vertex   -3.548229e+01 1.679463e+00 5.000000e+00
    endloop
  endfacet
  facet normal 9.836199e-01 -1.802550e-01 0.000000e+00
    outer loop
      vertex   -3.548229e+01 1.679463e+00 2.500000e+00
      vertex   -3.548229e+01 1.679463e+00 5.000000e+00
      vertex   -3.550406e+01 1.560684e+00 2.500000e+00
    endloop
  endfacet
  facet normal 9.836199e-01 -1.802550e-01 0.000000e+00
    outer loop
      vertex   -3.550406e+01 1.560684e+00 2.500000e+00
      vertex   -3.548229e+01 1.679463e+00 5.000000e+00
      vertex   -3.550406e+01 1.560684e+00 5.000000e+00
    endloop
  endfacet
  facet normal 9.547209e-01 -2.975031e-01 0.000000e+00
    outer loop
      vertex   -3.550406e+01 1.560684e+00 2.500000e+00
      vertex   -3.550406e+01 1.560684e+00 5.000000e+00
      vertex   -3.553998e+01 1.445395e+00 2.500000e+00
    endloop
  endfacet
  facet normal 9.547209e-01 -2.975031e-01 -5.284716e-17
    outer loop
      vertex   -3.553998e+01 1.445395e+00 2.500000e+00
      vertex   -3.550406e+01 1.560684e+00 5.000000e+00
      vertex   -3.553998e+01 1.445395e+00 5.000000e+00
    endloop
  endfacet
  facet normal 9.118998e-01 -4.104128e-01 -7.290396e-17
    outer loop
      vertex   -3.553998e+01 1.445395e+00 2.500000e+00
      vertex   -3.553998e+01 1.445395e+00 5.000000e+00
      vertex   -3.558954e+01 1.335277e+00 2.500000e+00
    endloop
  endfacet
  facet normal 9.118998e-01 -4.104128e-01 -3.645198e-17
    outer loop
      vertex   -3.558954e+01 1.335277e+00 2.500000e+00
      vertex   -3.553998e+01 1.445395e+00 5.000000e+00
      vertex   -3.558954e+01 1.335277e+00 5.000000e+00
    endloop
  endfacet
  facet normal 8.557813e-01 -5.173378e-01 -4.594883e-17
    outer loop
      vertex   -3.558954e+01 1.335277e+00 2.500000e+00
      vertex   -3.558954e+01 1.335277e+00 5.000000e+00
      vertex   -3.565202e+01 1.231935e+00 2.500000e+00
    endloop
  endfacet
  facet normal 8.557813e-01 -5.173378e-01 0.000000e+00
    outer loop
      vertex   -3.565202e+01 1.231935e+00 2.500000e+00
      vertex   -3.558954e+01 1.335277e+00 5.000000e+00
      vertex   -3.565202e+01 1.231935e+00 5.000000e+00
    endloop
  endfacet
  facet normal 7.871835e-01 -6.167189e-01 0.000000e+00
    outer loop
      vertex   -3.565202e+01 1.231935e+00 2.500000e+00
      vertex   -3.565202e+01 1.231935e+00 5.000000e+00
      vertex   -3.572649e+01 1.136877e+00 2.500000e+00
    endloop
  endfacet
  facet normal 7.871835e-01 -6.167189e-01 5.477564e-17
    outer loop
      vertex   -3.572649e+01 1.136877e+00 2.500000e+00
      vertex   -3.565202e+01 1.231935e+00 5.000000e+00
      vertex   -3.572649e+01 1.136877e+00 5.000000e+00
    endloop
  endfacet
  facet normal 7.071068e-01 -7.071068e-01 6.280370e-17
    outer loop
      vertex   -3.572649e+01 1.136877e+00 2.500000e+00
      vertex   -3.572649e+01 1.136877e+00 5.000000e+00
      vertex   -3.581188e+01 1.051489e+00 2.500000e+00
    endloop
  endfacet
  facet normal 7.071068e-01 -7.071068e-01 -6.280370e-17
    outer loop
      vertex   -3.581188e+01 1.051489e+00 2.500000e+00
      vertex   -3.572649e+01 1.136877e+00 5.000000e+00
      vertex   -3.581188e+01 1.051489e+00 5.000000e+00
    endloop
  endfacet
  facet normal 6.167189e-01 -7.871835e-01 -6.991594e-17
    outer loop
      vertex   -3.581188e+01 1.051489e+00 2.500000e+00
      vertex   -3.581188e+01 1.051489e+00 5.000000e+00
      vertex   -3.590694e+01 9.770161e-01 2.500000e+00
    endloop
  endfacet
  facet normal 6.167189e-01 -7.871835e-01 2.796638e-16
    outer loop
      vertex   -3.590694e+01 9.770161e-01 2.500000e+00
      vertex   -3.581188e+01 1.051489e+00 5.000000e+00
      vertex   -3.590694e+01 9.770161e-01 5.000000e+00
    endloop
  endfacet
  facet normal 5.173378e-01 -8.557813e-01 3.040346e-16
    outer loop
      vertex   -3.590694e+01 9.770161e-01 2.500000e+00
      vertex   -3.590694e+01 9.770161e-01 5.000000e+00
      vertex   -3.601028e+01 9.145440e-01 2.500000e+00
    endloop
  endfacet
  facet normal 5.173378e-01 -8.557813e-01 -3.040346e-16
    outer loop
      vertex   -3.601028e+01 9.145440e-01 2.500000e+00
      vertex   -3.590694e+01 9.770161e-01 5.000000e+00
      vertex   -3.601028e+01 9.145440e-01 5.000000e+00
    endloop
  endfacet
  facet normal 4.104128e-01 -9.118998e-01 -3.239719e-16
    outer loop
      vertex   -3.601028e+01 9.145440e-01 2.500000e+00
      vertex   -3.601028e+01 9.145440e-01 5.000000e+00
      vertex   -3.612040e+01 8.649838e-01 2.500000e+00
    endloop
  endfacet
  facet normal 4.104128e-01 -9.118998e-01 0.000000e+00
    outer loop
      vertex   -3.612040e+01 8.649838e-01 2.500000e+00
      vertex   -3.601028e+01 9.145440e-01 5.000000e+00
      vertex   -3.612040e+01 8.649838e-01 5.000000e+00
    endloop
  endfacet
  facet normal 2.975031e-01 -9.547209e-01 0.000000e+00
    outer loop
      vertex   -3.612040e+01 8.649838e-01 2.500000e+00
      vertex   -3.612040e+01 8.649838e-01 5.000000e+00
      vertex   -3.623568e+01 8.290582e-01 2.500000e+00
    endloop
  endfacet
  facet normal 2.975031e-01 -9.547209e-01 2.119906e-16
    outer loop
      vertex   -3.623568e+01 8.290582e-01 2.500000e+00
      vertex   -3.612040e+01 8.649838e-01 5.000000e+00
      vertex   -3.623568e+01 8.290582e-01 5.000000e+00
    endloop
  endfacet
  facet normal 1.802550e-01 -9.836199e-01 2.184075e-16
    outer loop
      vertex   -3.623568e+01 8.290582e-01 2.500000e+00
      vertex   -3.623568e+01 8.290582e-01 5.000000e+00
      vertex   -3.635446e+01 8.072911e-01 2.500000e+00
    endloop
  endfacet
  facet normal 1.802550e-01 -9.836199e-01 8.736300e-17
    outer loop
      vertex   -3.635446e+01 8.072911e-01 2.500000e+00
      vertex   -3.623568e+01 8.290582e-01 5.000000e+00
      vertex   -3.635446e+01 8.072911e-01 5.000000e+00
    endloop
  endfacet
  facet normal 6.037850e-02 -9.981756e-01 8.865580e-17
    outer loop
      vertex   -3.635446e+01 8.072911e-01 2.500000e+00
      vertex   -3.635446e+01 8.072911e-01 5.000000e+00
      vertex   -3.647500e+01 8.000000e-01 5.000000e+00
    endloop
  endfacet
  facet normal 2.009453e-16 -1.000000e+00 2.220446e-17
    outer loop
      vertex   -4.200000e+01 8.000000e-01 0.000000e+00
      vertex   -3.647500e+01 8.000000e-01 0.000000e+00
      vertex   -4.200000e+01 8.000000e-01 5.000000e+00
    endloop
  endfacet
  facet normal 2.009453e-16 -1.000000e+00 2.220446e-17
    outer loop
      vertex   -4.200000e+01 8.000000e-01 5.000000e+00
      vertex   -3.647500e+01 8.000000e-01 0.000000e+00
      vertex   -3.647500e+01 8.000000e-01 5.000000e+00
    endloop
  endfacet
  facet normal -9.981756e-01 -6.037850e-02 -0.000000e+00
    outer loop
      vertex   -4.300000e+01 1.800000e+00 5.000000e+00
      vertex   -4.300000e+01 1.800000e+00 0.000000e+00
      vertex   -4.299271e+01 1.679463e+00 2.500000e+00
    endloop
  endfacet
  facet normal -9.981756e-01 -6.037850e-02 -0.000000e+00
    outer loop
      vertex   -4.299271e+01 1.679463e+00 2.500000e+00
      vertex   -4.300000e+01 1.800000e+00 0.000000e+00
      vertex   -4.299271e+01 1.679463e+00 0.000000e+00
    endloop
  endfacet
  facet normal -9.836199e-01 -1.802550e-01 -0.000000e+00
    outer loop
      vertex   -4.299271e+01 1.679463e+00 2.500000e+00
      vertex   -4.299271e+01 1.679463e+00 0.000000e+00
      vertex   -4.297094e+01 1.560684e+00 2.500000e+00
    endloop
  endfacet
  facet normal -9.836199e-01 -1.802550e-01 6.403945e-17
    outer loop
      vertex   -4.297094e+01 1.560684e+00 2.500000e+00
      vertex   -4.299271e+01 1.679463e+00 0.000000e+00
      vertex   -4.297094e+01 1.560684e+00 0.000000e+00
    endloop
  endfacet
  facet normal -9.547209e-01 -2.975031e-01 1.056943e-16
    outer loop
      vertex   -4.297094e+01 1.560684e+00 2.500000e+00
      vertex   -4.297094e+01 1.560684e+00 0.000000e+00
      vertex   -4.293502e+01 1.445395e+00 2.500000e+00
    endloop
  endfacet
  facet normal -9.547209e-01 -2.975031e-01 -1.585415e-16
    outer loop
      vertex   -4.293502e+01 1.445395e+00 2.500000e+00
      vertex   -4.297094e+01 1.560684e+00 0.000000e+00
      vertex   -4.293502e+01 1.445395e+00 0.000000e+00
    endloop
  endfacet
  facet normal -9.118998e-01 -4.104128e-01 -2.187119e-16
    outer loop
      vertex   -4.293502e+01 1.445395e+00 2.500000e+00
      vertex   -4.293502e+01 1.445395e+00 0.000000e+00
      vertex   -4.288546e+01 1.335277e+00 2.500000e+00
    endloop
  endfacet
  facet normal -9.118998e-01 -4.104128e-01 -2.916158e-16
    outer loop
      vertex   -4.288546e+01 1.335277e+00 2.500000e+00
      vertex   -4.293502e+01 1.445395e+00 0.000000e+00
      vertex   -4.288546e+01 1.335277e+00 0.000000e+00
    endloop
  endfacet
  facet normal -8.557813e-01 -5.173378e-01 -3.675906e-16
    outer loop
      vertex   -4.288546e+01 1.335277e+00 2.500000e+00
      vertex   -4.288546e+01 1.335277e+00 0.000000e+00
      vertex   -4.282298e+01 1.231935e+00 2.500000e+00
    endloop
  endfacet
  facet normal -8.557813e-01 -5.173378e-01 4.135395e-16
    outer loop
      vertex   -4.282298e+01 1.231935e+00 2.500000e+00
      vertex   -4.288546e+01 1.335277e+00 0.000000e+00
      vertex   -4.282298e+01 1.231935e+00 0.000000e+00
    endloop
  endfacet
  facet normal -7.871835e-01 -6.167189e-01 4.929808e-16
    outer loop
      vertex   -4.282298e+01 1.231935e+00 2.500000e+00
      vertex   -4.282298e+01 1.231935e+00 0.000000e+00
      vertex   -4.274851e+01 1.136877e+00 2.500000e+00
    endloop
  endfacet
  facet normal -7.871835e-01 -6.167189e-01 -0.000000e+00
    outer loop
      vertex   -4.274851e+01 1.136877e+00 2.500000e+00
      vertex   -4.282298e+01 1.231935e+00 0.000000e+00
      vertex   -4.274851e+01 1.136877e+00 0.000000e+00
    endloop
  endfacet
  facet normal -7.071068e-01 -7.071068e-01 -0.000000e+00
    outer loop
      vertex   -4.274851e+01 1.136877e+00 2.500000e+00
      vertex   -4.274851e+01 1.136877e+00 0.000000e+00
      vertex   -4.266312e+01 1.051489e+00 2.500000e+00
    endloop
  endfacet
  facet normal -7.071068e-01 -7.071068e-01 1.884111e-16
    outer loop
      vertex   -4.266312e+01 1.051489e+00 2.500000e+00
      vertex   -4.274851e+01 1.136877e+00 0.000000e+00
      vertex   -4.266312e+01 1.051489e+00 0.000000e+00
    endloop
  endfacet
  facet normal -6.167189e-01 -7.871835e-01 2.097478e-16
    outer loop
      vertex   -4.266312e+01 1.051489e+00 2.500000e+00
      vertex   -4.266312e+01 1.051489e+00 0.000000e+00
      vertex   -4.256806e+01 9.770161e-01 2.500000e+00
    endloop
  endfacet
  facet normal -6.167189e-01 -7.871835e-01 -1.048739e-16
    outer loop
      vertex   -4.256806e+01 9.770161e-01 2.500000e+00
      vertex   -4.266312e+01 1.051489e+00 0.000000e+00
      vertex   -4.256806e+01 9.770161e-01 0.000000e+00
    endloop
  endfacet
  facet normal -5.173378e-01 -8.557813e-01 -1.140130e-16
    outer loop
      vertex   -4.256806e+01 9.770161e-01 2.500000e+00
      vertex   -4.256806e+01 9.770161e-01 0.000000e+00
      vertex   -4.246472e+01 9.145440e-01 2.500000e+00
    endloop
  endfacet
  facet normal -5.173378e-01 -8.557813e-01 -3.800432e-17
    outer loop
      vertex   -4.246472e+01 9.145440e-01 2.500000e+00
      vertex   -4.256806e+01 9.770161e-01 0.000000e+00
      vertex   -4.246472e+01 9.145440e-01 0.000000e+00
    endloop
  endfacet
  facet normal -4.104128e-01 -9.118998e-01 -4.049649e-17
    outer loop
      vertex   -4.246472e+01 9.145440e-01 2.500000e+00
      vertex   -4.246472e+01 9.145440e-01 0.000000e+00
      vertex   -4.235460e+01 8.649838e-01 2.500000e+00
    endloop
  endfacet
  facet normal -4.104128e-01 -9.118998e-01 -2.834754e-16
    outer loop
      vertex   -4.235460e+01 8.649838e-01 2.500000e+00
      vertex   -4.246472e+01 9.145440e-01 0.000000e+00
      vertex   -4.235460e+01 8.649838e-01 0.000000e+00
    endloop
  endfacet
  facet normal -2.975031e-01 -9.547209e-01 -2.967869e-16
    outer loop
      vertex   -4.235460e+01 8.649838e-01 2.500000e+00
      vertex   -4.235460e+01 8.649838e-01 0.000000e+00
      vertex   -4.223932e+01 8.290582e-01 2.500000e+00
    endloop
  endfacet
  facet normal -2.975031e-01 -9.547209e-01 -2.543887e-16
    outer loop
      vertex   -4.223932e+01 8.290582e-01 2.500000e+00
      vertex   -4.235460e+01 8.649838e-01 0.000000e+00
      vertex   -4.223932e+01 8.290582e-01 0.000000e+00
    endloop
  endfacet
  facet normal -1.802550e-01 -9.836199e-01 -2.620890e-16
    outer loop
      vertex   -4.223932e+01 8.290582e-01 2.500000e+00
      vertex   -4.223932e+01 8.290582e-01 0.000000e+00
      vertex   -4.212054e+01 8.072911e-01 2.500000e+00
    endloop
  endfacet
  facet normal -1.802550e-01 -9.836199e-01 1.310445e-16
    outer loop
      vertex   -4.212054e+01 8.072911e-01 2.500000e+00
      vertex   -4.223932e+01 8.290582e-01 0.000000e+00
      vertex   -4.212054e+01 8.072911e-01 0.000000e+00
    endloop
  endfacet
  facet normal -6.037850e-02 -9.981756e-01 1.329837e-16
    outer loop
      vertex   -4.212054e+01 8.072911e-01 2.500000e+00
      vertex   -4.212054e+01 8.072911e-01 0.000000e+00
      vertex   -4.200000e+01 8.000000e-01 0.000000e+00
    endloop
  endfacet
  facet normal -6.037850e-02 -9.981756e-01 2.216395e-17
    outer loop
      vertex   -4.200000e+01 8.000000e-01 0.000000e+00
      vertex   -4.200000e+01 8.000000e-01 5.000000e+00
      vertex   -4.212054e+01 8.072911e-01 2.500000e+00
    endloop
  endfacet
  facet normal -6.037850e-02 -9.981756e-01 -1.329837e-16
    outer loop
      vertex   -4.212054e+01 8.072911e-01 2.500000e+00
      vertex   -4.200000e+01 8.000000e-01 5.000000e+00
      vertex   -4.212054e+01 8.072911e-01 5.000000e+00
    endloop
  endfacet
  facet normal -1.802550e-01 -9.836199e-01 -1.310445e-16
    outer loop
      vertex   -4.212054e+01 8.072911e-01 2.500000e+00
      vertex   -4.212054e+01 8.072911e-01 5.000000e+00
      vertex   -4.223932e+01 8.290582e-01 2.500000e+00
    endloop
  endfacet
  facet normal -1.802550e-01 -9.836199e-01 2.620890e-16
    outer loop
      vertex   -4.223932e+01 8.290582e-01 2.500000e+00
      vertex   -4.212054e+01 8.072911e-01 5.000000e+00
      vertex   -4.223932e+01 8.290582e-01 5.000000e+00
    endloop
  endfacet
  facet normal -2.975031e-01 -9.547209e-01 2.543887e-16
    outer loop
      vertex   -4.223932e+01 8.290582e-01 2.500000e+00
      vertex   -4.223932e+01 8.290582e-01 5.000000e+00
      vertex   -4.235460e+01 8.649838e-01 2.500000e+00
    endloop
  endfacet
  facet normal -2.975031e-01 -9.547209e-01 2.967869e-16
    outer loop
      vertex   -4.235460e+01 8.649838e-01 2.500000e+00
      vertex   -4.223932e+01 8.290582e-01 5.000000e+00
      vertex   -4.235460e+01 8.649838e-01 5.000000e+00
    endloop
  endfacet
  facet normal -4.104128e-01 -9.118998e-01 2.834754e-16
    outer loop
      vertex   -4.235460e+01 8.649838e-01 2.500000e+00
      vertex   -4.235460e+01 8.649838e-01 5.000000e+00
      vertex   -4.246472e+01 9.145440e-01 2.500000e+00
    endloop
  endfacet
  facet normal -4.104128e-01 -9.118998e-01 4.049649e-17
    outer loop
      vertex   -4.246472e+01 9.145440e-01 2.500000e+00
      vertex   -4.235460e+01 8.649838e-01 5.000000e+00
      vertex   -4.246472e+01 9.145440e-01 5.000000e+00
    endloop
  endfacet
  facet normal -5.173378e-01 -8.557813e-01 3.800432e-17
    outer loop
      vertex   -4.246472e+01 9.145440e-01 2.500000e+00
      vertex   -4.246472e+01 9.145440e-01 5.000000e+00
      vertex   -4.256806e+01 9.770161e-01 2.500000e+00
    endloop
  endfacet
  facet normal -5.173378e-01 -8.557813e-01 1.140130e-16
    outer loop
      vertex   -4.256806e+01 9.770161e-01 2.500000e+00
      vertex   -4.246472e+01 9.145440e-01 5.000000e+00
      vertex   -4.256806e+01 9.770161e-01 5.000000e+00
    endloop
  endfacet
  facet normal -6.167189e-01 -7.871835e-01 1.048739e-16
    outer loop
      vertex   -4.256806e+01 9.770161e-01 2.500000e+00
      vertex   -4.256806e+01 9.770161e-01 5.000000e+00
      vertex   -4.266312e+01 1.051489e+00 2.500000e+00
    endloop
  endfacet
  facet normal -6.167189e-01 -7.871835e-01 -2.097478e-16
    outer loop
      vertex   -4.266312e+01 1.051489e+00 2.500000e+00
      vertex   -4.256806e+01 9.770161e-01 5.000000e+00
      vertex   -4.266312e+01 1.051489e+00 5.000000e+00
    endloop
  endfacet
  facet normal -7.071068e-01 -7.071068e-01 -1.884111e-16
    outer loop
      vertex   -4.266312e+01 1.051489e+00 2.500000e+00
      vertex   -4.266312e+01 1.051489e+00 5.000000e+00
      vertex   -4.274851e+01 1.136877e+00 2.500000e+00
    endloop
  endfacet
  facet normal -7.071068e-01 -7.071068e-01 0.000000e+00
    outer loop
      vertex   -4.274851e+01 1.136877e+00 2.500000e+00
      vertex   -4.266312e+01 1.051489e+00 5.000000e+00
      vertex   -4.274851e+01 1.136877e+00 5.000000e+00
    endloop
  endfacet
  facet normal -7.871835e-01 -6.167189e-01 0.000000e+00
    outer loop
      vertex   -4.274851e+01 1.136877e+00 2.500000e+00
      vertex   -4.274851e+01 1.136877e+00 5.000000e+00
      vertex   -4.282298e+01 1.231935e+00 2.500000e+00
    endloop
  endfacet
  facet normal -7.871835e-01 -6.167189e-01 -4.929808e-16
    outer loop
      vertex   -4.282298e+01 1.231935e+00 2.500000e+00
      vertex   -4.274851e+01 1.136877e+00 5.000000e+00
      vertex   -4.282298e+01 1.231935e+00 5.000000e+00
    endloop
  endfacet
  facet normal -8.557813e-01 -5.173378e-01 -4.135395e-16
    outer loop
      vertex   -4.282298e+01 1.231935e+00 2.500000e+00
      vertex   -4.282298e+01 1.231935e+00 5.000000e+00
      vertex   -4.288546e+01 1.335277e+00 2.500000e+00
    endloop
  endfacet
  facet normal -8.557813e-01 -5.173378e-01 3.675906e-16
    outer loop
      vertex   -4.288546e+01 1.335277e+00 2.500000e+00
      vertex   -4.282298e+01 1.231935e+00 5.000000e+00
      vertex   -4.288546e+01 1.335277e+00 5.000000e+00
    endloop
  endfacet
  facet normal -9.118998e-01 -4.104128e-01 2.916158e-16
    outer loop
      vertex   -4.288546e+01 1.335277e+00 2.500000e+00
      vertex   -4.288546e+01 1.335277e+00 5.000000e+00
      vertex   -4.293502e+01 1.445395e+00 2.500000e+00
    endloop
  endfacet
  facet normal -9.118998e-01 -4.104128e-01 2.187119e-16
    outer loop
      vertex   -4.293502e+01 1.445395e+00 2.500000e+00
      vertex   -4.288546e+01 1.335277e+00 5.000000e+00
      vertex   -4.293502e+01 1.445395e+00 5.000000e+00
    endloop
  endfacet
  facet normal -9.547209e-01 -2.975031e-01 1.585415e-16
    outer loop
      vertex   -4.293502e+01 1.445395e+00 2.500000e+00
      vertex   -4.293502e+01 1.445395e+00 5.000000e+00
      vertex   -4.297094e+01 1.560684e+00 2.500000e+00
    endloop
  endfacet
  facet normal -9.547209e-01 -2.975031e-01 -1.056943e-16
    outer loop
      vertex   -4.297094e+01 1.560684e+00 2.500000e+00
      vertex   -4.293502e+01 1.445395e+00 5.000000e+00
      vertex   -4.297094e+01 1.560684e+00 5.000000e+00
    endloop
  endfacet
  facet normal -9.836199e-01 -1.802550e-01 -6.403945e-17
    outer loop
      vertex   -4.297094e+01 1.560684e+00 2.500000e+00
      vertex   -4.297094e+01 1.560684e+00 5.000000e+00
      vertex   -4.299271e+01 1.679463e+00 2.500000e+00
    endloop
  endfacet
  facet normal -9.836199e-01 -1.802550e-01 0.000000e+00
    outer loop
      vertex   -4.299271e+01 1.679463e+00 2.500000e+00
      vertex   -4.297094e+01 1.560684e+00 5.000000e+00
      vertex   -4.299271e+01 1.679463e+00 5.000000e+00
    endloop
  endfacet
  facet normal -9.981756e-01 -6.037850e-02 0.000000e+00
    outer loop
      vertex   -4.299271e+01 1.679463e+00 2.500000e+00
      vertex   -4.299271e+01 1.679463e+00 5.000000e+00
      vertex   -4.300000e+01 1.800000e+00 5.000000e+00
    endloop
  endfacet
  facet normal -1.000000e+00 0.000000e+00 0.000000e+00
    outer loop
      vertex   -4.300000e+01 2.850000e+00 0.000000e+00
      vertex   -4.300000e+01 1.800000e+00 0.000000e+00
      vertex   -4.300000e+01 2.850000e+00 1.200000e+00
    endloop
  endfacet
  facet normal -1.000000e+00 -0.000000e+00 0.000000e+00
    outer loop
      vertex   -4.300000e+01 2.850000e+00 1.200000e+00
      vertex   -4.300000e+01 1.800000e+00 0.000000e+00
      vertex   -4.300000e+01 1.800000e+00 5.000000e+00
    endloop
  endfacet
  facet normal -1.000000e+00 0.000000e+00 0.000000e+00
    outer loop
      vertex   -4.300000e+01 2.850000e+00 1.200000e+00
      vertex   -4.300000e+01 1.800000e+00 5.000000e+00
      vertex   -4.300000e+01 5.500000e+00 5.000000e+00
    endloop
  endfacet
  facet normal -1.000000e+00 0.000000e+00 0.000000e+00
    outer loop
      vertex   -4.300000e+01 2.850000e+00 1.200000e+00
      vertex   -4.300000e+01 5.500000e+00 5.000000e+00
      vertex   -4.300000e+01 4.450000e+00 1.200000e+00
    endloop
  endfacet
  facet normal -1.000000e+00 0.000000e+00 0.000000e+00
    outer loop
      vertex   -4.300000e+01 4.450000e+00 1.200000e+00
      vertex   -4.300000e+01 5.500000e+00 5.000000e+00
      vertex   -4.300000e+01 5.500000e+00 0.000000e+00
    endloop
  endfacet
  facet normal -1.000000e+00 0.000000e+00 0.000000e+00
    outer loop
      vertex   -4.300000e+01 4.450000e+00 1.200000e+00
      vertex   -4.300000e+01 5.500000e+00 0.000000e+00
      vertex   -4.300000e+01 4.450000e+00 0.000000e+00
    endloop
  endfacet
  facet normal -6.037850e-02 9.981756e-01 0.000000e+00
    outer loop
      vertex   -4.200000e+01 6.500000e+00 5.000000e+00
      vertex   -4.200000e+01 6.500000e+00 0.000000e+00
      vertex   -4.212054e+01 6.492709e+00 2.500000e+00
    endloop
  endfacet
  facet normal -6.037850e-02 9.981756e-01 0.000000e+00
    outer loop
      vertex   -4.212054e+01 6.492709e+00 2.500000e+00
      vertex   -4.200000e+01 6.500000e+00 0.000000e+00
      vertex   -4.212054e+01 6.492709e+00 0.000000e+00
    endloop
  endfacet
  facet normal -1.802550e-01 9.836199e-01 0.000000e+00
    outer loop
      vertex   -4.212054e+01 6.492709e+00 2.500000e+00
      vertex   -4.212054e+01 6.492709e+00 0.000000e+00
      vertex   -4.223932e+01 6.470942e+00 2.500000e+00
    endloop
  endfacet
  facet normal -1.802550e-01 9.836199e-01 0.000000e+00
    outer loop
      vertex   -4.223932e+01 6.470942e+00 2.500000e+00
      vertex   -4.212054e+01 6.492709e+00 0.000000e+00
      vertex   -4.223932e+01 6.470942e+00 0.000000e+00
    endloop
  endfacet
  facet normal -2.975031e-01 9.547209e-01 0.000000e+00
    outer loop
      vertex   -4.223932e+01 6.470942e+00 2.500000e+00
      vertex   -4.223932e+01 6.470942e+00 0.000000e+00
      vertex   -4.235460e+01 6.435016e+00 2.500000e+00
    endloop
  endfacet
  facet normal -2.975031e-01 9.547209e-01 0.000000e+00
    outer loop
      vertex   -4.235460e+01 6.435016e+00 2.500000e+00
      vertex   -4.223932e+01 6.470942e+00 0.000000e+00
      vertex   -4.235460e+01 6.435016e+00 0.000000e+00
    endloop
  endfacet
  facet normal -4.104128e-01 9.118998e-01 0.000000e+00
    outer loop
      vertex   -4.235460e+01 6.435016e+00 2.500000e+00
      vertex   -4.235460e+01 6.435016e+00 0.000000e+00
      vertex   -4.246472e+01 6.385456e+00 2.500000e+00
    endloop
  endfacet
  facet normal -4.104128e-01 9.118998e-01 3.239719e-16
    outer loop
      vertex   -4.246472e+01 6.385456e+00 2.500000e+00
      vertex   -4.235460e+01 6.435016e+00 0.000000e+00
      vertex   -4.246472e+01 6.385456e+00 0.000000e+00
    endloop
  endfacet
  facet normal -5.173378e-01 8.557813e-01 3.040346e-16
    outer loop
      vertex   -4.246472e+01 6.385456e+00 2.500000e+00
      vertex   -4.246472e+01 6.385456e+00 0.000000e+00
      vertex   -4.256806e+01 6.322984e+00 2.500000e+00
    endloop
  endfacet
  facet normal -5.173378e-01 8.557813e-01 3.040346e-16
    outer loop
      vertex   -4.256806e+01 6.322984e+00 2.500000e+00
      vertex   -4.246472e+01 6.385456e+00 0.000000e+00
      vertex   -4.256806e+01 6.322984e+00 0.000000e+00
    endloop
  endfacet
  facet normal -6.167189e-01 7.871835e-01 2.796638e-16
    outer loop
      vertex   -4.256806e+01 6.322984e+00 2.500000e+00
      vertex   -4.256806e+01 6.322984e+00 0.000000e+00
      vertex   -4.266312e+01 6.248511e+00 2.500000e+00
    endloop
  endfacet
  facet normal -6.167189e-01 7.871835e-01 5.593275e-16
    outer loop
      vertex   -4.266312e+01 6.248511e+00 2.500000e+00
      vertex   -4.256806e+01 6.322984e+00 0.000000e+00
      vertex   -4.266312e+01 6.248511e+00 0.000000e+00
    endloop
  endfacet
  facet normal -7.071068e-01 7.071068e-01 5.024296e-16
    outer loop
      vertex   -4.266312e+01 6.248511e+00 2.500000e+00
      vertex   -4.266312e+01 6.248511e+00 0.000000e+00
      vertex   -4.274851e+01 6.163123e+00 2.500000e+00
    endloop
  endfacet
  facet normal -7.071068e-01 7.071068e-01 7.536444e-16
    outer loop
      vertex   -4.274851e+01 6.163123e+00 2.500000e+00
      vertex   -4.266312e+01 6.248511e+00 0.000000e+00
      vertex   -4.274851e+01 6.163123e+00 0.000000e+00
    endloop
  endfacet
  facet normal -7.871835e-01 6.167189e-01 6.573077e-16
    outer loop
      vertex   -4.274851e+01 6.163123e+00 2.500000e+00
      vertex   -4.274851e+01 6.163123e+00 0.000000e+00
      vertex   -4.282298e+01 6.068065e+00 2.500000e+00
    endloop
  endfacet
  facet normal -7.871835e-01 6.167189e-01 0.000000e+00
    outer loop
      vertex   -4.282298e+01 6.068065e+00 2.500000e+00
      vertex   -4.274851e+01 6.163123e+00 0.000000e+00
      vertex   -4.282298e+01 6.068065e+00 0.000000e+00
    endloop
  endfacet
  facet normal -8.557813e-01 5.173378e-01 0.000000e+00
    outer loop
      vertex   -4.282298e+01 6.068065e+00 2.500000e+00
      vertex   -4.282298e+01 6.068065e+00 0.000000e+00
      vertex   -4.288546e+01 5.964723e+00 2.500000e+00
    endloop
  endfacet
  facet normal -8.557813e-01 5.173378e-01 0.000000e+00
    outer loop
      vertex   -4.288546e+01 5.964723e+00 2.500000e+00
      vertex   -4.282298e+01 6.068065e+00 0.000000e+00
      vertex   -4.288546e+01 5.964723e+00 0.000000e+00
    endloop
  endfacet
  facet normal -9.118998e-01 4.104128e-01 0.000000e+00
    outer loop
      vertex   -4.288546e+01 5.964723e+00 2.500000e+00
      vertex   -4.288546e+01 5.964723e+00 0.000000e+00
      vertex   -4.293502e+01 5.854605e+00 2.500000e+00
    endloop
  endfacet
  facet normal -9.118998e-01 4.104128e-01 0.000000e+00
    outer loop
      vertex   -4.293502e+01 5.854605e+00 2.500000e+00
      vertex   -4.288546e+01 5.964723e+00 0.000000e+00
      vertex   -4.293502e+01 5.854605e+00 0.000000e+00
    endloop
  endfacet
  facet normal -9.547209e-01 2.975031e-01 0.000000e+00
    outer loop
      vertex   -4.293502e+01 5.854605e+00 2.500000e+00
      vertex   -4.293502e+01 5.854605e+00 0.000000e+00
      vertex   -4.297094e+01 5.739316e+00 2.500000e+00
    endloop
  endfacet
  facet normal -9.547209e-01 2.975031e-01 0.000000e+00
    outer loop
      vertex   -4.297094e+01 5.739316e+00 2.500000e+00
      vertex   -4.293502e+01 5.854605e+00 0.000000e+00
      vertex   -4.297094e+01 5.739316e+00 0.000000e+00
    endloop
  endfacet
  facet normal -9.836199e-01 1.802550e-01 0.000000e+00
    outer loop
      vertex   -4.297094e+01 5.739316e+00 2.500000e+00
      vertex   -4.297094e+01 5.739316e+00 0.000000e+00
      vertex   -4.299271e+01 5.620537e+00 2.500000e+00
    endloop
  endfacet
  facet normal -9.836199e-01 1.802550e-01 0.000000e+00
    outer loop
      vertex   -4.299271e+01 5.620537e+00 2.500000e+00
      vertex   -4.297094e+01 5.739316e+00 0.000000e+00
      vertex   -4.299271e+01 5.620537e+00 0.000000e+00
    endloop
  endfacet
  facet normal -9.981756e-01 6.037850e-02 0.000000e+00
    outer loop
      vertex   -4.299271e+01 5.620537e+00 2.500000e+00
      vertex   -4.299271e+01 5.620537e+00 0.000000e+00
      vertex   -4.300000e+01 5.500000e+00 0.000000e+00
    endloop
  endfacet
  facet normal -9.981756e-01 6.037850e-02 0.000000e+00
    outer loop
      vertex   -4.300000e+01 5.500000e+00 0.000000e+00
      vertex   -4.300000e+01 5.500000e+00 5.000000e+00
      vertex   -4.299271e+01 5.620537e+00 2.500000e+00
    endloop
  endfacet
  facet normal -9.981756e-01 6.037850e-02 0.000000e+00
    outer loop
      vertex   -4.299271e+01 5.620537e+00 2.500000e+00
      vertex   -4.300000e+01 5.500000e+00 5.000000e+00
      vertex   -4.299271e+01 5.620537e+00 5.000000e+00
    endloop
  endfacet
  facet normal -9.836199e-01 1.802550e-01 0.000000e+00
    outer loop
      vertex   -4.299271e+01 5.620537e+00 2.500000e+00
      vertex   -4.299271e+01 5.620537e+00 5.000000e+00
      vertex   -4.297094e+01 5.739316e+00 2.500000e+00
    endloop
  endfacet
  facet normal -9.836199e-01 1.802550e-01 0.000000e+00
    outer loop
      vertex   -4.297094e+01 5.739316e+00 2.500000e+00
      vertex   -4.299271e+01 5.620537e+00 5.000000e+00
      vertex   -4.297094e+01 5.739316e+00 5.000000e+00
    endloop
  endfacet
  facet normal -9.547209e-01 2.975031e-01 0.000000e+00
    outer loop
      vertex   -4.297094e+01 5.739316e+00 2.500000e+00
      vertex   -4.297094e+01 5.739316e+00 5.000000e+00
      vertex   -4.293502e+01 5.854605e+00 2.500000e+00
    endloop
  endfacet
  facet normal -9.547209e-01 2.975031e-01 0.000000e+00
    outer loop
      vertex   -4.293502e+01 5.854605e+00 2.500000e+00
      vertex   -4.297094e+01 5.739316e+00 5.000000e+00
      vertex   -4.293502e+01 5.854605e+00 5.000000e+00
    endloop
  endfacet
  facet normal -9.118998e-01 4.104128e-01 0.000000e+00
    outer loop
      vertex   -4.293502e+01 5.854605e+00 2.500000e+00
      vertex   -4.293502e+01 5.854605e+00 5.000000e+00
      vertex   -4.288546e+01 5.964723e+00 2.500000e+00
    endloop
  endfacet
  facet normal -9.118998e-01 4.104128e-01 0.000000e+00
    outer loop
      vertex   -4.288546e+01 5.964723e+00 2.500000e+00
      vertex   -4.293502e+01 5.854605e+00 5.000000e+00
      vertex   -4.288546e+01 5.964723e+00 5.000000e+00
    endloop
  endfacet
  facet normal -8.557813e-01 5.173378e-01 0.000000e+00
    outer loop
      vertex   -4.288546e+01 5.964723e+00 2.500000e+00
      vertex   -4.288546e+01 5.964723e+00 5.000000e+00
      vertex   -4.282298e+01 6.068065e+00 2.500000e+00
    endloop
  endfacet
  facet normal -8.557813e-01 5.173378e-01 0.000000e+00
    outer loop
      vertex   -4.282298e+01 6.068065e+00 2.500000e+00
      vertex   -4.288546e+01 5.964723e+00 5.000000e+00
      vertex   -4.282298e+01 6.068065e+00 5.000000e+00
    endloop
  endfacet
  facet normal -7.871835e-01 6.167189e-01 0.000000e+00
    outer loop
      vertex   -4.282298e+01 6.068065e+00 2.500000e+00
      vertex   -4.282298e+01 6.068065e+00 5.000000e+00
      vertex   -4.274851e+01 6.163123e+00 2.500000e+00
    endloop
  endfacet
  facet normal -7.871835e-01 6.167189e-01 -6.573077e-16
    outer loop
      vertex   -4.274851e+01 6.163123e+00 2.500000e+00
      vertex   -4.282298e+01 6.068065e+00 5.000000e+00
      vertex   -4.274851e+01 6.163123e+00 5.000000e+00
    endloop
  endfacet
  facet normal -7.071068e-01 7.071068e-01 -7.536444e-16
    outer loop
      vertex   -4.274851e+01 6.163123e+00 2.500000e+00
      vertex   -4.274851e+01 6.163123e+00 5.000000e+00
      vertex   -4.266312e+01 6.248511e+00 2.500000e+00
    endloop
  endfacet
  facet normal -7.071068e-01 7.071068e-01 -5.024296e-16
    outer loop
      vertex   -4.266312e+01 6.248511e+00 2.500000e+00
      vertex   -4.274851e+01 6.163123e+00 5.000000e+00
      vertex   -4.266312e+01 6.248511e+00 5.000000e+00
    endloop
  endfacet
  facet normal -6.167189e-01 7.871835e-01 -5.593275e-16
    outer loop
      vertex   -4.266312e+01 6.248511e+00 2.500000e+00
      vertex   -4.266312e+01 6.248511e+00 5.000000e+00
      vertex   -4.256806e+01 6.322984e+00 2.500000e+00
    endloop
  endfacet
  facet normal -6.167189e-01 7.871835e-01 -2.796638e-16
    outer loop
      vertex   -4.256806e+01 6.322984e+00 2.500000e+00
      vertex   -4.266312e+01 6.248511e+00 5.000000e+00
      vertex   -4.256806e+01 6.322984e+00 5.000000e+00
    endloop
  endfacet
  facet normal -5.173378e-01 8.557813e-01 -3.040346e-16
    outer loop
      vertex   -4.256806e+01 6.322984e+00 2.500000e+00
      vertex   -4.256806e+01 6.322984e+00 5.000000e+00
      vertex   -4.246472e+01 6.385456e+00 2.500000e+00
    endloop
  endfacet
  facet normal -5.173378e-01 8.557813e-01 -3.040346e-16
    outer loop
      vertex   -4.246472e+01 6.385456e+00 2.500000e+00
      vertex   -4.256806e+01 6.322984e+00 5.000000e+00
      vertex   -4.246472e+01 6.385456e+00 5.000000e+00
    endloop
  endfacet
  facet normal -4.104128e-01 9.118998e-01 -3.239719e-16
    outer loop
      vertex   -4.246472e+01 6.385456e+00 2.500000e+00
      vertex   -4.246472e+01 6.385456e+00 5.000000e+00
      vertex   -4.235460e+01 6.435016e+00 2.500000e+00
    endloop
  endfacet
  facet normal -4.104128e-01 9.118998e-01 0.000000e+00
    outer loop
      vertex   -4.235460e+01 6.435016e+00 2.500000e+00
      vertex   -4.246472e+01 6.385456e+00 5.000000e+00
      vertex   -4.235460e+01 6.435016e+00 5.000000e+00
    endloop
  endfacet
  facet normal -2.975031e-01 9.547209e-01 0.000000e+00
    outer loop
      vertex   -4.235460e+01 6.435016e+00 2.500000e+00
      vertex   -4.235460e+01 6.435016e+00 5.000000e+00
      vertex   -4.223932e+01 6.470942e+00 2.500000e+00
    endloop
  endfacet
  facet normal -2.975031e-01 9.547209e-01 0.000000e+00
    outer loop
      vertex   -4.223932e+01 6.470942e+00 2.500000e+00
      vertex   -4.235460e+01 6.435016e+00 5.000000e+00
      vertex   -4.223932e+01 6.470942e+00 5.000000e+00
    endloop
  endfacet
  facet normal -1.802550e-01 9.836199e-01 0.000000e+00
    outer loop
      vertex   -4.223932e+01 6.470942e+00 2.500000e+00
      vertex   -4.223932e+01 6.470942e+00 5.000000e+00
      vertex   -4.212054e+01 6.492709e+00 2.500000e+00
    endloop
  endfacet
  facet normal -1.802550e-01 9.836199e-01 0.000000e+00
    outer loop
      vertex   -4.212054e+01 6.492709e+00 2.500000e+00
      vertex   -4.223932e+01 6.470942e+00 5.000000e+00
      vertex   -4.212054e+01 6.492709e+00 5.000000e+00
    endloop
  endfacet
  facet normal -6.037850e-02 9.981756e-01 0.000000e+00
    outer loop
      vertex   -4.212054e+01 6.492709e+00 2.500000e+00
      vertex   -4.212054e+01 6.492709e+00 5.000000e+00
      vertex   -4.200000e+01 6.500000e+00 5.000000e+00
    endloop
  endfacet
  facet normal -0.000000e+00 0.000000e+00 1.000000e+00
    outer loop
      vertex   -4.212054e+01 6.492709e+00 5.000000e+00
      vertex   -4.223932e+01 6.470942e+00 5.000000e+00
      vertex   -4.200000e+01 6.500000e+00 5.000000e+00
    endloop
  endfacet
  facet normal 0.000000e+00 0.000000e+00 1.000000e+00
    outer loop
      vertex   -4.200000e+01 6.500000e+00 5.000000e+00
      vertex   -4.223932e+01 6.470942e+00 5.000000e+00
      vertex   -4.235460e+01 6.435016e+00 5.000000e+00
    endloop
  endfacet
  facet normal 0.000000e+00 0.000000e+00 1.000000e+00
    outer loop
      vertex   -4.200000e+01 6.500000e+00 5.000000e+00
      vertex   -4.235460e+01 6.435016e+00 5.000000e+00
      vertex   -4.246472e+01 6.385456e+00 5.000000e+00
    endloop
  endfacet
  facet normal -0.000000e+00 0.000000e+00 1.000000e+00
    outer loop
      vertex   -4.246472e+01 6.385456e+00 5.000000e+00
      vertex   -4.256806e+01 6.322984e+00 5.000000e+00
      vertex   -4.200000e+01 6.500000e+00 5.000000e+00
    endloop
  endfacet
  facet normal 0.000000e+00 0.000000e+00 1.000000e+00
    outer loop
      vertex   -4.200000e+01 6.500000e+00 5.000000e+00
      vertex   -4.256806e+01 6.322984e+00 5.000000e+00
      vertex   -4.266312e+01 6.248511e+00 5.000000e+00
    endloop
  endfacet
  facet normal 0.000000e+00 0.000000e+00 1.000000e+00
    outer loop
      vertex   -4.200000e+01 6.500000e+00 5.000000e+00
      vertex   -4.266312e+01 6.248511e+00 5.000000e+00
      vertex   -4.274851e+01 6.163123e+00 5.000000e+00
    endloop
  endfacet
  facet normal -0.000000e+00 0.000000e+00 1.000000e+00
    outer loop
      vertex   -4.274851e+01 6.163123e+00 5.000000e+00
      vertex   -4.282298e+01 6.068065e+00 5.000000e+00
      vertex   -4.200000e+01 6.500000e+00 5.000000e+00
    endloop
  endfacet
  facet normal 0.000000e+00 0.000000e+00 1.000000e+00
    outer loop
      vertex   -4.200000e+01 6.500000e+00 5.000000e+00
      vertex   -4.282298e+01 6.068065e+00 5.000000e+00
      vertex   -4.288546e+01 5.964723e+00 5.000000e+00
    endloop
  endfacet
  facet normal 0.000000e+00 0.000000e+00 1.000000e+00
    outer loop
      vertex   -4.200000e+01 6.500000e+00 5.000000e+00
      vertex   -4.288546e+01 5.964723e+00 5.000000e+00
      vertex   -4.293502e+01 5.854605e+00 5.000000e+00
    endloop
  endfacet
  facet normal -0.000000e+00 0.000000e+00 1.000000e+00
    outer loop
      vertex   -4.293502e+01 5.854605e+00 5.000000e+00
      vertex   -4.297094e+01 5.739316e+00 5.000000e+00
      vertex   -4.200000e+01 6.500000e+00 5.000000e+00
    endloop
  endfacet
  facet normal 0.000000e+00 0.000000e+00 1.000000e+00
    outer loop
      vertex   -4.200000e+01 6.500000e+00 5.000000e+00
      vertex   -4.297094e+01 5.739316e+00 5.000000e+00
      vertex   -4.299271e+01 5.620537e+00 5.000000e+00
    endloop
  endfacet
  facet normal 0.000000e+00 0.000000e+00 1.000000e+00
    outer loop
      vertex   -4.200000e+01 6.500000e+00 5.000000e+00
      vertex   -4.299271e+01 5.620537e+00 5.000000e+00
      vertex   -4.300000e+01 5.500000e+00 5.000000e+00
    endloop
  endfacet
  facet normal 0.000000e+00 0.000000e+00 1.000000e+00
    outer loop
      vertex   -4.300000e+01 1.800000e+00 5.000000e+00
      vertex   -3.547500e+01 1.800000e+00 5.000000e+00
      vertex   -4.300000e+01 5.500000e+00 5.000000e+00
    endloop
  endfacet
  facet normal -0.000000e+00 0.000000e+00 1.000000e+00
    outer loop
      vertex   -4.300000e+01 5.500000e+00 5.000000e+00
      vertex   -3.547500e+01 1.800000e+00 5.000000e+00
      vertex   -3.547500e+01 5.500000e+00 5.000000e+00
    endloop
  endfacet
  facet normal 0.000000e+00 0.000000e+00 1.000000e+00
    outer loop
      vertex   -4.300000e+01 5.500000e+00 5.000000e+00
      vertex   -3.547500e+01 5.500000e+00 5.000000e+00
      vertex   -4.200000e+01 6.500000e+00 5.000000e+00
    endloop
  endfacet
  facet normal -0.000000e+00 0.000000e+00 1.000000e+00
    outer loop
      vertex   -4.200000e+01 6.500000e+00 5.000000e+00
      vertex   -3.547500e+01 5.500000e+00 5.000000e+00
      vertex   -3.647500e+01 6.500000e+00 5.000000e+00
    endloop
  endfacet
  facet normal 0.000000e+00 0.000000e+00 1.000000e+00
    outer loop
      vertex   -3.647500e+01 6.500000e+00 5.000000e+00
      vertex   -3.547500e+01 5.500000e+00 5.000000e+00
      vertex   -3.548229e+01 5.620537e+00 5.000000e+00
    endloop
  endfacet
  facet normal 0.000000e+00 0.000000e+00 1.000000e+00
    outer loop
      vertex   -3.647500e+01 6.500000e+00 5.000000e+00
      vertex   -3.548229e+01 5.620537e+00 5.000000e+00
      vertex   -3.550406e+01 5.739316e+00 5.000000e+00
    endloop
  endfacet
  facet normal -0.000000e+00 -0.000000e+00 1.000000e+00
    outer loop
      vertex   -4.299271e+01 1.679463e+00 5.000000e+00
      vertex   -4.212054e+01 8.072911e-01 5.000000e+00
      vertex   -4.300000e+01 1.800000e+00 5.000000e+00
    endloop
  endfacet
  facet normal 0.000000e+00 0.000000e+00 1.000000e+00
    outer loop
      vertex   -4.300000e+01 1.800000e+00 5.000000e+00
      vertex   -4.212054e+01 8.072911e-01 5.000000e+00
      vertex   -3.635446e+01 8.072911e-01 5.000000e+00
    endloop
  endfacet
  facet normal -0.000000e+00 0.000000e+00 1.000000e+00
    outer loop
      vertex   -4.300000e+01 1.800000e+00 5.000000e+00
      vertex   -3.635446e+01 8.072911e-01 5.000000e+00
      vertex   -3.547500e+01 1.800000e+00 5.000000e+00
    endloop
  endfacet
  facet normal 0.000000e+00 0.000000e+00 1.000000e+00
    outer loop
      vertex   -3.547500e+01 1.800000e+00 5.000000e+00
      vertex   -3.635446e+01 8.072911e-01 5.000000e+00
      vertex   -3.548229e+01 1.679463e+00 5.000000e+00
    endloop
  endfacet
  facet normal 0.000000e+00 0.000000e+00 1.000000e+00
    outer loop
      vertex   -3.548229e+01 1.679463e+00 5.000000e+00
      vertex   -3.635446e+01 8.072911e-01 5.000000e+00
      vertex   -3.550406e+01 1.560684e+00 5.000000e+00
    endloop
  endfacet
  facet normal 0.000000e+00 0.000000e+00 1.000000e+00
    outer loop
      vertex   -3.550406e+01 1.560684e+00 5.000000e+00
      vertex   -3.635446e+01 8.072911e-01 5.000000e+00
      vertex   -3.553998e+01 1.445395e+00 5.000000e+00
    endloop
  endfacet
  facet normal 0.000000e+00 0.000000e+00 1.000000e+00
    outer loop
      vertex   -3.553998e+01 1.445395e+00 5.000000e+00
      vertex   -3.635446e+01 8.072911e-01 5.000000e+00
      vertex   -3.558954e+01 1.335277e+00 5.000000e+00
    endloop
  endfacet
  facet normal 0.000000e+00 0.000000e+00 1.000000e+00
    outer loop
      vertex   -3.558954e+01 1.335277e+00 5.000000e+00
      vertex   -3.635446e+01 8.072911e-01 5.000000e+00
      vertex   -3.565202e+01 1.231935e+00 5.000000e+00
    endloop
  endfacet
  facet normal 0.000000e+00 0.000000e+00 1.000000e+00
    outer loop
      vertex   -3.565202e+01 1.231935e+00 5.000000e+00
      vertex   -3.635446e+01 8.072911e-01 5.000000e+00
      vertex   -3.572649e+01 1.136877e+00 5.000000e+00
    endloop
  endfacet
  facet normal 0.000000e+00 0.000000e+00 1.000000e+00
    outer loop
      vertex   -3.572649e+01 1.136877e+00 5.000000e+00
      vertex   -3.635446e+01 8.072911e-01 5.000000e+00
      vertex   -3.581188e+01 1.051489e+00 5.000000e+00
    endloop
  endfacet
  facet normal 0.000000e+00 0.000000e+00 1.000000e+00
    outer loop
      vertex   -3.581188e+01 1.051489e+00 5.000000e+00
      vertex   -3.635446e+01 8.072911e-01 5.000000e+00
      vertex   -3.590694e+01 9.770161e-01 5.000000e+00
    endloop
  endfacet
  facet normal 0.000000e+00 0.000000e+00 1.000000e+00
    outer loop
      vertex   -3.590694e+01 9.770161e-01 5.000000e+00
      vertex   -3.635446e+01 8.072911e-01 5.000000e+00
      vertex   -3.601028e+01 9.145440e-01 5.000000e+00
    endloop
  endfacet
  facet normal 0.000000e+00 0.000000e+00 1.000000e+00
    outer loop
      vertex   -3.601028e+01 9.145440e-01 5.000000e+00
      vertex   -3.635446e+01 8.072911e-01 5.000000e+00
      vertex   -3.612040e+01 8.649838e-01 5.000000e+00
    endloop
  endfacet
  facet normal 0.000000e+00 0.000000e+00 1.000000e+00
    outer loop
      vertex   -3.612040e+01 8.649838e-01 5.000000e+00
      vertex   -3.635446e+01 8.072911e-01 5.000000e+00
      vertex   -3.623568e+01 8.290582e-01 5.000000e+00
    endloop
  endfacet
  facet normal 0.000000e+00 0.000000e+00 1.000000e+00
    outer loop
      vertex   -4.299271e+01 1.679463e+00 5.000000e+00
      vertex   -4.297094e+01 1.560684e+00 5.000000e+00
      vertex   -4.212054e+01 8.072911e-01 5.000000e+00
    endloop
  endfacet
  facet normal 0.000000e+00 0.000000e+00 1.000000e+00
    outer loop
      vertex   -4.212054e+01 8.072911e-01 5.000000e+00
      vertex   -4.297094e+01 1.560684e+00 5.000000e+00
      vertex   -4.293502e+01 1.445395e+00 5.000000e+00
    endloop
  endfacet
  facet normal 0.000000e+00 0.000000e+00 1.000000e+00
    outer loop
      vertex   -4.212054e+01 8.072911e-01 5.000000e+00
      vertex   -4.293502e+01 1.445395e+00 5.000000e+00
      vertex   -4.288546e+01 1.335277e+00 5.000000e+00
    endloop
  endfacet
  facet normal 0.000000e+00 0.000000e+00 1.000000e+00
    outer loop
      vertex   -4.288546e+01 1.335277e+00 5.000000e+00
      vertex   -4.282298e+01 1.231935e+00 5.000000e+00
      vertex   -4.212054e+01 8.072911e-01 5.000000e+00
    endloop
  endfacet
  facet normal 0.000000e+00 0.000000e+00 1.000000e+00
    outer loop
      vertex   -4.212054e+01 8.072911e-01 5.000000e+00
      vertex   -4.282298e+01 1.231935e+00 5.000000e+00
      vertex   -4.274851e+01 1.136877e+00 5.000000e+00
    endloop
  endfacet
  facet normal 0.000000e+00 0.000000e+00 1.000000e+00
    outer loop
      vertex   -4.212054e+01 8.072911e-01 5.000000e+00
      vertex   -4.274851e+01 1.136877e+00 5.000000e+00
      vertex   -4.266312e+01 1.051489e+00 5.000000e+00
    endloop
  endfacet
  facet normal 0.000000e+00 0.000000e+00 1.000000e+00
    outer loop
      vertex   -4.266312e+01 1.051489e+00 5.000000e+00
      vertex   -4.256806e+01 9.770161e-01 5.000000e+00
      vertex   -4.212054e+01 8.072911e-01 5.000000e+00
    endloop
  endfacet
  facet normal 0.000000e+00 0.000000e+00 1.000000e+00
    outer loop
      vertex   -4.212054e+01 8.072911e-01 5.000000e+00
      vertex   -4.256806e+01 9.770161e-01 5.000000e+00
      vertex   -4.246472e+01 9.145440e-01 5.000000e+00
    endloop
  endfacet
  facet normal 0.000000e+00 0.000000e+00 1.000000e+00
    outer loop
      vertex   -4.212054e+01 8.072911e-01 5.000000e+00
      vertex   -4.246472e+01 9.145440e-01 5.000000e+00
      vertex   -4.235460e+01 8.649838e-01 5.000000e+00
    endloop
  endfacet
  facet normal 0.000000e+00 0.000000e+00 1.000000e+00
    outer loop
      vertex   -4.235460e+01 8.649838e-01 5.000000e+00
      vertex   -4.223932e+01 8.290582e-01 5.000000e+00
      vertex   -4.212054e+01 8.072911e-01 5.000000e+00
    endloop
  endfacet
  facet normal 0.000000e+00 -0.000000e+00 1.000000e+00
    outer loop
      vertex   -4.200000e+01 8.000000e-01 5.000000e+00
      vertex   -3.647500e+01 8.000000e-01 5.000000e+00
      vertex   -4.212054e+01 8.072911e-01 5.000000e+00
    endloop
  endfacet
  facet normal -0.000000e+00 0.000000e+00 1.000000e+00
    outer loop
      vertex   -4.212054e+01 8.072911e-01 5.000000e+00
      vertex   -3.647500e+01 8.000000e-01 5.000000e+00
      vertex   -3.635446e+01 8.072911e-01 5.000000e+00
    endloop
  endfacet
  facet normal 0.000000e+00 0.000000e+00 1.000000e+00
    outer loop
      vertex   -3.550406e+01 5.739316e+00 5.000000e+00
      vertex   -3.553998e+01 5.854605e+00 5.000000e+00
      vertex   -3.647500e+01 6.500000e+00 5.000000e+00
    endloop
  endfacet
  facet normal 0.000000e+00 0.000000e+00 1.000000e+00
    outer loop
      vertex   -3.647500e+01 6.500000e+00 5.000000e+00
      vertex   -3.553998e+01 5.854605e+00 5.000000e+00
      vertex   -3.558954e+01 5.964723e+00 5.000000e+00
    endloop
  endfacet
  facet normal 0.000000e+00 0.000000e+00 1.000000e+00
    outer loop
      vertex   -3.647500e+01 6.500000e+00 5.000000e+00
      vertex   -3.558954e+01 5.964723e+00 5.000000e+00
      vertex   -3.565202e+01 6.068065e+00 5.000000e+00
    endloop
  endfacet
  facet normal 0.000000e+00 0.000000e+00 1.000000e+00
    outer loop
      vertex   -3.565202e+01 6.068065e+00 5.000000e+00
      vertex   -3.572649e+01 6.163123e+00 5.000000e+00
      vertex   -3.647500e+01 6.500000e+00 5.000000e+00
    endloop
  endfacet
  facet normal 0.000000e+00 0.000000e+00 1.000000e+00
    outer loop
      vertex   -3.647500e+01 6.500000e+00 5.000000e+00
      vertex   -3.572649e+01 6.163123e+00 5.000000e+00
      vertex   -3.581188e+01 6.248511e+00 5.000000e+00
    endloop
  endfacet
  facet normal 0.000000e+00 0.000000e+00 1.000000e+00
    outer loop
      vertex   -3.647500e+01 6.500000e+00 5.000000e+00
      vertex   -3.581188e+01 6.248511e+00 5.000000e+00
      vertex   -3.590694e+01 6.322984e+00 5.000000e+00
    endloop
  endfacet
  facet normal 0.000000e+00 0.000000e+00 1.000000e+00
    outer loop
      vertex   -3.590694e+01 6.322984e+00 5.000000e+00
      vertex   -3.601028e+01 6.385456e+00 5.000000e+00
      vertex   -3.647500e+01 6.500000e+00 5.000000e+00
    endloop
  endfacet
  facet normal 0.000000e+00 0.000000e+00 1.000000e+00
    outer loop
      vertex   -3.647500e+01 6.500000e+00 5.000000e+00
      vertex   -3.601028e+01 6.385456e+00 5.000000e+00
      vertex   -3.612040e+01 6.435016e+00 5.000000e+00
    endloop
  endfacet
  facet normal 0.000000e+00 0.000000e+00 1.000000e+00
    outer loop
      vertex   -3.647500e+01 6.500000e+00 5.000000e+00
      vertex   -3.612040e+01 6.435016e+00 5.000000e+00
      vertex   -3.623568e+01 6.470942e+00 5.000000e+00
    endloop
  endfacet
  facet normal 0.000000e+00 0.000000e+00 1.000000e+00
    outer loop
      vertex   -3.623568e+01 6.470942e+00 5.000000e+00
      vertex   -3.635446e+01 6.492709e+00 5.000000e+00
      vertex   -3.647500e+01 6.500000e+00 5.000000e+00
    endloop
  endfacet
  facet normal 0.000000e+00 -0.000000e+00 -1.000000e+00
    outer loop
      vertex   -4.299271e+01 5.620537e+00 0.000000e+00
      vertex   -4.200000e+01 6.500000e+00 0.000000e+00
      vertex   -4.300000e+01 5.500000e+00 0.000000e+00
    endloop
  endfacet
  facet normal 0.000000e+00 0.000000e+00 -1.000000e+00
    outer loop
      vertex   -4.300000e+01 5.500000e+00 0.000000e+00
      vertex   -4.200000e+01 6.500000e+00 0.000000e+00
      vertex   -3.647500e+01 6.500000e+00 0.000000e+00
    endloop
  endfacet
  facet normal 0.000000e+00 0.000000e+00 -1.000000e+00
    outer loop
      vertex   -4.300000e+01 5.500000e+00 0.000000e+00
      vertex   -3.647500e+01 6.500000e+00 0.000000e+00
      vertex   -4.300000e+01 4.450000e+00 0.000000e+00
    endloop
  endfacet
  facet normal 0.000000e+00 0.000000e+00 -1.000000e+00
    outer loop
      vertex   -4.300000e+01 4.450000e+00 0.000000e+00
      vertex   -3.647500e+01 6.500000e+00 0.000000e+00
      vertex   -3.547500e+01 5.500000e+00 0.000000e+00
    endloop
  endfacet
  facet normal 0.000000e+00 0.000000e+00 -1.000000e+00
    outer loop
      vertex   -4.300000e+01 4.450000e+00 0.000000e+00
      vertex   -3.547500e+01 5.500000e+00 0.000000e+00
      vertex   -3.547500e+01 4.450000e+00 0.000000e+00
    endloop
  endfacet
  facet normal 0.000000e+00 0.000000e+00 -1.000000e+00
    outer loop
      vertex   -4.299271e+01 5.620537e+00 0.000000e+00
      vertex   -4.297094e+01 5.739316e+00 0.000000e+00
      vertex   -4.200000e+01 6.500000e+00 0.000000e+00
    endloop
  endfacet
  facet normal 0.000000e+00 0.000000e+00 -1.000000e+00
    outer loop
      vertex   -4.200000e+01 6.500000e+00 0.000000e+00
      vertex   -4.297094e+01 5.739316e+00 0.000000e+00
      vertex   -4.293502e+01 5.854605e+00 0.000000e+00
    endloop
  endfacet
  facet normal 0.000000e+00 0.000000e+00 -1.000000e+00
    outer loop
      vertex   -4.200000e+01 6.500000e+00 0.000000e+00
      vertex   -4.293502e+01 5.854605e+00 0.000000e+00
      vertex   -4.288546e+01 5.964723e+00 0.000000e+00
    endloop
  endfacet
  facet normal 0.000000e+00 0.000000e+00 -1.000000e+00
    outer loop
      vertex   -4.288546e+01 5.964723e+00 0.000000e+00
      vertex   -4.282298e+01 6.068065e+00 0.000000e+00
      vertex   -4.200000e+01 6.500000e+00 0.000000e+00
    endloop
  endfacet
  facet normal 0.000000e+00 0.000000e+00 -1.000000e+00
    outer loop
      vertex   -4.200000e+01 6.500000e+00 0.000000e+00
      vertex   -4.282298e+01 6.068065e+00 0.000000e+00
      vertex   -4.274851e+01 6.163123e+00 0.000000e+00
    endloop
  endfacet
  facet normal 0.000000e+00 0.000000e+00 -1.000000e+00
    outer loop
      vertex   -4.200000e+01 6.500000e+00 0.000000e+00
      vertex   -4.274851e+01 6.163123e+00 0.000000e+00
      vertex   -4.266312e+01 6.248511e+00 0.000000e+00
    endloop
  endfacet
  facet normal 0.000000e+00 0.000000e+00 -1.000000e+00
    outer loop
      vertex   -4.266312e+01 6.248511e+00 0.000000e+00
      vertex   -4.256806e+01 6.322984e+00 0.000000e+00
      vertex   -4.200000e+01 6.500000e+00 0.000000e+00
    endloop
  endfacet
  facet normal 0.000000e+00 0.000000e+00 -1.000000e+00
    outer loop
      vertex   -4.200000e+01 6.500000e+00 0.000000e+00
      vertex   -4.256806e+01 6.322984e+00 0.000000e+00
      vertex   -4.246472e+01 6.385456e+00 0.000000e+00
    endloop
  endfacet
  facet normal 0.000000e+00 0.000000e+00 -1.000000e+00
    outer loop
      vertex   -4.200000e+01 6.500000e+00 0.000000e+00
      vertex   -4.246472e+01 6.385456e+00 0.000000e+00
      vertex   -4.235460e+01 6.435016e+00 0.000000e+00
    endloop
  endfacet
  facet normal 0.000000e+00 0.000000e+00 -1.000000e+00
    outer loop
      vertex   -4.235460e+01 6.435016e+00 0.000000e+00
      vertex   -4.223932e+01 6.470942e+00 0.000000e+00
      vertex   -4.200000e+01 6.500000e+00 0.000000e+00
    endloop
  endfacet
  facet normal 0.000000e+00 0.000000e+00 -1.000000e+00
    outer loop
      vertex   -4.200000e+01 6.500000e+00 0.000000e+00
      vertex   -4.223932e+01 6.470942e+00 0.000000e+00
      vertex   -4.212054e+01 6.492709e+00 0.000000e+00
    endloop
  endfacet
  facet normal -0.000000e+00 -0.000000e+00 -1.000000e+00
    outer loop
      vertex   -3.635446e+01 6.492709e+00 0.000000e+00
      vertex   -3.623568e+01 6.470942e+00 0.000000e+00
      vertex   -3.647500e+01 6.500000e+00 0.000000e+00
    endloop
  endfacet
  facet normal 0.000000e+00 0.000000e+00 -1.000000e+00
    outer loop
      vertex   -3.647500e+01 6.500000e+00 0.000000e+00
      vertex   -3.623568e+01 6.470942e+00 0.000000e+00
      vertex   -3.612040e+01 6.435016e+00 0.000000e+00
    endloop
  endfacet
  facet normal 0.000000e+00 0.000000e+00 -1.000000e+00
    outer loop
      vertex   -3.647500e+01 6.500000e+00 0.000000e+00
      vertex   -3.612040e+01 6.435016e+00 0.000000e+00
      vertex   -3.601028e+01 6.385456e+00 0.000000e+00
    endloop
  endfacet
  facet normal -0.000000e+00 -0.000000e+00 -1.000000e+00
    outer loop
      vertex   -3.601028e+01 6.385456e+00 0.000000e+00
      vertex   -3.590694e+01 6.322984e+00 0.000000e+00
      vertex   -3.647500e+01 6.500000e+00 0.000000e+00
    endloop
  endfacet
  facet normal 0.000000e+00 0.000000e+00 -1.000000e+00
    outer loop
      vertex   -3.647500e+01 6.500000e+00 0.000000e+00
      vertex   -3.590694e+01 6.322984e+00 0.000000e+00
      vertex   -3.581188e+01 6.248511e+00 0.000000e+00
    endloop
  endfacet
  facet normal 0.000000e+00 0.000000e+00 -1.000000e+00
    outer loop
      vertex   -3.647500e+01 6.500000e+00 0.000000e+00
      vertex   -3.581188e+01 6.248511e+00 0.000000e+00
      vertex   -3.572649e+01 6.163123e+00 0.000000e+00
    endloop
  endfacet
  facet normal -0.000000e+00 -0.000000e+00 -1.000000e+00
    outer loop
      vertex   -3.572649e+01 6.163123e+00 0.000000e+00
      vertex   -3.565202e+01 6.068065e+00 0.000000e+00
      vertex   -3.647500e+01 6.500000e+00 0.000000e+00
    endloop
  endfacet
  facet normal 0.000000e+00 0.000000e+00 -1.000000e+00
    outer loop
      vertex   -3.647500e+01 6.500000e+00 0.000000e+00
      vertex   -3.565202e+01 6.068065e+00 0.000000e+00
      vertex   -3.558954e+01 5.964723e+00 0.000000e+00
    endloop
  endfacet
  facet normal 0.000000e+00 0.000000e+00 -1.000000e+00
    outer loop
      vertex   -3.647500e+01 6.500000e+00 0.000000e+00
      vertex   -3.558954e+01 5.964723e+00 0.000000e+00
      vertex   -3.553998e+01 5.854605e+00 0.000000e+00
    endloop
  endfacet
  facet normal -0.000000e+00 -0.000000e+00 -1.000000e+00
    outer loop
      vertex   -3.553998e+01 5.854605e+00 0.000000e+00
      vertex   -3.550406e+01 5.739316e+00 0.000000e+00
      vertex   -3.647500e+01 6.500000e+00 0.000000e+00
    endloop
  endfacet
  facet normal 0.000000e+00 0.000000e+00 -1.000000e+00
    outer loop
      vertex   -3.647500e+01 6.500000e+00 0.000000e+00
      vertex   -3.550406e+01 5.739316e+00 0.000000e+00
      vertex   -3.548229e+01 5.620537e+00 0.000000e+00
    endloop
  endfacet
  facet normal 0.000000e+00 0.000000e+00 -1.000000e+00
    outer loop
      vertex   -3.647500e+01 6.500000e+00 0.000000e+00
      vertex   -3.548229e+01 5.620537e+00 0.000000e+00
      vertex   -3.547500e+01 5.500000e+00 0.000000e+00
    endloop
  endfacet
  facet normal -0.000000e+00 0.000000e+00 -1.000000e+00
    outer loop
      vertex   -3.487500e+01 4.450000e+00 0.000000e+00
      vertex   -3.547500e+01 2.850000e+00 0.000000e+00
      vertex   -3.547500e+01 4.450000e+00 0.000000e+00
    endloop
  endfacet
  facet normal 0.000000e+00 -0.000000e+00 -1.000000e+00
    outer loop
      vertex   -3.547500e+01 4.450000e+00 0.000000e+00
      vertex   -3.547500e+01 2.850000e+00 0.000000e+00
      vertex   -4.300000e+01 2.850000e+00 0.000000e+00
    endloop
  endfacet
  facet normal -0.000000e+00 0.000000e+00 -1.000000e+00
    outer loop
      vertex   -3.547500e+01 4.450000e+00 0.000000e+00
      vertex   -4.300000e+01 2.850000e+00 0.000000e+00
      vertex   -4.300000e+01 4.450000e+00 0.000000e+00
    endloop
  endfacet
  facet normal 0.000000e+00 -0.000000e+00 -1.000000e+00
    outer loop
      vertex   -4.300000e+01 4.450000e+00 0.000000e+00
      vertex   -4.300000e+01 2.850000e+00 0.000000e+00
      vertex   -4.360000e+01 2.850000e+00 0.000000e+00
    endloop
  endfacet
  facet normal -0.000000e+00 0.000000e+00 -1.000000e+00
    outer loop
      vertex   -4.300000e+01 4.450000e+00 0.000000e+00
      vertex   -4.360000e+01 2.850000e+00 0.000000e+00
      vertex   -4.360000e+01 4.450000e+00 0.000000e+00
    endloop
  endfacet
  facet normal 0.000000e+00 -0.000000e+00 -1.000000e+00
    outer loop
      vertex   -3.487500e+01 4.450000e+00 0.000000e+00
      vertex   -3.487500e+01 2.850000e+00 0.000000e+00
      vertex   -3.547500e+01 2.850000e+00 0.000000e+00
    endloop
  endfacet
  facet normal -0.000000e+00 0.000000e+00 -1.000000e+00
    outer loop
      vertex   -3.547500e+01 1.800000e+00 0.000000e+00
      vertex   -4.200000e+01 8.000000e-01 0.000000e+00
      vertex   -3.547500e+01 2.850000e+00 0.000000e+00
    endloop
  endfacet
  facet normal 0.000000e+00 0.000000e+00 -1.000000e+00
    outer loop
      vertex   -3.547500e+01 2.850000e+00 0.000000e+00
      vertex   -4.200000e+01 8.000000e-01 0.000000e+00
      vertex   -4.300000e+01 1.800000e+00 0.000000e+00
    endloop
  endfacet
  facet normal -0.000000e+00 0.000000e+00 -1.000000e+00
    outer loop
      vertex   -3.547500e+01 2.850000e+00 0.000000e+00
      vertex   -4.300000e+01 1.800000e+00 0.000000e+00
      vertex   -4.300000e+01 2.850000e+00 0.000000e+00
    endloop
  endfacet
  facet normal 0.000000e+00 0.000000e+00 -1.000000e+00
    outer loop
      vertex   -4.200000e+01 8.000000e-01 0.000000e+00
      vertex   -3.547500e+01 1.800000e+00 0.000000e+00
      vertex   -3.647500e+01 8.000000e-01 0.000000e+00
    endloop
  endfacet
  facet normal 0.000000e+00 0.000000e+00 -1.000000e+00
    outer loop
      vertex   -3.647500e+01 8.000000e-01 0.000000e+00
      vertex   -3.547500e+01 1.800000e+00 0.000000e+00
      vertex   -3.548229e+01 1.679463e+00 0.000000e+00
    endloop
  endfacet
  facet normal 0.000000e+00 0.000000e+00 -1.000000e+00
    outer loop
      vertex   -3.647500e+01 8.000000e-01 0.000000e+00
      vertex   -3.548229e+01 1.679463e+00 0.000000e+00
      vertex   -3.550406e+01 1.560684e+00 0.000000e+00
    endloop
  endfacet
  facet normal 0.000000e+00 0.000000e+00 -1.000000e+00
    outer loop
      vertex   -3.550406e+01 1.560684e+00 0.000000e+00
      vertex   -3.553998e+01 1.445395e+00 0.000000e+00
      vertex   -3.647500e+01 8.000000e-01 0.000000e+00
    endloop
  endfacet
  facet normal 0.000000e+00 0.000000e+00 -1.000000e+00
    outer loop
      vertex   -3.647500e+01 8.000000e-01 0.000000e+00
      vertex   -3.553998e+01 1.445395e+00 0.000000e+00
      vertex   -3.558954e+01 1.335277e+00 0.000000e+00
    endloop
  endfacet
  facet normal 0.000000e+00 0.000000e+00 -1.000000e+00
    outer loop
      vertex   -3.647500e+01 8.000000e-01 0.000000e+00
      vertex   -3.558954e+01 1.335277e+00 0.000000e+00
      vertex   -3.565202e+01 1.231935e+00 0.000000e+00
    endloop
  endfacet
  facet normal 0.000000e+00 0.000000e+00 -1.000000e+00
    outer loop
      vertex   -3.565202e+01 1.231935e+00 0.000000e+00
      vertex   -3.572649e+01 1.136877e+00 0.000000e+00
      vertex   -3.647500e+01 8.000000e-01 0.000000e+00
    endloop
  endfacet
  facet normal 0.000000e+00 0.000000e+00 -1.000000e+00
    outer loop
      vertex   -3.647500e+01 8.000000e-01 0.000000e+00
      vertex   -3.572649e+01 1.136877e+00 0.000000e+00
      vertex   -3.581188e+01 1.051489e+00 0.000000e+00
    endloop
  endfacet
  facet normal 0.000000e+00 0.000000e+00 -1.000000e+00
    outer loop
      vertex   -3.647500e+01 8.000000e-01 0.000000e+00
      vertex   -3.581188e+01 1.051489e+00 0.000000e+00
      vertex   -3.590694e+01 9.770161e-01 0.000000e+00
    endloop
  endfacet
  facet normal 0.000000e+00 0.000000e+00 -1.000000e+00
    outer loop
      vertex   -3.590694e+01 9.770161e-01 0.000000e+00
      vertex   -3.601028e+01 9.145440e-01 0.000000e+00
      vertex   -3.647500e+01 8.000000e-01 0.000000e+00
    endloop
  endfacet
  facet normal 0.000000e+00 0.000000e+00 -1.000000e+00
    outer loop
      vertex   -3.647500e+01 8.000000e-01 0.000000e+00
      vertex   -3.601028e+01 9.145440e-01 0.000000e+00
      vertex   -3.612040e+01 8.649838e-01 0.000000e+00
    endloop
  endfacet
  facet normal 0.000000e+00 0.000000e+00 -1.000000e+00
    outer loop
      vertex   -3.647500e+01 8.000000e-01 0.000000e+00
      vertex   -3.612040e+01 8.649838e-01 0.000000e+00
      vertex   -3.623568e+01 8.290582e-01 0.000000e+00
    endloop
  endfacet
  facet normal 0.000000e+00 0.000000e+00 -1.000000e+00
    outer loop
      vertex   -3.623568e+01 8.290582e-01 0.000000e+00
      vertex   -3.635446e+01 8.072911e-01 0.000000e+00
      vertex   -3.647500e+01 8.000000e-01 0.000000e+00
    endloop
  endfacet
  facet normal 0.000000e+00 0.000000e+00 -1.000000e+00
    outer loop
      vertex   -4.212054e+01 8.072911e-01 0.000000e+00
      vertex   -4.223932e+01 8.290582e-01 0.000000e+00
      vertex   -4.200000e+01 8.000000e-01 0.000000e+00
    endloop
  endfacet
  facet normal 0.000000e+00 0.000000e+00 -1.000000e+00
    outer loop
      vertex   -4.200000e+01 8.000000e-01 0.000000e+00
      vertex   -4.223932e+01 8.290582e-01 0.000000e+00
      vertex   -4.235460e+01 8.649838e-01 0.000000e+00
    endloop
  endfacet
  facet normal 0.000000e+00 0.000000e+00 -1.000000e+00
    outer loop
      vertex   -4.200000e+01 8.000000e-01 0.000000e+00
      vertex   -4.235460e+01 8.649838e-01 0.000000e+00
      vertex   -4.246472e+01 9.145440e-01 0.000000e+00
    endloop
  endfacet
  facet normal 0.000000e+00 0.000000e+00 -1.000000e+00
    outer loop
      vertex   -4.246472e+01 9.145440e-01 0.000000e+00
      vertex   -4.256806e+01 9.770161e-01 0.000000e+00
      vertex   -4.200000e+01 8.000000e-01 0.000000e+00
    endloop
  endfacet
  facet normal 0.000000e+00 0.000000e+00 -1.000000e+00
    outer loop
      vertex   -4.200000e+01 8.000000e-01 0.000000e+00
      vertex   -4.256806e+01 9.770161e-01 0.000000e+00
      vertex   -4.266312e+01 1.051489e+00 0.000000e+00
    endloop
  endfacet
  facet normal 0.000000e+00 0.000000e+00 -1.000000e+00
    outer loop
      vertex   -4.200000e+01 8.000000e-01 0.000000e+00
      vertex   -4.266312e+01 1.051489e+00 0.000000e+00
      vertex   -4.274851e+01 1.136877e+00 0.000000e+00
    endloop
  endfacet
  facet normal 0.000000e+00 0.000000e+00 -1.000000e+00
    outer loop
      vertex   -4.274851e+01 1.136877e+00 0.000000e+00
      vertex   -4.282298e+01 1.231935e+00 0.000000e+00
      vertex   -4.200000e+01 8.000000e-01 0.000000e+00
    endloop
  endfacet
  facet normal 0.000000e+00 0.000000e+00 -1.000000e+00
    outer loop
      vertex   -4.200000e+01 8.000000e-01 0.000000e+00
      vertex   -4.282298e+01 1.231935e+00 0.000000e+00
      vertex   -4.288546e+01 1.335277e+00 0.000000e+00
    endloop
  endfacet
  facet normal 0.000000e+00 0.000000e+00 -1.000000e+00
    outer loop
      vertex   -4.200000e+01 8.000000e-01 0.000000e+00
      vertex   -4.288546e+01 1.335277e+00 0.000000e+00
      vertex   -4.293502e+01 1.445395e+00 0.000000e+00
    endloop
  endfacet
  facet normal 0.000000e+00 0.000000e+00 -1.000000e+00
    outer loop
      vertex   -4.293502e+01 1.445395e+00 0.000000e+00
      vertex   -4.297094e+01 1.560684e+00 0.000000e+00
      vertex   -4.200000e+01 8.000000e-01 0.000000e+00
    endloop
  endfacet
  facet normal 0.000000e+00 0.000000e+00 -1.000000e+00
    outer loop
      vertex   -4.200000e+01 8.000000e-01 0.000000e+00
      vertex   -4.297094e+01 1.560684e+00 0.000000e+00
      vertex   -4.299271e+01 1.679463e+00 0.000000e+00
    endloop
  endfacet
  facet normal 0.000000e+00 0.000000e+00 -1.000000e+00
    outer loop
      vertex   -4.200000e+01 8.000000e-01 0.000000e+00
      vertex   -4.299271e+01 1.679463e+00 0.000000e+00
      vertex   -4.300000e+01 1.800000e+00 0.000000e+00
    endloop
  endfacet
endsolid
