solid ASCII
  facet normal 0.000000e+00 1.000000e+00 -0.000000e+00
    outer loop
      vertex   -4.300000e+01 -1.015000e+01 0.000000e+00
      vertex   -4.360000e+01 -1.015000e+01 0.000000e+00
      vertex   -4.300000e+01 -1.015000e+01 1.200000e+00
    endloop
  endfacet
  facet normal 0.000000e+00 1.000000e+00 0.000000e+00
    outer loop
      vertex   -4.300000e+01 -1.015000e+01 1.200000e+00
      vertex   -4.360000e+01 -1.015000e+01 0.000000e+00
      vertex   -4.360000e+01 -1.015000e+01 1.200000e+00
    endloop
  endfacet
  facet normal 0.000000e+00 -1.000000e+00 0.000000e+00
    outer loop
      vertex   -4.360000e+01 -1.175000e+01 0.000000e+00
      vertex   -4.300000e+01 -1.175000e+01 0.000000e+00
      vertex   -4.360000e+01 -1.175000e+01 1.200000e+00
    endloop
  endfacet
  facet normal 0.000000e+00 -1.000000e+00 0.000000e+00
    outer loop
      vertex   -4.360000e+01 -1.175000e+01 1.200000e+00
      vertex   -4.300000e+01 -1.175000e+01 0.000000e+00
      vertex   -4.300000e+01 -1.175000e+01 1.200000e+00
    endloop
  endfacet
  facet normal -1.000000e+00 0.000000e+00 0.000000e+00
    outer loop
      vertex   -4.360000e+01 -1.015000e+01 0.000000e+00
      vertex   -4.360000e+01 -1.175000e+01 0.000000e+00
      vertex   -4.360000e+01 -1.015000e+01 1.200000e+00
    endloop
  endfacet
  facet normal -1.000000e+00 -0.000000e+00 0.000000e+00
    outer loop
      vertex   -4.360000e+01 -1.015000e+01 1.200000e+00
      vertex   -4.360000e+01 -1.175000e+01 0.000000e+00
      vertex   -4.360000e+01 -1.175000e+01 1.200000e+00
    endloop
  endfacet
  facet normal 0.000000e+00 0.000000e+00 1.000000e+00
    outer loop
      vertex   -4.360000e+01 -1.175000e+01 1.200000e+00
      vertex   -4.300000e+01 -1.175000e+01 1.200000e+00
      vertex   -4.360000e+01 -1.015000e+01 1.200000e+00
    endloop
  endfacet
  facet normal -0.000000e+00 0.000000e+00 1.000000e+00
    outer loop
      vertex   -4.360000e+01 -1.015000e+01 1.200000e+00
      vertex   -4.300000e+01 -1.175000e+01 1.200000e+00
      vertex   -4.300000e+01 -1.015000e+01 1.200000e+00
    endloop
  endfacet
  facet normal 0.000000e+00 -1.000000e+00 0.000000e+00
    outer loop
      vertex   -3.365000e+01 -1.175000e+01 0.000000e+00
      vertex   -3.305000e+01 -1.175000e+01 0.000000e+00
      vertex   -3.365000e+01 -1.175000e+01 1.200000e+00
    endloop
  endfacet
  facet normal 0.000000e+00 -1.000000e+00 0.000000e+00
    outer loop
      vertex   -3.365000e+01 -1.175000e+01 1.200000e+00
      vertex   -3.305000e+01 -1.175000e+01 0.000000e+00
      vertex   -3.305000e+01 -1.175000e+01 1.200000e+00
    endloop
  endfacet
  facet normal 0.000000e+00 1.000000e+00 -0.000000e+00
    outer loop
      vertex   -3.305000e+01 -1.015000e+01 0.000000e+00
      vertex   -3.365000e+01 -1.015000e+01 0.000000e+00
      vertex   -3.305000e+01 -1.015000e+01 1.200000e+00
    endloop
  endfacet
  facet normal 0.000000e+00 1.000000e+00 0.000000e+00
    outer loop
      vertex   -3.305000e+01 -1.015000e+01 1.200000e+00
      vertex   -3.365000e+01 -1.015000e+01 0.000000e+00
      vertex   -3.365000e+01 -1.015000e+01 1.200000e+00
    endloop
  endfacet
  facet normal 1.000000e+00 0.000000e+00 0.000000e+00
    outer loop
      vertex   -3.305000e+01 -1.175000e+01 0.000000e+00
      vertex   -3.305000e+01 -1.015000e+01 0.000000e+00
      vertex   -3.305000e+01 -1.175000e+01 1.200000e+00
    endloop
  endfacet
  facet normal 1.000000e+00 -0.000000e+00 0.000000e+00
    outer loop
      vertex   -3.305000e+01 -1.175000e+01 1.200000e+00
      vertex   -3.305000e+01 -1.015000e+01 0.000000e+00
      vertex   -3.305000e+01 -1.015000e+01 1.200000e+00
    endloop
  endfacet
  facet normal 0.000000e+00 0.000000e+00 1.000000e+00
    outer loop
      vertex   -3.305000e+01 -1.015000e+01 1.200000e+00
      vertex   -3.365000e+01 -1.015000e+01 1.200000e+00
      vertex   -3.305000e+01 -1.175000e+01 1.200000e+00
    endloop
  endfacet
  facet normal 0.000000e+00 0.000000e+00 1.000000e+00
    outer loop
      vertex   -3.305000e+01 -1.175000e+01 1.200000e+00
      vertex   -3.365000e+01 -1.015000e+01 1.200000e+00
      vertex   -3.365000e+01 -1.175000e+01 1.200000e+00
    endloop
  endfacet
  facet normal 1.000000e+00 0.000000e+00 0.000000e+00
    outer loop
      vertex   -3.365000e+01 -1.015000e+01 0.000000e+00
      vertex   -3.365000e+01 -9.100000e+00 0.000000e+00
      vertex   -3.365000e+01 -1.015000e+01 1.200000e+00
    endloop
  endfacet
  facet normal 1.000000e+00 -0.000000e+00 0.000000e+00
    outer loop
      vertex   -3.365000e+01 -1.015000e+01 1.200000e+00
      vertex   -3.365000e+01 -9.100000e+00 0.000000e+00
      vertex   -3.365000e+01 -9.100000e+00 5.000000e+00
    endloop
  endfacet
  facet normal 1.000000e+00 0.000000e+00 -0.000000e+00
    outer loop
      vertex   -3.365000e+01 -1.015000e+01 1.200000e+00
      vertex   -3.365000e+01 -9.100000e+00 5.000000e+00
      vertex   -3.365000e+01 -1.280000e+01 5.000000e+00
    endloop
  endfacet
  facet normal 1.000000e+00 0.000000e+00 0.000000e+00
    outer loop
      vertex   -3.365000e+01 -1.015000e+01 1.200000e+00
      vertex   -3.365000e+01 -1.280000e+01 5.000000e+00
      vertex   -3.365000e+01 -1.175000e+01 1.200000e+00
    endloop
  endfacet
  facet normal 1.000000e+00 0.000000e+00 0.000000e+00
    outer loop
      vertex   -3.365000e+01 -1.175000e+01 1.200000e+00
      vertex   -3.365000e+01 -1.280000e+01 5.000000e+00
      vertex   -3.365000e+01 -1.280000e+01 0.000000e+00
    endloop
  endfacet
  facet normal 1.000000e+00 0.000000e+00 0.000000e+00
    outer loop
      vertex   -3.365000e+01 -1.175000e+01 1.200000e+00
      vertex   -3.365000e+01 -1.280000e+01 0.000000e+00
      vertex   -3.365000e+01 -1.175000e+01 0.000000e+00
    endloop
  endfacet
  facet normal 6.037850e-02 -9.981756e-01 0.000000e+00
    outer loop
      vertex   -3.465000e+01 -1.380000e+01 5.000000e+00
      vertex   -3.465000e+01 -1.380000e+01 0.000000e+00
      vertex   -3.452946e+01 -1.379271e+01 2.500000e+00
    endloop
  endfacet
  facet normal 6.037850e-02 -9.981756e-01 -7.092464e-16
    outer loop
      vertex   -3.452946e+01 -1.379271e+01 2.500000e+00
      vertex   -3.465000e+01 -1.380000e+01 0.000000e+00
      vertex   -3.452946e+01 -1.379271e+01 0.000000e+00
    endloop
  endfacet
  facet normal 1.802550e-01 -9.836199e-01 -6.989040e-16
    outer loop
      vertex   -3.452946e+01 -1.379271e+01 2.500000e+00
      vertex   -3.452946e+01 -1.379271e+01 0.000000e+00
      vertex   -3.441068e+01 -1.377094e+01 2.500000e+00
    endloop
  endfacet
  facet normal 1.802550e-01 -9.836199e-01 -1.397808e-15
    outer loop
      vertex   -3.441068e+01 -1.377094e+01 2.500000e+00
      vertex   -3.452946e+01 -1.379271e+01 0.000000e+00
      vertex   -3.441068e+01 -1.377094e+01 0.000000e+00
    endloop
  endfacet
  facet normal 2.975031e-01 -9.547209e-01 -1.356740e-15
    outer loop
      vertex   -3.441068e+01 -1.377094e+01 2.500000e+00
      vertex   -3.441068e+01 -1.377094e+01 0.000000e+00
      vertex   -3.429540e+01 -1.373502e+01 2.500000e+00
    endloop
  endfacet
  facet normal 2.975031e-01 -9.547209e-01 0.000000e+00
    outer loop
      vertex   -3.429540e+01 -1.373502e+01 2.500000e+00
      vertex   -3.441068e+01 -1.377094e+01 0.000000e+00
      vertex   -3.429540e+01 -1.373502e+01 0.000000e+00
    endloop
  endfacet
  facet normal 4.104128e-01 -9.118998e-01 0.000000e+00
    outer loop
      vertex   -3.429540e+01 -1.373502e+01 2.500000e+00
      vertex   -3.429540e+01 -1.373502e+01 0.000000e+00
      vertex   -3.418528e+01 -1.368546e+01 2.500000e+00
    endloop
  endfacet
  facet normal 4.104128e-01 -9.118998e-01 0.000000e+00
    outer loop
      vertex   -3.418528e+01 -1.368546e+01 2.500000e+00
      vertex   -3.429540e+01 -1.373502e+01 0.000000e+00
      vertex   -3.418528e+01 -1.368546e+01 0.000000e+00
    endloop
  endfacet
  facet normal 5.173378e-01 -8.557813e-01 0.000000e+00
    outer loop
      vertex   -3.418528e+01 -1.368546e+01 2.500000e+00
      vertex   -3.418528e+01 -1.368546e+01 0.000000e+00
      vertex   -3.408194e+01 -1.362298e+01 2.500000e+00
    endloop
  endfacet
  facet normal 5.173378e-01 -8.557813e-01 0.000000e+00
    outer loop
      vertex   -3.408194e+01 -1.362298e+01 2.500000e+00
      vertex   -3.418528e+01 -1.368546e+01 0.000000e+00
      vertex   -3.408194e+01 -1.362298e+01 0.000000e+00
    endloop
  endfacet
  facet normal 6.167189e-01 -7.871835e-01 0.000000e+00
    outer loop
      vertex   -3.408194e+01 -1.362298e+01 2.500000e+00
      vertex   -3.408194e+01 -1.362298e+01 0.000000e+00
      vertex   -3.398688e+01 -1.354851e+01 2.500000e+00
    endloop
  endfacet
  facet normal 6.167189e-01 -7.871835e-01 0.000000e+00
    outer loop
      vertex   -3.398688e+01 -1.354851e+01 2.500000e+00
      vertex   -3.408194e+01 -1.362298e+01 0.000000e+00
      vertex   -3.398688e+01 -1.354851e+01 0.000000e+00
    endloop
  endfacet
  facet normal 7.071068e-01 -7.071068e-01 0.000000e+00
    outer loop
      vertex   -3.398688e+01 -1.354851e+01 2.500000e+00
      vertex   -3.398688e+01 -1.354851e+01 0.000000e+00
      vertex   -3.390149e+01 -1.346312e+01 2.500000e+00
    endloop
  endfacet
  facet normal 7.071068e-01 -7.071068e-01 0.000000e+00
    outer loop
      vertex   -3.390149e+01 -1.346312e+01 2.500000e+00
      vertex   -3.398688e+01 -1.354851e+01 0.000000e+00
      vertex   -3.390149e+01 -1.346312e+01 0.000000e+00
    endloop
  endfacet
  facet normal 7.871835e-01 -6.167189e-01 0.000000e+00
    outer loop
      vertex   -3.390149e+01 -1.346312e+01 2.500000e+00
      vertex   -3.390149e+01 -1.346312e+01 0.000000e+00
      vertex   -3.382702e+01 -1.336806e+01 2.500000e+00
    endloop
  endfacet
  facet normal 7.871835e-01 -6.167189e-01 0.000000e+00
    outer loop
      vertex   -3.382702e+01 -1.336806e+01 2.500000e+00
      vertex   -3.390149e+01 -1.346312e+01 0.000000e+00
      vertex   -3.382702e+01 -1.336806e+01 0.000000e+00
    endloop
  endfacet
  facet normal 8.557813e-01 -5.173378e-01 0.000000e+00
    outer loop
      vertex   -3.382702e+01 -1.336806e+01 2.500000e+00
      vertex   -3.382702e+01 -1.336806e+01 0.000000e+00
      vertex   -3.376454e+01 -1.326472e+01 2.500000e+00
    endloop
  endfacet
  facet normal 8.557813e-01 -5.173378e-01 0.000000e+00
    outer loop
      vertex   -3.376454e+01 -1.326472e+01 2.500000e+00
      vertex   -3.382702e+01 -1.336806e+01 0.000000e+00
      vertex   -3.376454e+01 -1.326472e+01 0.000000e+00
    endloop
  endfacet
  facet normal 9.118998e-01 -4.104128e-01 0.000000e+00
    outer loop
      vertex   -3.376454e+01 -1.326472e+01 2.500000e+00
      vertex   -3.376454e+01 -1.326472e+01 0.000000e+00
      vertex   -3.371498e+01 -1.315460e+01 2.500000e+00
    endloop
  endfacet
  facet normal 9.118998e-01 -4.104128e-01 0.000000e+00
    outer loop
      vertex   -3.371498e+01 -1.315460e+01 2.500000e+00
      vertex   -3.376454e+01 -1.326472e+01 0.000000e+00
      vertex   -3.371498e+01 -1.315460e+01 0.000000e+00
    endloop
  endfacet
  facet normal 9.547209e-01 -2.975031e-01 0.000000e+00
    outer loop
      vertex   -3.371498e+01 -1.315460e+01 2.500000e+00
      vertex   -3.371498e+01 -1.315460e+01 0.000000e+00
      vertex   -3.367906e+01 -1.303932e+01 2.500000e+00
    endloop
  endfacet
  facet normal 9.547209e-01 -2.975031e-01 0.000000e+00
    outer loop
      vertex   -3.367906e+01 -1.303932e+01 2.500000e+00
      vertex   -3.371498e+01 -1.315460e+01 0.000000e+00
      vertex   -3.367906e+01 -1.303932e+01 0.000000e+00
    endloop
  endfacet
  facet normal 9.836199e-01 -1.802550e-01 0.000000e+00
    outer loop
      vertex   -3.367906e+01 -1.303932e+01 2.500000e+00
      vertex   -3.367906e+01 -1.303932e+01 0.000000e+00
      vertex   -3.365729e+01 -1.292054e+01 2.500000e+00
    endloop
  endfacet
  facet normal 9.836199e-01 -1.802550e-01 0.000000e+00
    outer loop
      vertex   -3.365729e+01 -1.292054e+01 2.500000e+00
      vertex   -3.367906e+01 -1.303932e+01 0.000000e+00
      vertex   -3.365729e+01 -1.292054e+01 0.000000e+00
    endloop
  endfacet
  facet normal 9.981756e-01 -6.037850e-02 0.000000e+00
    outer loop
      vertex   -3.365729e+01 -1.292054e+01 2.500000e+00
      vertex   -3.365729e+01 -1.292054e+01 0.000000e+00
      vertex   -3.365000e+01 -1.280000e+01 0.000000e+00
    endloop
  endfacet
  facet normal 9.981756e-01 -6.037850e-02 0.000000e+00
    outer loop
      vertex   -3.365000e+01 -1.280000e+01 0.000000e+00
      vertex   -3.365000e+01 -1.280000e+01 5.000000e+00
      vertex   -3.365729e+01 -1.292054e+01 2.500000e+00
    endloop
  endfacet
  facet normal 9.981756e-01 -6.037850e-02 0.000000e+00
    outer loop
      vertex   -3.365729e+01 -1.292054e+01 2.500000e+00
      vertex   -3.365000e+01 -1.280000e+01 5.000000e+00
      vertex   -3.365729e+01 -1.292054e+01 5.000000e+00
    endloop
  endfacet
  facet normal 9.836199e-01 -1.802550e-01 0.000000e+00
    outer loop
      vertex   -3.365729e+01 -1.292054e+01 2.500000e+00
      vertex   -3.365729e+01 -1.292054e+01 5.000000e+00
      vertex   -3.367906e+01 -1.303932e+01 2.500000e+00
    endloop
  endfacet
  facet normal 9.836199e-01 -1.802550e-01 0.000000e+00
    outer loop
      vertex   -3.367906e+01 -1.303932e+01 2.500000e+00
      vertex   -3.365729e+01 -1.292054e+01 5.000000e+00
      vertex   -3.367906e+01 -1.303932e+01 5.000000e+00
    endloop
  endfacet
  facet normal 9.547209e-01 -2.975031e-01 0.000000e+00
    outer loop
      vertex   -3.367906e+01 -1.303932e+01 2.500000e+00
      vertex   -3.367906e+01 -1.303932e+01 5.000000e+00
      vertex   -3.371498e+01 -1.315460e+01 2.500000e+00
    endloop
  endfacet
  facet normal 9.547209e-01 -2.975031e-01 0.000000e+00
    outer loop
      vertex   -3.371498e+01 -1.315460e+01 2.500000e+00
      vertex   -3.367906e+01 -1.303932e+01 5.000000e+00
      vertex   -3.371498e+01 -1.315460e+01 5.000000e+00
    endloop
  endfacet
  facet normal 9.118998e-01 -4.104128e-01 0.000000e+00
    outer loop
      vertex   -3.371498e+01 -1.315460e+01 2.500000e+00
      vertex   -3.371498e+01 -1.315460e+01 5.000000e+00
      vertex   -3.376454e+01 -1.326472e+01 2.500000e+00
    endloop
  endfacet
  facet normal 9.118998e-01 -4.104128e-01 0.000000e+00
    outer loop
      vertex   -3.376454e+01 -1.326472e+01 2.500000e+00
      vertex   -3.371498e+01 -1.315460e+01 5.000000e+00
      vertex   -3.376454e+01 -1.326472e+01 5.000000e+00
    endloop
  endfacet
  facet normal 8.557813e-01 -5.173378e-01 0.000000e+00
    outer loop
      vertex   -3.376454e+01 -1.326472e+01 2.500000e+00
      vertex   -3.376454e+01 -1.326472e+01 5.000000e+00
      vertex   -3.382702e+01 -1.336806e+01 2.500000e+00
    endloop
  endfacet
  facet normal 8.557813e-01 -5.173378e-01 0.000000e+00
    outer loop
      vertex   -3.382702e+01 -1.336806e+01 2.500000e+00
      vertex   -3.376454e+01 -1.326472e+01 5.000000e+00
      vertex   -3.382702e+01 -1.336806e+01 5.000000e+00
    endloop
  endfacet
  facet normal 7.871835e-01 -6.167189e-01 0.000000e+00
    outer loop
      vertex   -3.382702e+01 -1.336806e+01 2.500000e+00
      vertex   -3.382702e+01 -1.336806e+01 5.000000e+00
      vertex   -3.390149e+01 -1.346312e+01 2.500000e+00
    endloop
  endfacet
  facet normal 7.871835e-01 -6.167189e-01 0.000000e+00
    outer loop
      vertex   -3.390149e+01 -1.346312e+01 2.500000e+00
      vertex   -3.382702e+01 -1.336806e+01 5.000000e+00
      vertex   -3.390149e+01 -1.346312e+01 5.000000e+00
    endloop
  endfacet
  facet normal 7.071068e-01 -7.071068e-01 0.000000e+00
    outer loop
      vertex   -3.390149e+01 -1.346312e+01 2.500000e+00
      vertex   -3.390149e+01 -1.346312e+01 5.000000e+00
      vertex   -3.398688e+01 -1.354851e+01 2.500000e+00
    endloop
  endfacet
  facet normal 7.071068e-01 -7.071068e-01 0.000000e+00
    outer loop
      vertex   -3.398688e+01 -1.354851e+01 2.500000e+00
      vertex   -3.390149e+01 -1.346312e+01 5.000000e+00
      vertex   -3.398688e+01 -1.354851e+01 5.000000e+00
    endloop
  endfacet
  facet normal 6.167189e-01 -7.871835e-01 0.000000e+00
    outer loop
      vertex   -3.398688e+01 -1.354851e+01 2.500000e+00
      vertex   -3.398688e+01 -1.354851e+01 5.000000e+00
      vertex   -3.408194e+01 -1.362298e+01 2.500000e+00
    endloop
  endfacet
  facet normal 6.167189e-01 -7.871835e-01 0.000000e+00
    outer loop
      vertex   -3.408194e+01 -1.362298e+01 2.500000e+00
      vertex   -3.398688e+01 -1.354851e+01 5.000000e+00
      vertex   -3.408194e+01 -1.362298e+01 5.000000e+00
    endloop
  endfacet
  facet normal 5.173378e-01 -8.557813e-01 0.000000e+00
    outer loop
      vertex   -3.408194e+01 -1.362298e+01 2.500000e+00
      vertex   -3.408194e+01 -1.362298e+01 5.000000e+00
      vertex   -3.418528e+01 -1.368546e+01 2.500000e+00
    endloop
  endfacet
  facet normal 5.173378e-01 -8.557813e-01 0.000000e+00
    outer loop
      vertex   -3.418528e+01 -1.368546e+01 2.500000e+00
      vertex   -3.408194e+01 -1.362298e+01 5.000000e+00
      vertex   -3.418528e+01 -1.368546e+01 5.000000e+00
    endloop
  endfacet
  facet normal 4.104128e-01 -9.118998e-01 0.000000e+00
    outer loop
      vertex   -3.418528e+01 -1.368546e+01 2.500000e+00
      vertex   -3.418528e+01 -1.368546e+01 5.000000e+00
      vertex   -3.429540e+01 -1.373502e+01 2.500000e+00
    endloop
  endfacet
  facet normal 4.104128e-01 -9.118998e-01 0.000000e+00
    outer loop
      vertex   -3.429540e+01 -1.373502e+01 2.500000e+00
      vertex   -3.418528e+01 -1.368546e+01 5.000000e+00
      vertex   -3.429540e+01 -1.373502e+01 5.000000e+00
    endloop
  endfacet
  facet normal 2.975031e-01 -9.547209e-01 0.000000e+00
    outer loop
      vertex   -3.429540e+01 -1.373502e+01 2.500000e+00
      vertex   -3.429540e+01 -1.373502e+01 5.000000e+00
      vertex   -3.441068e+01 -1.377094e+01 2.500000e+00
    endloop
  endfacet
  facet normal 2.975031e-01 -9.547209e-01 1.356740e-15
    outer loop
      vertex   -3.441068e+01 -1.377094e+01 2.500000e+00
      vertex   -3.429540e+01 -1.373502e+01 5.000000e+00
      vertex   -3.441068e+01 -1.377094e+01 5.000000e+00
    endloop
  endfacet
  facet normal 1.802550e-01 -9.836199e-01 1.397808e-15
    outer loop
      vertex   -3.441068e+01 -1.377094e+01 2.500000e+00
      vertex   -3.441068e+01 -1.377094e+01 5.000000e+00
      vertex   -3.452946e+01 -1.379271e+01 2.500000e+00
    endloop
  endfacet
  facet normal 1.802550e-01 -9.836199e-01 6.989040e-16
    outer loop
      vertex   -3.452946e+01 -1.379271e+01 2.500000e+00
      vertex   -3.441068e+01 -1.377094e+01 5.000000e+00
      vertex   -3.452946e+01 -1.379271e+01 5.000000e+00
    endloop
  endfacet
  facet normal 6.037850e-02 -9.981756e-01 7.092464e-16
    outer loop
      vertex   -3.452946e+01 -1.379271e+01 2.500000e+00
      vertex   -3.452946e+01 -1.379271e+01 5.000000e+00
      vertex   -3.465000e+01 -1.380000e+01 5.000000e+00
    endloop
  endfacet
  facet normal 0.000000e+00 -1.000000e+00 0.000000e+00
    outer loop
      vertex   -4.200000e+01 -1.380000e+01 0.000000e+00
      vertex   -3.465000e+01 -1.380000e+01 0.000000e+00
      vertex   -4.200000e+01 -1.380000e+01 5.000000e+00
    endloop
  endfacet
  facet normal 0.000000e+00 -1.000000e+00 0.000000e+00
    outer loop
      vertex   -4.200000e+01 -1.380000e+01 5.000000e+00
      vertex   -3.465000e+01 -1.380000e+01 0.000000e+00
      vertex   -3.465000e+01 -1.380000e+01 5.000000e+00
    endloop
  endfacet
  facet normal -9.981756e-01 -6.037850e-02 -0.000000e+00
    outer loop
      vertex   -4.300000e+01 -1.280000e+01 5.000000e+00
      vertex   -4.300000e+01 -1.280000e+01 0.000000e+00
      vertex   -4.299271e+01 -1.292054e+01 2.500000e+00
    endloop
  endfacet
  facet normal -9.981756e-01 -6.037850e-02 -0.000000e+00
    outer loop
      vertex   -4.299271e+01 -1.292054e+01 2.500000e+00
      vertex   -4.300000e+01 -1.280000e+01 0.000000e+00
      vertex   -4.299271e+01 -1.292054e+01 0.000000e+00
    endloop
  endfacet
  facet normal -9.836199e-01 -1.802550e-01 -0.000000e+00
    outer loop
      vertex   -4.299271e+01 -1.292054e+01 2.500000e+00
      vertex   -4.299271e+01 -1.292054e+01 0.000000e+00
      vertex   -4.297094e+01 -1.303932e+01 2.500000e+00
    endloop
  endfacet
  facet normal -9.836199e-01 -1.802550e-01 -0.000000e+00
    outer loop
      vertex   -4.297094e+01 -1.303932e+01 2.500000e+00
      vertex   -4.299271e+01 -1.292054e+01 0.000000e+00
      vertex   -4.297094e+01 -1.303932e+01 0.000000e+00
    endloop
  endfacet
  facet normal -9.547209e-01 -2.975031e-01 -0.000000e+00
    outer loop
      vertex   -4.297094e+01 -1.303932e+01 2.500000e+00
      vertex   -4.297094e+01 -1.303932e+01 0.000000e+00
      vertex   -4.293502e+01 -1.315460e+01 2.500000e+00
    endloop
  endfacet
  facet normal -9.547209e-01 -2.975031e-01 -2.113886e-16
    outer loop
      vertex   -4.293502e+01 -1.315460e+01 2.500000e+00
      vertex   -4.297094e+01 -1.303932e+01 0.000000e+00
      vertex   -4.293502e+01 -1.315460e+01 0.000000e+00
    endloop
  endfacet
  facet normal -9.118998e-01 -4.104128e-01 -2.916158e-16
    outer loop
      vertex   -4.293502e+01 -1.315460e+01 2.500000e+00
      vertex   -4.293502e+01 -1.315460e+01 0.000000e+00
      vertex   -4.288546e+01 -1.326472e+01 2.500000e+00
    endloop
  endfacet
  facet normal -9.118998e-01 -4.104128e-01 -2.916158e-16
    outer loop
      vertex   -4.288546e+01 -1.326472e+01 2.500000e+00
      vertex   -4.293502e+01 -1.315460e+01 0.000000e+00
      vertex   -4.288546e+01 -1.326472e+01 0.000000e+00
    endloop
  endfacet
  facet normal -8.557813e-01 -5.173378e-01 -3.675906e-16
    outer loop
      vertex   -4.288546e+01 -1.326472e+01 2.500000e+00
      vertex   -4.288546e+01 -1.326472e+01 0.000000e+00
      vertex   -4.282298e+01 -1.336806e+01 2.500000e+00
    endloop
  endfacet
  facet normal -8.557813e-01 -5.173378e-01 7.351813e-16
    outer loop
      vertex   -4.282298e+01 -1.336806e+01 2.500000e+00
      vertex   -4.288546e+01 -1.326472e+01 0.000000e+00
      vertex   -4.282298e+01 -1.336806e+01 0.000000e+00
    endloop
  endfacet
  facet normal -7.871835e-01 -6.167189e-01 8.764102e-16
    outer loop
      vertex   -4.282298e+01 -1.336806e+01 2.500000e+00
      vertex   -4.282298e+01 -1.336806e+01 0.000000e+00
      vertex   -4.274851e+01 -1.346312e+01 2.500000e+00
    endloop
  endfacet
  facet normal -7.871835e-01 -6.167189e-01 -0.000000e+00
    outer loop
      vertex   -4.274851e+01 -1.346312e+01 2.500000e+00
      vertex   -4.282298e+01 -1.336806e+01 0.000000e+00
      vertex   -4.274851e+01 -1.346312e+01 0.000000e+00
    endloop
  endfacet
  facet normal -7.071068e-01 -7.071068e-01 -0.000000e+00
    outer loop
      vertex   -4.274851e+01 -1.346312e+01 2.500000e+00
      vertex   -4.274851e+01 -1.346312e+01 0.000000e+00
      vertex   -4.266312e+01 -1.354851e+01 2.500000e+00
    endloop
  endfacet
  facet normal -7.071068e-01 -7.071068e-01 -0.000000e+00
    outer loop
      vertex   -4.266312e+01 -1.354851e+01 2.500000e+00
      vertex   -4.274851e+01 -1.346312e+01 0.000000e+00
      vertex   -4.266312e+01 -1.354851e+01 0.000000e+00
    endloop
  endfacet
  facet normal -6.167189e-01 -7.871835e-01 -0.000000e+00
    outer loop
      vertex   -4.266312e+01 -1.354851e+01 2.500000e+00
      vertex   -4.266312e+01 -1.354851e+01 0.000000e+00
      vertex   -4.256806e+01 -1.362298e+01 2.500000e+00
    endloop
  endfacet
  facet normal -6.167189e-01 -7.871835e-01 -0.000000e+00
    outer loop
      vertex   -4.256806e+01 -1.362298e+01 2.500000e+00
      vertex   -4.266312e+01 -1.354851e+01 0.000000e+00
      vertex   -4.256806e+01 -1.362298e+01 0.000000e+00
    endloop
  endfacet
  facet normal -5.173378e-01 -8.557813e-01 -0.000000e+00
    outer loop
      vertex   -4.256806e+01 -1.362298e+01 2.500000e+00
      vertex   -4.256806e+01 -1.362298e+01 0.000000e+00
      vertex   -4.246472e+01 -1.368546e+01 2.500000e+00
    endloop
  endfacet
  facet normal -5.173378e-01 -8.557813e-01 -0.000000e+00
    outer loop
      vertex   -4.246472e+01 -1.368546e+01 2.500000e+00
      vertex   -4.256806e+01 -1.362298e+01 0.000000e+00
      vertex   -4.246472e+01 -1.368546e+01 0.000000e+00
    endloop
  endfacet
  facet normal -4.104128e-01 -9.118998e-01 -0.000000e+00
    outer loop
      vertex   -4.246472e+01 -1.368546e+01 2.500000e+00
      vertex   -4.246472e+01 -1.368546e+01 0.000000e+00
      vertex   -4.235460e+01 -1.373502e+01 2.500000e+00
    endloop
  endfacet
  facet normal -4.104128e-01 -9.118998e-01 -0.000000e+00
    outer loop
      vertex   -4.235460e+01 -1.373502e+01 2.500000e+00
      vertex   -4.246472e+01 -1.368546e+01 0.000000e+00
      vertex   -4.235460e+01 -1.373502e+01 0.000000e+00
    endloop
  endfacet
  facet normal -2.975031e-01 -9.547209e-01 -0.000000e+00
    outer loop
      vertex   -4.235460e+01 -1.373502e+01 2.500000e+00
      vertex   -4.235460e+01 -1.373502e+01 0.000000e+00
      vertex   -4.223932e+01 -1.377094e+01 2.500000e+00
    endloop
  endfacet
  facet normal -2.975031e-01 -9.547209e-01 -6.783700e-16
    outer loop
      vertex   -4.223932e+01 -1.377094e+01 2.500000e+00
      vertex   -4.235460e+01 -1.373502e+01 0.000000e+00
      vertex   -4.223932e+01 -1.377094e+01 0.000000e+00
    endloop
  endfacet
  facet normal -1.802550e-01 -9.836199e-01 -6.989040e-16
    outer loop
      vertex   -4.223932e+01 -1.377094e+01 2.500000e+00
      vertex   -4.223932e+01 -1.377094e+01 0.000000e+00
      vertex   -4.212054e+01 -1.379271e+01 2.500000e+00
    endloop
  endfacet
  facet normal -1.802550e-01 -9.836199e-01 -0.000000e+00
    outer loop
      vertex   -4.212054e+01 -1.379271e+01 2.500000e+00
      vertex   -4.223932e+01 -1.377094e+01 0.000000e+00
      vertex   -4.212054e+01 -1.379271e+01 0.000000e+00
    endloop
  endfacet
  facet normal -6.037850e-02 -9.981756e-01 -0.000000e+00
    outer loop
      vertex   -4.212054e+01 -1.379271e+01 2.500000e+00
      vertex   -4.212054e+01 -1.379271e+01 0.000000e+00
      vertex   -4.200000e+01 -1.380000e+01 0.000000e+00
    endloop
  endfacet
  facet normal -6.037850e-02 -9.981756e-01 0.000000e+00
    outer loop
      vertex   -4.200000e+01 -1.380000e+01 0.000000e+00
      vertex   -4.200000e+01 -1.380000e+01 5.000000e+00
      vertex   -4.212054e+01 -1.379271e+01 2.500000e+00
    endloop
  endfacet
  facet normal -6.037850e-02 -9.981756e-01 0.000000e+00
    outer loop
      vertex   -4.212054e+01 -1.379271e+01 2.500000e+00
      vertex   -4.200000e+01 -1.380000e+01 5.000000e+00
      vertex   -4.212054e+01 -1.379271e+01 5.000000e+00
    endloop
  endfacet
  facet normal -1.802550e-01 -9.836199e-01 0.000000e+00
    outer loop
      vertex   -4.212054e+01 -1.379271e+01 2.500000e+00
      vertex   -4.212054e+01 -1.379271e+01 5.000000e+00
      vertex   -4.223932e+01 -1.377094e+01 2.500000e+00
    endloop
  endfacet
  facet normal -1.802550e-01 -9.836199e-01 6.989040e-16
    outer loop
      vertex   -4.223932e+01 -1.377094e+01 2.500000e+00
      vertex   -4.212054e+01 -1.379271e+01 5.000000e+00
      vertex   -4.223932e+01 -1.377094e+01 5.000000e+00
    endloop
  endfacet
  facet normal -2.975031e-01 -9.547209e-01 6.783700e-16
    outer loop
      vertex   -4.223932e+01 -1.377094e+01 2.500000e+00
      vertex   -4.223932e+01 -1.377094e+01 5.000000e+00
      vertex   -4.235460e+01 -1.373502e+01 2.500000e+00
    endloop
  endfacet
  facet normal -2.975031e-01 -9.547209e-01 0.000000e+00
    outer loop
      vertex   -4.235460e+01 -1.373502e+01 2.500000e+00
      vertex   -4.223932e+01 -1.377094e+01 5.000000e+00
      vertex   -4.235460e+01 -1.373502e+01 5.000000e+00
    endloop
  endfacet
  facet normal -4.104128e-01 -9.118998e-01 0.000000e+00
    outer loop
      vertex   -4.235460e+01 -1.373502e+01 2.500000e+00
      vertex   -4.235460e+01 -1.373502e+01 5.000000e+00
      vertex   -4.246472e+01 -1.368546e+01 2.500000e+00
    endloop
  endfacet
  facet normal -4.104128e-01 -9.118998e-01 0.000000e+00
    outer loop
      vertex   -4.246472e+01 -1.368546e+01 2.500000e+00
      vertex   -4.235460e+01 -1.373502e+01 5.000000e+00
      vertex   -4.246472e+01 -1.368546e+01 5.000000e+00
    endloop
  endfacet
  facet normal -5.173378e-01 -8.557813e-01 0.000000e+00
    outer loop
      vertex   -4.246472e+01 -1.368546e+01 2.500000e+00
      vertex   -4.246472e+01 -1.368546e+01 5.000000e+00
      vertex   -4.256806e+01 -1.362298e+01 2.500000e+00
    endloop
  endfacet
  facet normal -5.173378e-01 -8.557813e-01 0.000000e+00
    outer loop
      vertex   -4.256806e+01 -1.362298e+01 2.500000e+00
      vertex   -4.246472e+01 -1.368546e+01 5.000000e+00
      vertex   -4.256806e+01 -1.362298e+01 5.000000e+00
    endloop
  endfacet
  facet normal -6.167189e-01 -7.871835e-01 0.000000e+00
    outer loop
      vertex   -4.256806e+01 -1.362298e+01 2.500000e+00
      vertex   -4.256806e+01 -1.362298e+01 5.000000e+00
      vertex   -4.266312e+01 -1.354851e+01 2.500000e+00
    endloop
  endfacet
  facet normal -6.167189e-01 -7.871835e-01 0.000000e+00
    outer loop
      vertex   -4.266312e+01 -1.354851e+01 2.500000e+00
      vertex   -4.256806e+01 -1.362298e+01 5.000000e+00
      vertex   -4.266312e+01 -1.354851e+01 5.000000e+00
    endloop
  endfacet
  facet normal -7.071068e-01 -7.071068e-01 0.000000e+00
    outer loop
      vertex   -4.266312e+01 -1.354851e+01 2.500000e+00
      vertex   -4.266312e+01 -1.354851e+01 5.000000e+00
      vertex   -4.274851e+01 -1.346312e+01 2.500000e+00
    endloop
  endfacet
  facet normal -7.071068e-01 -7.071068e-01 0.000000e+00
    outer loop
      vertex   -4.274851e+01 -1.346312e+01 2.500000e+00
      vertex   -4.266312e+01 -1.354851e+01 5.000000e+00
      vertex   -4.274851e+01 -1.346312e+01 5.000000e+00
    endloop
  endfacet
  facet normal -7.871835e-01 -6.167189e-01 0.000000e+00
    outer loop
      vertex   -4.274851e+01 -1.346312e+01 2.500000e+00
      vertex   -4.274851e+01 -1.346312e+01 5.000000e+00
      vertex   -4.282298e+01 -1.336806e+01 2.500000e+00
    endloop
  endfacet
  facet normal -7.871835e-01 -6.167189e-01 -8.764102e-16
    outer loop
      vertex   -4.282298e+01 -1.336806e+01 2.500000e+00
      vertex   -4.274851e+01 -1.346312e+01 5.000000e+00
      vertex   -4.282298e+01 -1.336806e+01 5.000000e+00
    endloop
  endfacet
  facet normal -8.557813e-01 -5.173378e-01 -7.351813e-16
    outer loop
      vertex   -4.282298e+01 -1.336806e+01 2.500000e+00
      vertex   -4.282298e+01 -1.336806e+01 5.000000e+00
      vertex   -4.288546e+01 -1.326472e+01 2.500000e+00
    endloop
  endfacet
  facet normal -8.557813e-01 -5.173378e-01 3.675906e-16
    outer loop
      vertex   -4.288546e+01 -1.326472e+01 2.500000e+00
      vertex   -4.282298e+01 -1.336806e+01 5.000000e+00
      vertex   -4.288546e+01 -1.326472e+01 5.000000e+00
    endloop
  endfacet
  facet normal -9.118998e-01 -4.104128e-01 2.916158e-16
    outer loop
      vertex   -4.288546e+01 -1.326472e+01 2.500000e+00
      vertex   -4.288546e+01 -1.326472e+01 5.000000e+00
      vertex   -4.293502e+01 -1.315460e+01 2.500000e+00
    endloop
  endfacet
  facet normal -9.118998e-01 -4.104128e-01 2.916158e-16
    outer loop
      vertex   -4.293502e+01 -1.315460e+01 2.500000e+00
      vertex   -4.288546e+01 -1.326472e+01 5.000000e+00
      vertex   -4.293502e+01 -1.315460e+01 5.000000e+00
    endloop
  endfacet
  facet normal -9.547209e-01 -2.975031e-01 2.113886e-16
    outer loop
      vertex   -4.293502e+01 -1.315460e+01 2.500000e+00
      vertex   -4.293502e+01 -1.315460e+01 5.000000e+00
      vertex   -4.297094e+01 -1.303932e+01 2.500000e+00
    endloop
  endfacet
  facet normal -9.547209e-01 -2.975031e-01 0.000000e+00
    outer loop
      vertex   -4.297094e+01 -1.303932e+01 2.500000e+00
      vertex   -4.293502e+01 -1.315460e+01 5.000000e+00
      vertex   -4.297094e+01 -1.303932e+01 5.000000e+00
    endloop
  endfacet
  facet normal -9.836199e-01 -1.802550e-01 0.000000e+00
    outer loop
      vertex   -4.297094e+01 -1.303932e+01 2.500000e+00
      vertex   -4.297094e+01 -1.303932e+01 5.000000e+00
      vertex   -4.299271e+01 -1.292054e+01 2.500000e+00
    endloop
  endfacet
  facet normal -9.836199e-01 -1.802550e-01 0.000000e+00
    outer loop
      vertex   -4.299271e+01 -1.292054e+01 2.500000e+00
      vertex   -4.297094e+01 -1.303932e+01 5.000000e+00
      vertex   -4.299271e+01 -1.292054e+01 5.000000e+00
    endloop
  endfacet
  facet normal -9.981756e-01 -6.037850e-02 0.000000e+00
    outer loop
      vertex   -4.299271e+01 -1.292054e+01 2.500000e+00
      vertex   -4.299271e+01 -1.292054e+01 5.000000e+00
      vertex   -4.300000e+01 -1.280000e+01 5.000000e+00
    endloop
  endfacet
  facet normal -1.000000e+00 0.000000e+00 0.000000e+00
    outer loop
      vertex   -4.300000e+01 -1.175000e+01 0.000000e+00
      vertex   -4.300000e+01 -1.280000e+01 0.000000e+00
      vertex   -4.300000e+01 -1.175000e+01 1.200000e+00
    endloop
  endfacet
  facet normal -1.000000e+00 -0.000000e+00 0.000000e+00
    outer loop
      vertex   -4.300000e+01 -1.175000e+01 1.200000e+00
      vertex   -4.300000e+01 -1.280000e+01 0.000000e+00
      vertex   -4.300000e+01 -1.280000e+01 5.000000e+00
    endloop
  endfacet
  facet normal -1.000000e+00 1.920386e-15 5.306329e-16
    outer loop
      vertex   -4.300000e+01 -1.175000e+01 1.200000e+00
      vertex   -4.300000e+01 -1.280000e+01 5.000000e+00
      vertex   -4.300000e+01 -9.100000e+00 5.000000e+00
    endloop
  endfacet
  facet normal -1.000000e+00 0.000000e+00 1.869849e-15
    outer loop
      vertex   -4.300000e+01 -1.175000e+01 1.200000e+00
      vertex   -4.300000e+01 -9.100000e+00 5.000000e+00
      vertex   -4.300000e+01 -1.015000e+01 1.200000e+00
    endloop
  endfacet
  facet normal -1.000000e+00 6.767074e-15 0.000000e+00
    outer loop
      vertex   -4.300000e+01 -1.015000e+01 1.200000e+00
      vertex   -4.300000e+01 -9.100000e+00 5.000000e+00
      vertex   -4.300000e+01 -9.100000e+00 0.000000e+00
    endloop
  endfacet
  facet normal -1.000000e+00 6.767074e-15 0.000000e+00
    outer loop
      vertex   -4.300000e+01 -1.015000e+01 1.200000e+00
      vertex   -4.300000e+01 -9.100000e+00 0.000000e+00
      vertex   -4.300000e+01 -1.015000e+01 0.000000e+00
    endloop
  endfacet
  facet normal -6.037850e-02 9.981756e-01 0.000000e+00
    outer loop
      vertex   -4.200000e+01 -8.100000e+00 5.000000e+00
      vertex   -4.200000e+01 -8.100000e+00 0.000000e+00
      vertex   -4.212054e+01 -8.107291e+00 2.500000e+00
    endloop
  endfacet
  facet normal -6.037850e-02 9.981756e-01 0.000000e+00
    outer loop
      vertex   -4.212054e+01 -8.107291e+00 2.500000e+00
      vertex   -4.200000e+01 -8.100000e+00 0.000000e+00
      vertex   -4.212054e+01 -8.107291e+00 0.000000e+00
    endloop
  endfacet
  facet normal -1.802550e-01 9.836199e-01 0.000000e+00
    outer loop
      vertex   -4.212054e+01 -8.107291e+00 2.500000e+00
      vertex   -4.212054e+01 -8.107291e+00 0.000000e+00
      vertex   -4.223932e+01 -8.129058e+00 2.500000e+00
    endloop
  endfacet
  facet normal -1.802550e-01 9.836199e-01 0.000000e+00
    outer loop
      vertex   -4.223932e+01 -8.129058e+00 2.500000e+00
      vertex   -4.212054e+01 -8.107291e+00 0.000000e+00
      vertex   -4.223932e+01 -8.129058e+00 0.000000e+00
    endloop
  endfacet
  facet normal -2.975031e-01 9.547209e-01 0.000000e+00
    outer loop
      vertex   -4.223932e+01 -8.129058e+00 2.500000e+00
      vertex   -4.223932e+01 -8.129058e+00 0.000000e+00
      vertex   -4.235460e+01 -8.164984e+00 2.500000e+00
    endloop
  endfacet
  facet normal -2.975031e-01 9.547209e-01 0.000000e+00
    outer loop
      vertex   -4.235460e+01 -8.164984e+00 2.500000e+00
      vertex   -4.223932e+01 -8.129058e+00 0.000000e+00
      vertex   -4.235460e+01 -8.164984e+00 0.000000e+00
    endloop
  endfacet
  facet normal -4.104128e-01 9.118998e-01 0.000000e+00
    outer loop
      vertex   -4.235460e+01 -8.164984e+00 2.500000e+00
      vertex   -4.235460e+01 -8.164984e+00 0.000000e+00
      vertex   -4.246472e+01 -8.214544e+00 2.500000e+00
    endloop
  endfacet
  facet normal -4.104128e-01 9.118998e-01 6.479438e-16
    outer loop
      vertex   -4.246472e+01 -8.214544e+00 2.500000e+00
      vertex   -4.235460e+01 -8.164984e+00 0.000000e+00
      vertex   -4.246472e+01 -8.214544e+00 0.000000e+00
    endloop
  endfacet
  facet normal -5.173378e-01 8.557813e-01 6.080692e-16
    outer loop
      vertex   -4.246472e+01 -8.214544e+00 2.500000e+00
      vertex   -4.246472e+01 -8.214544e+00 0.000000e+00
      vertex   -4.256806e+01 -8.277016e+00 2.500000e+00
    endloop
  endfacet
  facet normal -5.173378e-01 8.557813e-01 6.080692e-16
    outer loop
      vertex   -4.256806e+01 -8.277016e+00 2.500000e+00
      vertex   -4.246472e+01 -8.214544e+00 0.000000e+00
      vertex   -4.256806e+01 -8.277016e+00 0.000000e+00
    endloop
  endfacet
  facet normal -6.167189e-01 7.871835e-01 5.593275e-16
    outer loop
      vertex   -4.256806e+01 -8.277016e+00 2.500000e+00
      vertex   -4.256806e+01 -8.277016e+00 0.000000e+00
      vertex   -4.266312e+01 -8.351489e+00 2.500000e+00
    endloop
  endfacet
  facet normal -6.167189e-01 7.871835e-01 -5.593275e-16
    outer loop
      vertex   -4.266312e+01 -8.351489e+00 2.500000e+00
      vertex   -4.256806e+01 -8.277016e+00 0.000000e+00
      vertex   -4.266312e+01 -8.351489e+00 0.000000e+00
    endloop
  endfacet
  facet normal -7.071068e-01 7.071068e-01 -5.024296e-16
    outer loop
      vertex   -4.266312e+01 -8.351489e+00 2.500000e+00
      vertex   -4.266312e+01 -8.351489e+00 0.000000e+00
      vertex   -4.274851e+01 -8.436877e+00 2.500000e+00
    endloop
  endfacet
  facet normal -7.071068e-01 7.071068e-01 5.024296e-16
    outer loop
      vertex   -4.274851e+01 -8.436877e+00 2.500000e+00
      vertex   -4.266312e+01 -8.351489e+00 0.000000e+00
      vertex   -4.274851e+01 -8.436877e+00 0.000000e+00
    endloop
  endfacet
  facet normal -7.871835e-01 6.167189e-01 4.382051e-16
    outer loop
      vertex   -4.274851e+01 -8.436877e+00 2.500000e+00
      vertex   -4.274851e+01 -8.436877e+00 0.000000e+00
      vertex   -4.282298e+01 -8.531935e+00 2.500000e+00
    endloop
  endfacet
  facet normal -7.871835e-01 6.167189e-01 0.000000e+00
    outer loop
      vertex   -4.282298e+01 -8.531935e+00 2.500000e+00
      vertex   -4.274851e+01 -8.436877e+00 0.000000e+00
      vertex   -4.282298e+01 -8.531935e+00 0.000000e+00
    endloop
  endfacet
  facet normal -8.557813e-01 5.173378e-01 0.000000e+00
    outer loop
      vertex   -4.282298e+01 -8.531935e+00 2.500000e+00
      vertex   -4.282298e+01 -8.531935e+00 0.000000e+00
      vertex   -4.288546e+01 -8.635277e+00 2.500000e+00
    endloop
  endfacet
  facet normal -8.557813e-01 5.173378e-01 0.000000e+00
    outer loop
      vertex   -4.288546e+01 -8.635277e+00 2.500000e+00
      vertex   -4.282298e+01 -8.531935e+00 0.000000e+00
      vertex   -4.288546e+01 -8.635277e+00 0.000000e+00
    endloop
  endfacet
  facet normal -9.118998e-01 4.104128e-01 0.000000e+00
    outer loop
      vertex   -4.288546e+01 -8.635277e+00 2.500000e+00
      vertex   -4.288546e+01 -8.635277e+00 0.000000e+00
      vertex   -4.293502e+01 -8.745395e+00 2.500000e+00
    endloop
  endfacet
  facet normal -9.118998e-01 4.104128e-01 0.000000e+00
    outer loop
      vertex   -4.293502e+01 -8.745395e+00 2.500000e+00
      vertex   -4.288546e+01 -8.635277e+00 0.000000e+00
      vertex   -4.293502e+01 -8.745395e+00 0.000000e+00
    endloop
  endfacet
  facet normal -9.547209e-01 2.975031e-01 0.000000e+00
    outer loop
      vertex   -4.293502e+01 -8.745395e+00 2.500000e+00
      vertex   -4.293502e+01 -8.745395e+00 0.000000e+00
      vertex   -4.297094e+01 -8.860684e+00 2.500000e+00
    endloop
  endfacet
  facet normal -9.547209e-01 2.975031e-01 0.000000e+00
    outer loop
      vertex   -4.297094e+01 -8.860684e+00 2.500000e+00
      vertex   -4.293502e+01 -8.745395e+00 0.000000e+00
      vertex   -4.297094e+01 -8.860684e+00 0.000000e+00
    endloop
  endfacet
  facet normal -9.836199e-01 1.802550e-01 0.000000e+00
    outer loop
      vertex   -4.297094e+01 -8.860684e+00 2.500000e+00
      vertex   -4.297094e+01 -8.860684e+00 0.000000e+00
      vertex   -4.299271e+01 -8.979463e+00 2.500000e+00
    endloop
  endfacet
  facet normal -9.836199e-01 1.802550e-01 0.000000e+00
    outer loop
      vertex   -4.299271e+01 -8.979463e+00 2.500000e+00
      vertex   -4.297094e+01 -8.860684e+00 0.000000e+00
      vertex   -4.299271e+01 -8.979463e+00 0.000000e+00
    endloop
  endfacet
  facet normal -9.981756e-01 6.037850e-02 0.000000e+00
    outer loop
      vertex   -4.299271e+01 -8.979463e+00 2.500000e+00
      vertex   -4.299271e+01 -8.979463e+00 0.000000e+00
      vertex   -4.300000e+01 -9.100000e+00 0.000000e+00
    endloop
  endfacet
  facet normal -9.981756e-01 6.037850e-02 0.000000e+00
    outer loop
      vertex   -4.300000e+01 -9.100000e+00 0.000000e+00
      vertex   -4.300000e+01 -9.100000e+00 5.000000e+00
      vertex   -4.299271e+01 -8.979463e+00 2.500000e+00
    endloop
  endfacet
  facet normal -9.981756e-01 6.037850e-02 0.000000e+00
    outer loop
      vertex   -4.299271e+01 -8.979463e+00 2.500000e+00
      vertex   -4.300000e+01 -9.100000e+00 5.000000e+00
      vertex   -4.299271e+01 -8.979463e+00 5.000000e+00
    endloop
  endfacet
  facet normal -9.836199e-01 1.802550e-01 0.000000e+00
    outer loop
      vertex   -4.299271e+01 -8.979463e+00 2.500000e+00
      vertex   -4.299271e+01 -8.979463e+00 5.000000e+00
      vertex   -4.297094e+01 -8.860684e+00 2.500000e+00
    endloop
  endfacet
  facet normal -9.836199e-01 1.802550e-01 0.000000e+00
    outer loop
      vertex   -4.297094e+01 -8.860684e+00 2.500000e+00
      vertex   -4.299271e+01 -8.979463e+00 5.000000e+00
      vertex   -4.297094e+01 -8.860684e+00 5.000000e+00
    endloop
  endfacet
  facet normal -9.547209e-01 2.975031e-01 0.000000e+00
    outer loop
      vertex   -4.297094e+01 -8.860684e+00 2.500000e+00
      vertex   -4.297094e+01 -8.860684e+00 5.000000e+00
      vertex   -4.293502e+01 -8.745395e+00 2.500000e+00
    endloop
  endfacet
  facet normal -9.547209e-01 2.975031e-01 0.000000e+00
    outer loop
      vertex   -4.293502e+01 -8.745395e+00 2.500000e+00
      vertex   -4.297094e+01 -8.860684e+00 5.000000e+00
      vertex   -4.293502e+01 -8.745395e+00 5.000000e+00
    endloop
  endfacet
  facet normal -9.118998e-01 4.104128e-01 0.000000e+00
    outer loop
      vertex   -4.293502e+01 -8.745395e+00 2.500000e+00
      vertex   -4.293502e+01 -8.745395e+00 5.000000e+00
      vertex   -4.288546e+01 -8.635277e+00 2.500000e+00
    endloop
  endfacet
  facet normal -9.118998e-01 4.104128e-01 0.000000e+00
    outer loop
      vertex   -4.288546e+01 -8.635277e+00 2.500000e+00
      vertex   -4.293502e+01 -8.745395e+00 5.000000e+00
      vertex   -4.288546e+01 -8.635277e+00 5.000000e+00
    endloop
  endfacet
  facet normal -8.557813e-01 5.173378e-01 0.000000e+00
    outer loop
      vertex   -4.288546e+01 -8.635277e+00 2.500000e+00
      vertex   -4.288546e+01 -8.635277e+00 5.000000e+00
      vertex   -4.282298e+01 -8.531935e+00 2.500000e+00
    endloop
  endfacet
  facet normal -8.557813e-01 5.173378e-01 0.000000e+00
    outer loop
      vertex   -4.282298e+01 -8.531935e+00 2.500000e+00
      vertex   -4.288546e+01 -8.635277e+00 5.000000e+00
      vertex   -4.282298e+01 -8.531935e+00 5.000000e+00
    endloop
  endfacet
  facet normal -7.871835e-01 6.167189e-01 0.000000e+00
    outer loop
      vertex   -4.282298e+01 -8.531935e+00 2.500000e+00
      vertex   -4.282298e+01 -8.531935e+00 5.000000e+00
      vertex   -4.274851e+01 -8.436877e+00 2.500000e+00
    endloop
  endfacet
  facet normal -7.871835e-01 6.167189e-01 -4.382051e-16
    outer loop
      vertex   -4.274851e+01 -8.436877e+00 2.500000e+00
      vertex   -4.282298e+01 -8.531935e+00 5.000000e+00
      vertex   -4.274851e+01 -8.436877e+00 5.000000e+00
    endloop
  endfacet
  facet normal -7.071068e-01 7.071068e-01 -5.024296e-16
    outer loop
      vertex   -4.274851e+01 -8.436877e+00 2.500000e+00
      vertex   -4.274851e+01 -8.436877e+00 5.000000e+00
      vertex   -4.266312e+01 -8.351489e+00 2.500000e+00
    endloop
  endfacet
  facet normal -7.071068e-01 7.071068e-01 5.024296e-16
    outer loop
      vertex   -4.266312e+01 -8.351489e+00 2.500000e+00
      vertex   -4.274851e+01 -8.436877e+00 5.000000e+00
      vertex   -4.266312e+01 -8.351489e+00 5.000000e+00
    endloop
  endfacet
  facet normal -6.167189e-01 7.871835e-01 5.593275e-16
    outer loop
      vertex   -4.266312e+01 -8.351489e+00 2.500000e+00
      vertex   -4.266312e+01 -8.351489e+00 5.000000e+00
      vertex   -4.256806e+01 -8.277016e+00 2.500000e+00
    endloop
  endfacet
  facet normal -6.167189e-01 7.871835e-01 -5.593275e-16
    outer loop
      vertex   -4.256806e+01 -8.277016e+00 2.500000e+00
      vertex   -4.266312e+01 -8.351489e+00 5.000000e+00
      vertex   -4.256806e+01 -8.277016e+00 5.000000e+00
    endloop
  endfacet
  facet normal -5.173378e-01 8.557813e-01 -6.080692e-16
    outer loop
      vertex   -4.256806e+01 -8.277016e+00 2.500000e+00
      vertex   -4.256806e+01 -8.277016e+00 5.000000e+00
      vertex   -4.246472e+01 -8.214544e+00 2.500000e+00
    endloop
  endfacet
  facet normal -5.173378e-01 8.557813e-01 -6.080692e-16
    outer loop
      vertex   -4.246472e+01 -8.214544e+00 2.500000e+00
      vertex   -4.256806e+01 -8.277016e+00 5.000000e+00
      vertex   -4.246472e+01 -8.214544e+00 5.000000e+00
    endloop
  endfacet
  facet normal -4.104128e-01 9.118998e-01 -6.479438e-16
    outer loop
      vertex   -4.246472e+01 -8.214544e+00 2.500000e+00
      vertex   -4.246472e+01 -8.214544e+00 5.000000e+00
      vertex   -4.235460e+01 -8.164984e+00 2.500000e+00
    endloop
  endfacet
  facet normal -4.104128e-01 9.118998e-01 0.000000e+00
    outer loop
      vertex   -4.235460e+01 -8.164984e+00 2.500000e+00
      vertex   -4.246472e+01 -8.214544e+00 5.000000e+00
      vertex   -4.235460e+01 -8.164984e+00 5.000000e+00
    endloop
  endfacet
  facet normal -2.975031e-01 9.547209e-01 0.000000e+00
    outer loop
      vertex   -4.235460e+01 -8.164984e+00 2.500000e+00
      vertex   -4.235460e+01 -8.164984e+00 5.000000e+00
      vertex   -4.223932e+01 -8.129058e+00 2.500000e+00
    endloop
  endfacet
  facet normal -2.975031e-01 9.547209e-01 0.000000e+00
    outer loop
      vertex   -4.223932e+01 -8.129058e+00 2.500000e+00
      vertex   -4.235460e+01 -8.164984e+00 5.000000e+00
      vertex   -4.223932e+01 -8.129058e+00 5.000000e+00
    endloop
  endfacet
  facet normal -1.802550e-01 9.836199e-01 0.000000e+00
    outer loop
      vertex   -4.223932e+01 -8.129058e+00 2.500000e+00
      vertex   -4.223932e+01 -8.129058e+00 5.000000e+00
      vertex   -4.212054e+01 -8.107291e+00 2.500000e+00
    endloop
  endfacet
  facet normal -1.802550e-01 9.836199e-01 0.000000e+00
    outer loop
      vertex   -4.212054e+01 -8.107291e+00 2.500000e+00
      vertex   -4.223932e+01 -8.129058e+00 5.000000e+00
      vertex   -4.212054e+01 -8.107291e+00 5.000000e+00
    endloop
  endfacet
  facet normal -6.037850e-02 9.981756e-01 0.000000e+00
    outer loop
      vertex   -4.212054e+01 -8.107291e+00 2.500000e+00
      vertex   -4.212054e+01 -8.107291e+00 5.000000e+00
      vertex   -4.200000e+01 -8.100000e+00 5.000000e+00
    endloop
  endfacet
  facet normal -7.250436e-16 1.000000e+00 0.000000e+00
    outer loop
      vertex   -3.465000e+01 -8.100000e+00 0.000000e+00
      vertex   -4.200000e+01 -8.100000e+00 0.000000e+00
      vertex   -3.465000e+01 -8.100000e+00 5.000000e+00
    endloop
  endfacet
  facet normal -7.250436e-16 1.000000e+00 0.000000e+00
    outer loop
      vertex   -3.465000e+01 -8.100000e+00 5.000000e+00
      vertex   -4.200000e+01 -8.100000e+00 0.000000e+00
      vertex   -4.200000e+01 -8.100000e+00 5.000000e+00
    endloop
  endfacet
  facet normal 9.981756e-01 6.037850e-02 0.000000e+00
    outer loop
      vertex   -3.365000e+01 -9.100000e+00 5.000000e+00
      vertex   -3.365000e+01 -9.100000e+00 0.000000e+00
      vertex   -3.365729e+01 -8.979463e+00 2.500000e+00
    endloop
  endfacet
  facet normal 9.981756e-01 6.037850e-02 0.000000e+00
    outer loop
      vertex   -3.365729e+01 -8.979463e+00 2.500000e+00
      vertex   -3.365000e+01 -9.100000e+00 0.000000e+00
      vertex   -3.365729e+01 -8.979463e+00 0.000000e+00
    endloop
  endfacet
  facet normal 9.836199e-01 1.802550e-01 0.000000e+00
    outer loop
      vertex   -3.365729e+01 -8.979463e+00 2.500000e+00
      vertex   -3.365729e+01 -8.979463e+00 0.000000e+00
      vertex   -3.367906e+01 -8.860684e+00 2.500000e+00
    endloop
  endfacet
  facet normal 9.836199e-01 1.802550e-01 0.000000e+00
    outer loop
      vertex   -3.367906e+01 -8.860684e+00 2.500000e+00
      vertex   -3.365729e+01 -8.979463e+00 0.000000e+00
      vertex   -3.367906e+01 -8.860684e+00 0.000000e+00
    endloop
  endfacet
  facet normal 9.547209e-01 2.975031e-01 0.000000e+00
    outer loop
      vertex   -3.367906e+01 -8.860684e+00 2.500000e+00
      vertex   -3.367906e+01 -8.860684e+00 0.000000e+00
      vertex   -3.371498e+01 -8.745395e+00 2.500000e+00
    endloop
  endfacet
  facet normal 9.547209e-01 2.975031e-01 0.000000e+00
    outer loop
      vertex   -3.371498e+01 -8.745395e+00 2.500000e+00
      vertex   -3.367906e+01 -8.860684e+00 0.000000e+00
      vertex   -3.371498e+01 -8.745395e+00 0.000000e+00
    endloop
  endfacet
  facet normal 9.118998e-01 4.104128e-01 0.000000e+00
    outer loop
      vertex   -3.371498e+01 -8.745395e+00 2.500000e+00
      vertex   -3.371498e+01 -8.745395e+00 0.000000e+00
      vertex   -3.376454e+01 -8.635277e+00 2.500000e+00
    endloop
  endfacet
  facet normal 9.118998e-01 4.104128e-01 0.000000e+00
    outer loop
      vertex   -3.376454e+01 -8.635277e+00 2.500000e+00
      vertex   -3.371498e+01 -8.745395e+00 0.000000e+00
      vertex   -3.376454e+01 -8.635277e+00 0.000000e+00
    endloop
  endfacet
  facet normal 8.557813e-01 5.173378e-01 0.000000e+00
    outer loop
      vertex   -3.376454e+01 -8.635277e+00 2.500000e+00
      vertex   -3.376454e+01 -8.635277e+00 0.000000e+00
      vertex   -3.382702e+01 -8.531935e+00 2.500000e+00
    endloop
  endfacet
  facet normal 8.557813e-01 5.173378e-01 0.000000e+00
    outer loop
      vertex   -3.382702e+01 -8.531935e+00 2.500000e+00
      vertex   -3.376454e+01 -8.635277e+00 0.000000e+00
      vertex   -3.382702e+01 -8.531935e+00 0.000000e+00
    endloop
  endfacet
  facet normal 7.871835e-01 6.167189e-01 0.000000e+00
    outer loop
      vertex   -3.382702e+01 -8.531935e+00 2.500000e+00
      vertex   -3.382702e+01 -8.531935e+00 0.000000e+00
      vertex   -3.390149e+01 -8.436877e+00 2.500000e+00
    endloop
  endfacet
  facet normal 7.871835e-01 6.167189e-01 0.000000e+00
    outer loop
      vertex   -3.390149e+01 -8.436877e+00 2.500000e+00
      vertex   -3.382702e+01 -8.531935e+00 0.000000e+00
      vertex   -3.390149e+01 -8.436877e+00 0.000000e+00
    endloop
  endfacet
  facet normal 7.071068e-01 7.071068e-01 0.000000e+00
    outer loop
      vertex   -3.390149e+01 -8.436877e+00 2.500000e+00
      vertex   -3.390149e+01 -8.436877e+00 0.000000e+00
      vertex   -3.398688e+01 -8.351489e+00 2.500000e+00
    endloop
  endfacet
  facet normal 7.071068e-01 7.071068e-01 5.024296e-16
    outer loop
      vertex   -3.398688e+01 -8.351489e+00 2.500000e+00
      vertex   -3.390149e+01 -8.436877e+00 0.000000e+00
      vertex   -3.398688e+01 -8.351489e+00 0.000000e+00
    endloop
  endfacet
  facet normal 6.167189e-01 7.871835e-01 5.593275e-16
    outer loop
      vertex   -3.398688e+01 -8.351489e+00 2.500000e+00
      vertex   -3.398688e+01 -8.351489e+00 0.000000e+00
      vertex   -3.408194e+01 -8.277016e+00 2.500000e+00
    endloop
  endfacet
  facet normal 6.167189e-01 7.871835e-01 0.000000e+00
    outer loop
      vertex   -3.408194e+01 -8.277016e+00 2.500000e+00
      vertex   -3.398688e+01 -8.351489e+00 0.000000e+00
      vertex   -3.408194e+01 -8.277016e+00 0.000000e+00
    endloop
  endfacet
  facet normal 5.173378e-01 8.557813e-01 0.000000e+00
    outer loop
      vertex   -3.408194e+01 -8.277016e+00 2.500000e+00
      vertex   -3.408194e+01 -8.277016e+00 0.000000e+00
      vertex   -3.418528e+01 -8.214544e+00 2.500000e+00
    endloop
  endfacet
  facet normal 5.173378e-01 8.557813e-01 0.000000e+00
    outer loop
      vertex   -3.418528e+01 -8.214544e+00 2.500000e+00
      vertex   -3.408194e+01 -8.277016e+00 0.000000e+00
      vertex   -3.418528e+01 -8.214544e+00 0.000000e+00
    endloop
  endfacet
  facet normal 4.104128e-01 9.118998e-01 0.000000e+00
    outer loop
      vertex   -3.418528e+01 -8.214544e+00 2.500000e+00
      vertex   -3.418528e+01 -8.214544e+00 0.000000e+00
      vertex   -3.429540e+01 -8.164984e+00 2.500000e+00
    endloop
  endfacet
  facet normal 4.104128e-01 9.118998e-01 0.000000e+00
    outer loop
      vertex   -3.429540e+01 -8.164984e+00 2.500000e+00
      vertex   -3.418528e+01 -8.214544e+00 0.000000e+00
      vertex   -3.429540e+01 -8.164984e+00 0.000000e+00
    endloop
  endfacet
  facet normal 2.975031e-01 9.547209e-01 0.000000e+00
    outer loop
      vertex   -3.429540e+01 -8.164984e+00 2.500000e+00
      vertex   -3.429540e+01 -8.164984e+00 0.000000e+00
      vertex   -3.441068e+01 -8.129058e+00 2.500000e+00
    endloop
  endfacet
  facet normal 2.975031e-01 9.547209e-01 6.783700e-16
    outer loop
      vertex   -3.441068e+01 -8.129058e+00 2.500000e+00
      vertex   -3.429540e+01 -8.164984e+00 0.000000e+00
      vertex   -3.441068e+01 -8.129058e+00 0.000000e+00
    endloop
  endfacet
  facet normal 1.802550e-01 9.836199e-01 6.989040e-16
    outer loop
      vertex   -3.441068e+01 -8.129058e+00 2.500000e+00
      vertex   -3.441068e+01 -8.129058e+00 0.000000e+00
      vertex   -3.452946e+01 -8.107291e+00 2.500000e+00
    endloop
  endfacet
  facet normal 1.802550e-01 9.836199e-01 0.000000e+00
    outer loop
      vertex   -3.452946e+01 -8.107291e+00 2.500000e+00
      vertex   -3.441068e+01 -8.129058e+00 0.000000e+00
      vertex   -3.452946e+01 -8.107291e+00 0.000000e+00
    endloop
  endfacet
  facet normal 6.037850e-02 9.981756e-01 0.000000e+00
    outer loop
      vertex   -3.452946e+01 -8.107291e+00 2.500000e+00
      vertex   -3.452946e+01 -8.107291e+00 0.000000e+00
      vertex   -3.465000e+01 -8.100000e+00 0.000000e+00
    endloop
  endfacet
  facet normal 6.037850e-02 9.981756e-01 -0.000000e+00
    outer loop
      vertex   -3.465000e+01 -8.100000e+00 0.000000e+00
      vertex   -3.465000e+01 -8.100000e+00 5.000000e+00
      vertex   -3.452946e+01 -8.107291e+00 2.500000e+00
    endloop
  endfacet
  facet normal 6.037850e-02 9.981756e-01 -0.000000e+00
    outer loop
      vertex   -3.452946e+01 -8.107291e+00 2.500000e+00
      vertex   -3.465000e+01 -8.100000e+00 5.000000e+00
      vertex   -3.452946e+01 -8.107291e+00 5.000000e+00
    endloop
  endfacet
  facet normal 1.802550e-01 9.836199e-01 -0.000000e+00
    outer loop
      vertex   -3.452946e+01 -8.107291e+00 2.500000e+00
      vertex   -3.452946e+01 -8.107291e+00 5.000000e+00
      vertex   -3.441068e+01 -8.129058e+00 2.500000e+00
    endloop
  endfacet
  facet normal 1.802550e-01 9.836199e-01 -6.989040e-16
    outer loop
      vertex   -3.441068e+01 -8.129058e+00 2.500000e+00
      vertex   -3.452946e+01 -8.107291e+00 5.000000e+00
      vertex   -3.441068e+01 -8.129058e+00 5.000000e+00
    endloop
  endfacet
  facet normal 2.975031e-01 9.547209e-01 -6.783700e-16
    outer loop
      vertex   -3.441068e+01 -8.129058e+00 2.500000e+00
      vertex   -3.441068e+01 -8.129058e+00 5.000000e+00
      vertex   -3.429540e+01 -8.164984e+00 2.500000e+00
    endloop
  endfacet
  facet normal 2.975031e-01 9.547209e-01 -0.000000e+00
    outer loop
      vertex   -3.429540e+01 -8.164984e+00 2.500000e+00
      vertex   -3.441068e+01 -8.129058e+00 5.000000e+00
      vertex   -3.429540e+01 -8.164984e+00 5.000000e+00
    endloop
  endfacet
  facet normal 4.104128e-01 9.118998e-01 -0.000000e+00
    outer loop
      vertex   -3.429540e+01 -8.164984e+00 2.500000e+00
      vertex   -3.429540e+01 -8.164984e+00 5.000000e+00
      vertex   -3.418528e+01 -8.214544e+00 2.500000e+00
    endloop
  endfacet
  facet normal 4.104128e-01 9.118998e-01 -0.000000e+00
    outer loop
      vertex   -3.418528e+01 -8.214544e+00 2.500000e+00
      vertex   -3.429540e+01 -8.164984e+00 5.000000e+00
      vertex   -3.418528e+01 -8.214544e+00 5.000000e+00
    endloop
  endfacet
  facet normal 5.173378e-01 8.557813e-01 -0.000000e+00
    outer loop
      vertex   -3.418528e+01 -8.214544e+00 2.500000e+00
      vertex   -3.418528e+01 -8.214544e+00 5.000000e+00
      vertex   -3.408194e+01 -8.277016e+00 2.500000e+00
    endloop
  endfacet
  facet normal 5.173378e-01 8.557813e-01 -0.000000e+00
    outer loop
      vertex   -3.408194e+01 -8.277016e+00 2.500000e+00
      vertex   -3.418528e+01 -8.214544e+00 5.000000e+00
      vertex   -3.408194e+01 -8.277016e+00 5.000000e+00
    endloop
  endfacet
  facet normal 6.167189e-01 7.871835e-01 -0.000000e+00
    outer loop
      vertex   -3.408194e+01 -8.277016e+00 2.500000e+00
      vertex   -3.408194e+01 -8.277016e+00 5.000000e+00
      vertex   -3.398688e+01 -8.351489e+00 2.500000e+00
    endloop
  endfacet
  facet normal 6.167189e-01 7.871835e-01 -5.593275e-16
    outer loop
      vertex   -3.398688e+01 -8.351489e+00 2.500000e+00
      vertex   -3.408194e+01 -8.277016e+00 5.000000e+00
      vertex   -3.398688e+01 -8.351489e+00 5.000000e+00
    endloop
  endfacet
  facet normal 7.071068e-01 7.071068e-01 -5.024296e-16
    outer loop
      vertex   -3.398688e+01 -8.351489e+00 2.500000e+00
      vertex   -3.398688e+01 -8.351489e+00 5.000000e+00
      vertex   -3.390149e+01 -8.436877e+00 2.500000e+00
    endloop
  endfacet
  facet normal 7.071068e-01 7.071068e-01 -0.000000e+00
    outer loop
      vertex   -3.390149e+01 -8.436877e+00 2.500000e+00
      vertex   -3.398688e+01 -8.351489e+00 5.000000e+00
      vertex   -3.390149e+01 -8.436877e+00 5.000000e+00
    endloop
  endfacet
  facet normal 7.871835e-01 6.167189e-01 -0.000000e+00
    outer loop
      vertex   -3.390149e+01 -8.436877e+00 2.500000e+00
      vertex   -3.390149e+01 -8.436877e+00 5.000000e+00
      vertex   -3.382702e+01 -8.531935e+00 2.500000e+00
    endloop
  endfacet
  facet normal 7.871835e-01 6.167189e-01 -0.000000e+00
    outer loop
      vertex   -3.382702e+01 -8.531935e+00 2.500000e+00
      vertex   -3.390149e+01 -8.436877e+00 5.000000e+00
      vertex   -3.382702e+01 -8.531935e+00 5.000000e+00
    endloop
  endfacet
  facet normal 8.557813e-01 5.173378e-01 -0.000000e+00
    outer loop
      vertex   -3.382702e+01 -8.531935e+00 2.500000e+00
      vertex   -3.382702e+01 -8.531935e+00 5.000000e+00
      vertex   -3.376454e+01 -8.635277e+00 2.500000e+00
    endloop
  endfacet
  facet normal 8.557813e-01 5.173378e-01 -0.000000e+00
    outer loop
      vertex   -3.376454e+01 -8.635277e+00 2.500000e+00
      vertex   -3.382702e+01 -8.531935e+00 5.000000e+00
      vertex   -3.376454e+01 -8.635277e+00 5.000000e+00
    endloop
  endfacet
  facet normal 9.118998e-01 4.104128e-01 -0.000000e+00
    outer loop
      vertex   -3.376454e+01 -8.635277e+00 2.500000e+00
      vertex   -3.376454e+01 -8.635277e+00 5.000000e+00
      vertex   -3.371498e+01 -8.745395e+00 2.500000e+00
    endloop
  endfacet
  facet normal 9.118998e-01 4.104128e-01 -0.000000e+00
    outer loop
      vertex   -3.371498e+01 -8.745395e+00 2.500000e+00
      vertex   -3.376454e+01 -8.635277e+00 5.000000e+00
      vertex   -3.371498e+01 -8.745395e+00 5.000000e+00
    endloop
  endfacet
  facet normal 9.547209e-01 2.975031e-01 -0.000000e+00
    outer loop
      vertex   -3.371498e+01 -8.745395e+00 2.500000e+00
      vertex   -3.371498e+01 -8.745395e+00 5.000000e+00
      vertex   -3.367906e+01 -8.860684e+00 2.500000e+00
    endloop
  endfacet
  facet normal 9.547209e-01 2.975031e-01 -0.000000e+00
    outer loop
      vertex   -3.367906e+01 -8.860684e+00 2.500000e+00
      vertex   -3.371498e+01 -8.745395e+00 5.000000e+00
      vertex   -3.367906e+01 -8.860684e+00 5.000000e+00
    endloop
  endfacet
  facet normal 9.836199e-01 1.802550e-01 -0.000000e+00
    outer loop
      vertex   -3.367906e+01 -8.860684e+00 2.500000e+00
      vertex   -3.367906e+01 -8.860684e+00 5.000000e+00
      vertex   -3.365729e+01 -8.979463e+00 2.500000e+00
    endloop
  endfacet
  facet normal 9.836199e-01 1.802550e-01 -0.000000e+00
    outer loop
      vertex   -3.365729e+01 -8.979463e+00 2.500000e+00
      vertex   -3.367906e+01 -8.860684e+00 5.000000e+00
      vertex   -3.365729e+01 -8.979463e+00 5.000000e+00
    endloop
  endfacet
  facet normal 9.981756e-01 6.037850e-02 -0.000000e+00
    outer loop
      vertex   -3.365729e+01 -8.979463e+00 2.500000e+00
      vertex   -3.365729e+01 -8.979463e+00 5.000000e+00
      vertex   -3.365000e+01 -9.100000e+00 5.000000e+00
    endloop
  endfacet
  facet normal 0.000000e+00 0.000000e+00 1.000000e+00
    outer loop
      vertex   -3.365729e+01 -8.979463e+00 5.000000e+00
      vertex   -3.465000e+01 -8.100000e+00 5.000000e+00
      vertex   -3.365000e+01 -9.100000e+00 5.000000e+00
    endloop
  endfacet
  facet normal 0.000000e+00 0.000000e+00 1.000000e+00
    outer loop
      vertex   -3.365000e+01 -9.100000e+00 5.000000e+00
      vertex   -3.465000e+01 -8.100000e+00 5.000000e+00
      vertex   -4.200000e+01 -8.100000e+00 5.000000e+00
    endloop
  endfacet
  facet normal 0.000000e+00 0.000000e+00 1.000000e+00
    outer loop
      vertex   -3.365000e+01 -9.100000e+00 5.000000e+00
      vertex   -4.200000e+01 -8.100000e+00 5.000000e+00
      vertex   -4.300000e+01 -9.100000e+00 5.000000e+00
    endloop
  endfacet
  facet normal 0.000000e+00 0.000000e+00 1.000000e+00
    outer loop
      vertex   -4.300000e+01 -9.100000e+00 5.000000e+00
      vertex   -4.200000e+01 -8.100000e+00 5.000000e+00
      vertex   -4.299271e+01 -8.979463e+00 5.000000e+00
    endloop
  endfacet
  facet normal 0.000000e+00 0.000000e+00 1.000000e+00
    outer loop
      vertex   -4.299271e+01 -8.979463e+00 5.000000e+00
      vertex   -4.200000e+01 -8.100000e+00 5.000000e+00
      vertex   -4.297094e+01 -8.860684e+00 5.000000e+00
    endloop
  endfacet
  facet normal 0.000000e+00 0.000000e+00 1.000000e+00
    outer loop
      vertex   -4.297094e+01 -8.860684e+00 5.000000e+00
      vertex   -4.200000e+01 -8.100000e+00 5.000000e+00
      vertex   -4.293502e+01 -8.745395e+00 5.000000e+00
    endloop
  endfacet
  facet normal 0.000000e+00 0.000000e+00 1.000000e+00
    outer loop
      vertex   -4.293502e+01 -8.745395e+00 5.000000e+00
      vertex   -4.200000e+01 -8.100000e+00 5.000000e+00
      vertex   -4.288546e+01 -8.635277e+00 5.000000e+00
    endloop
  endfacet
  facet normal 0.000000e+00 0.000000e+00 1.000000e+00
    outer loop
      vertex   -4.288546e+01 -8.635277e+00 5.000000e+00
      vertex   -4.200000e+01 -8.100000e+00 5.000000e+00
      vertex   -4.282298e+01 -8.531935e+00 5.000000e+00
    endloop
  endfacet
  facet normal 0.000000e+00 0.000000e+00 1.000000e+00
    outer loop
      vertex   -4.282298e+01 -8.531935e+00 5.000000e+00
      vertex   -4.200000e+01 -8.100000e+00 5.000000e+00
      vertex   -4.274851e+01 -8.436877e+00 5.000000e+00
    endloop
  endfacet
  facet normal 0.000000e+00 0.000000e+00 1.000000e+00
    outer loop
      vertex   -4.274851e+01 -8.436877e+00 5.000000e+00
      vertex   -4.200000e+01 -8.100000e+00 5.000000e+00
      vertex   -4.266312e+01 -8.351489e+00 5.000000e+00
    endloop
  endfacet
  facet normal 0.000000e+00 0.000000e+00 1.000000e+00
    outer loop
      vertex   -4.266312e+01 -8.351489e+00 5.000000e+00
      vertex   -4.200000e+01 -8.100000e+00 5.000000e+00
      vertex   -4.256806e+01 -8.277016e+00 5.000000e+00
    endloop
  endfacet
  facet normal 0.000000e+00 0.000000e+00 1.000000e+00
    outer loop
      vertex   -4.256806e+01 -8.277016e+00 5.000000e+00
      vertex   -4.200000e+01 -8.100000e+00 5.000000e+00
      vertex   -4.246472e+01 -8.214544e+00 5.000000e+00
    endloop
  endfacet
  facet normal 0.000000e+00 0.000000e+00 1.000000e+00
    outer loop
      vertex   -4.246472e+01 -8.214544e+00 5.000000e+00
      vertex   -4.200000e+01 -8.100000e+00 5.000000e+00
      vertex   -4.235460e+01 -8.164984e+00 5.000000e+00
    endloop
  endfacet
  facet normal 0.000000e+00 0.000000e+00 1.000000e+00
    outer loop
      vertex   -4.235460e+01 -8.164984e+00 5.000000e+00
      vertex   -4.200000e+01 -8.100000e+00 5.000000e+00
      vertex   -4.223932e+01 -8.129058e+00 5.000000e+00
    endloop
  endfacet
  facet normal 0.000000e+00 0.000000e+00 1.000000e+00
    outer loop
      vertex   -4.223932e+01 -8.129058e+00 5.000000e+00
      vertex   -4.200000e+01 -8.100000e+00 5.000000e+00
      vertex   -4.212054e+01 -8.107291e+00 5.000000e+00
    endloop
  endfacet
  facet normal 0.000000e+00 0.000000e+00 1.000000e+00
    outer loop
      vertex   -3.365729e+01 -8.979463e+00 5.000000e+00
      vertex   -3.367906e+01 -8.860684e+00 5.000000e+00
      vertex   -3.465000e+01 -8.100000e+00 5.000000e+00
    endloop
  endfacet
  facet normal 0.000000e+00 0.000000e+00 1.000000e+00
    outer loop
      vertex   -3.465000e+01 -8.100000e+00 5.000000e+00
      vertex   -3.367906e+01 -8.860684e+00 5.000000e+00
      vertex   -3.371498e+01 -8.745395e+00 5.000000e+00
    endloop
  endfacet
  facet normal 0.000000e+00 0.000000e+00 1.000000e+00
    outer loop
      vertex   -3.465000e+01 -8.100000e+00 5.000000e+00
      vertex   -3.371498e+01 -8.745395e+00 5.000000e+00
      vertex   -3.376454e+01 -8.635277e+00 5.000000e+00
    endloop
  endfacet
  facet normal 0.000000e+00 0.000000e+00 1.000000e+00
    outer loop
      vertex   -3.376454e+01 -8.635277e+00 5.000000e+00
      vertex   -3.382702e+01 -8.531935e+00 5.000000e+00
      vertex   -3.465000e+01 -8.100000e+00 5.000000e+00
    endloop
  endfacet
  facet normal 0.000000e+00 0.000000e+00 1.000000e+00
    outer loop
      vertex   -3.465000e+01 -8.100000e+00 5.000000e+00
      vertex   -3.382702e+01 -8.531935e+00 5.000000e+00
      vertex   -3.390149e+01 -8.436877e+00 5.000000e+00
    endloop
  endfacet
  facet normal 0.000000e+00 0.000000e+00 1.000000e+00
    outer loop
      vertex   -3.465000e+01 -8.100000e+00 5.000000e+00
      vertex   -3.390149e+01 -8.436877e+00 5.000000e+00
      vertex   -3.398688e+01 -8.351489e+00 5.000000e+00
    endloop
  endfacet
  facet normal 0.000000e+00 0.000000e+00 1.000000e+00
    outer loop
      vertex   -3.398688e+01 -8.351489e+00 5.000000e+00
      vertex   -3.408194e+01 -8.277016e+00 5.000000e+00
      vertex   -3.465000e+01 -8.100000e+00 5.000000e+00
    endloop
  endfacet
  facet normal 0.000000e+00 0.000000e+00 1.000000e+00
    outer loop
      vertex   -3.465000e+01 -8.100000e+00 5.000000e+00
      vertex   -3.408194e+01 -8.277016e+00 5.000000e+00
      vertex   -3.418528e+01 -8.214544e+00 5.000000e+00
    endloop
  endfacet
  facet normal 0.000000e+00 0.000000e+00 1.000000e+00
    outer loop
      vertex   -3.465000e+01 -8.100000e+00 5.000000e+00
      vertex   -3.418528e+01 -8.214544e+00 5.000000e+00
      vertex   -3.429540e+01 -8.164984e+00 5.000000e+00
    endloop
  endfacet
  facet normal 0.000000e+00 0.000000e+00 1.000000e+00
    outer loop
      vertex   -3.429540e+01 -8.164984e+00 5.000000e+00
      vertex   -3.441068e+01 -8.129058e+00 5.000000e+00
      vertex   -3.465000e+01 -8.100000e+00 5.000000e+00
    endloop
  endfacet
  facet normal 0.000000e+00 0.000000e+00 1.000000e+00
    outer loop
      vertex   -3.465000e+01 -8.100000e+00 5.000000e+00
      vertex   -3.441068e+01 -8.129058e+00 5.000000e+00
      vertex   -3.452946e+01 -8.107291e+00 5.000000e+00
    endloop
  endfacet
  facet normal 0.000000e+00 0.000000e+00 1.000000e+00
    outer loop
      vertex   -3.365000e+01 -9.100000e+00 5.000000e+00
      vertex   -4.300000e+01 -9.100000e+00 5.000000e+00
      vertex   -3.365000e+01 -1.280000e+01 5.000000e+00
    endloop
  endfacet
  facet normal 0.000000e+00 0.000000e+00 1.000000e+00
    outer loop
      vertex   -3.365000e+01 -1.280000e+01 5.000000e+00
      vertex   -4.300000e+01 -9.100000e+00 5.000000e+00
      vertex   -4.300000e+01 -1.280000e+01 5.000000e+00
    endloop
  endfacet
  facet normal 0.000000e+00 0.000000e+00 1.000000e+00
    outer loop
      vertex   -3.365000e+01 -1.280000e+01 5.000000e+00
      vertex   -4.300000e+01 -1.280000e+01 5.000000e+00
      vertex   -3.452946e+01 -1.379271e+01 5.000000e+00
    endloop
  endfacet
  facet normal 0.000000e+00 0.000000e+00 1.000000e+00
    outer loop
      vertex   -3.452946e+01 -1.379271e+01 5.000000e+00
      vertex   -4.300000e+01 -1.280000e+01 5.000000e+00
      vertex   -4.212054e+01 -1.379271e+01 5.000000e+00
    endloop
  endfacet
  facet normal 0.000000e+00 0.000000e+00 1.000000e+00
    outer loop
      vertex   -3.452946e+01 -1.379271e+01 5.000000e+00
      vertex   -4.212054e+01 -1.379271e+01 5.000000e+00
      vertex   -3.465000e+01 -1.380000e+01 5.000000e+00
    endloop
  endfacet
  facet normal 0.000000e+00 0.000000e+00 1.000000e+00
    outer loop
      vertex   -3.465000e+01 -1.380000e+01 5.000000e+00
      vertex   -4.212054e+01 -1.379271e+01 5.000000e+00
      vertex   -4.200000e+01 -1.380000e+01 5.000000e+00
    endloop
  endfacet
  facet normal 0.000000e+00 0.000000e+00 1.000000e+00
    outer loop
      vertex   -4.300000e+01 -1.280000e+01 5.000000e+00
      vertex   -4.299271e+01 -1.292054e+01 5.000000e+00
      vertex   -4.212054e+01 -1.379271e+01 5.000000e+00
    endloop
  endfacet
  facet normal 0.000000e+00 0.000000e+00 1.000000e+00
    outer loop
      vertex   -4.212054e+01 -1.379271e+01 5.000000e+00
      vertex   -4.299271e+01 -1.292054e+01 5.000000e+00
      vertex   -4.297094e+01 -1.303932e+01 5.000000e+00
    endloop
  endfacet
  facet normal 0.000000e+00 0.000000e+00 1.000000e+00
    outer loop
      vertex   -4.212054e+01 -1.379271e+01 5.000000e+00
      vertex   -4.297094e+01 -1.303932e+01 5.000000e+00
      vertex   -4.293502e+01 -1.315460e+01 5.000000e+00
    endloop
  endfacet
  facet normal 0.000000e+00 0.000000e+00 1.000000e+00
    outer loop
      vertex   -4.293502e+01 -1.315460e+01 5.000000e+00
      vertex   -4.288546e+01 -1.326472e+01 5.000000e+00
      vertex   -4.212054e+01 -1.379271e+01 5.000000e+00
    endloop
  endfacet
  facet normal 0.000000e+00 0.000000e+00 1.000000e+00
    outer loop
      vertex   -4.212054e+01 -1.379271e+01 5.000000e+00
      vertex   -4.288546e+01 -1.326472e+01 5.000000e+00
      vertex   -4.282298e+01 -1.336806e+01 5.000000e+00
    endloop
  endfacet
  facet normal 0.000000e+00 0.000000e+00 1.000000e+00
    outer loop
      vertex   -4.212054e+01 -1.379271e+01 5.000000e+00
      vertex   -4.282298e+01 -1.336806e+01 5.000000e+00
      vertex   -4.274851e+01 -1.346312e+01 5.000000e+00
    endloop
  endfacet
  facet normal 0.000000e+00 0.000000e+00 1.000000e+00
    outer loop
      vertex   -4.274851e+01 -1.346312e+01 5.000000e+00
      vertex   -4.266312e+01 -1.354851e+01 5.000000e+00
      vertex   -4.212054e+01 -1.379271e+01 5.000000e+00
    endloop
  endfacet
  facet normal 0.000000e+00 0.000000e+00 1.000000e+00
    outer loop
      vertex   -4.212054e+01 -1.379271e+01 5.000000e+00
      vertex   -4.266312e+01 -1.354851e+01 5.000000e+00
      vertex   -4.256806e+01 -1.362298e+01 5.000000e+00
    endloop
  endfacet
  facet normal 0.000000e+00 0.000000e+00 1.000000e+00
    outer loop
      vertex   -4.212054e+01 -1.379271e+01 5.000000e+00
      vertex   -4.256806e+01 -1.362298e+01 5.000000e+00
      vertex   -4.246472e+01 -1.368546e+01 5.000000e+00
    endloop
  endfacet
  facet normal 0.000000e+00 0.000000e+00 1.000000e+00
    outer loop
      vertex   -4.246472e+01 -1.368546e+01 5.000000e+00
      vertex   -4.235460e+01 -1.373502e+01 5.000000e+00
      vertex   -4.212054e+01 -1.379271e+01 5.000000e+00
    endloop
  endfacet
  facet normal 0.000000e+00 0.000000e+00 1.000000e+00
    outer loop
      vertex   -4.212054e+01 -1.379271e+01 5.000000e+00
      vertex   -4.235460e+01 -1.373502e+01 5.000000e+00
      vertex   -4.223932e+01 -1.377094e+01 5.000000e+00
    endloop
  endfacet
  facet normal 0.000000e+00 -0.000000e+00 1.000000e+00
    outer loop
      vertex   -3.441068e+01 -1.377094e+01 5.000000e+00
      vertex   -3.429540e+01 -1.373502e+01 5.000000e+00
      vertex   -3.452946e+01 -1.379271e+01 5.000000e+00
    endloop
  endfacet
  facet normal 0.000000e+00 0.000000e+00 1.000000e+00
    outer loop
      vertex   -3.452946e+01 -1.379271e+01 5.000000e+00
      vertex   -3.429540e+01 -1.373502e+01 5.000000e+00
      vertex   -3.418528e+01 -1.368546e+01 5.000000e+00
    endloop
  endfacet
  facet normal 0.000000e+00 0.000000e+00 1.000000e+00
    outer loop
      vertex   -3.452946e+01 -1.379271e+01 5.000000e+00
      vertex   -3.418528e+01 -1.368546e+01 5.000000e+00
      vertex   -3.408194e+01 -1.362298e+01 5.000000e+00
    endloop
  endfacet
  facet normal 0.000000e+00 -0.000000e+00 1.000000e+00
    outer loop
      vertex   -3.408194e+01 -1.362298e+01 5.000000e+00
      vertex   -3.398688e+01 -1.354851e+01 5.000000e+00
      vertex   -3.452946e+01 -1.379271e+01 5.000000e+00
    endloop
  endfacet
  facet normal 0.000000e+00 0.000000e+00 1.000000e+00
    outer loop
      vertex   -3.452946e+01 -1.379271e+01 5.000000e+00
      vertex   -3.398688e+01 -1.354851e+01 5.000000e+00
      vertex   -3.390149e+01 -1.346312e+01 5.000000e+00
    endloop
  endfacet
  facet normal 0.000000e+00 0.000000e+00 1.000000e+00
    outer loop
      vertex   -3.452946e+01 -1.379271e+01 5.000000e+00
      vertex   -3.390149e+01 -1.346312e+01 5.000000e+00
      vertex   -3.382702e+01 -1.336806e+01 5.000000e+00
    endloop
  endfacet
  facet normal 0.000000e+00 -0.000000e+00 1.000000e+00
    outer loop
      vertex   -3.382702e+01 -1.336806e+01 5.000000e+00
      vertex   -3.376454e+01 -1.326472e+01 5.000000e+00
      vertex   -3.452946e+01 -1.379271e+01 5.000000e+00
    endloop
  endfacet
  facet normal 0.000000e+00 0.000000e+00 1.000000e+00
    outer loop
      vertex   -3.452946e+01 -1.379271e+01 5.000000e+00
      vertex   -3.376454e+01 -1.326472e+01 5.000000e+00
      vertex   -3.371498e+01 -1.315460e+01 5.000000e+00
    endloop
  endfacet
  facet normal 0.000000e+00 0.000000e+00 1.000000e+00
    outer loop
      vertex   -3.452946e+01 -1.379271e+01 5.000000e+00
      vertex   -3.371498e+01 -1.315460e+01 5.000000e+00
      vertex   -3.367906e+01 -1.303932e+01 5.000000e+00
    endloop
  endfacet
  facet normal 0.000000e+00 -0.000000e+00 1.000000e+00
    outer loop
      vertex   -3.367906e+01 -1.303932e+01 5.000000e+00
      vertex   -3.365729e+01 -1.292054e+01 5.000000e+00
      vertex   -3.452946e+01 -1.379271e+01 5.000000e+00
    endloop
  endfacet
  facet normal 0.000000e+00 0.000000e+00 1.000000e+00
    outer loop
      vertex   -3.452946e+01 -1.379271e+01 5.000000e+00
      vertex   -3.365729e+01 -1.292054e+01 5.000000e+00
      vertex   -3.365000e+01 -1.280000e+01 5.000000e+00
    endloop
  endfacet
  facet normal -0.000000e+00 -0.000000e+00 -1.000000e+00
    outer loop
      vertex   -3.452946e+01 -8.107291e+00 0.000000e+00
      vertex   -3.441068e+01 -8.129058e+00 0.000000e+00
      vertex   -3.465000e+01 -8.100000e+00 0.000000e+00
    endloop
  endfacet
  facet normal 0.000000e+00 0.000000e+00 -1.000000e+00
    outer loop
      vertex   -3.465000e+01 -8.100000e+00 0.000000e+00
      vertex   -3.441068e+01 -8.129058e+00 0.000000e+00
      vertex   -3.429540e+01 -8.164984e+00 0.000000e+00
    endloop
  endfacet
  facet normal 0.000000e+00 0.000000e+00 -1.000000e+00
    outer loop
      vertex   -3.465000e+01 -8.100000e+00 0.000000e+00
      vertex   -3.429540e+01 -8.164984e+00 0.000000e+00
      vertex   -3.418528e+01 -8.214544e+00 0.000000e+00
    endloop
  endfacet
  facet normal -0.000000e+00 -0.000000e+00 -1.000000e+00
    outer loop
      vertex   -3.418528e+01 -8.214544e+00 0.000000e+00
      vertex   -3.408194e+01 -8.277016e+00 0.000000e+00
      vertex   -3.465000e+01 -8.100000e+00 0.000000e+00
    endloop
  endfacet
  facet normal 0.000000e+00 0.000000e+00 -1.000000e+00
    outer loop
      vertex   -3.465000e+01 -8.100000e+00 0.000000e+00
      vertex   -3.408194e+01 -8.277016e+00 0.000000e+00
      vertex   -3.398688e+01 -8.351489e+00 0.000000e+00
    endloop
  endfacet
  facet normal 0.000000e+00 0.000000e+00 -1.000000e+00
    outer loop
      vertex   -3.465000e+01 -8.100000e+00 0.000000e+00
      vertex   -3.398688e+01 -8.351489e+00 0.000000e+00
      vertex   -3.390149e+01 -8.436877e+00 0.000000e+00
    endloop
  endfacet
  facet normal -0.000000e+00 -0.000000e+00 -1.000000e+00
    outer loop
      vertex   -3.390149e+01 -8.436877e+00 0.000000e+00
      vertex   -3.382702e+01 -8.531935e+00 0.000000e+00
      vertex   -3.465000e+01 -8.100000e+00 0.000000e+00
    endloop
  endfacet
  facet normal 0.000000e+00 0.000000e+00 -1.000000e+00
    outer loop
      vertex   -3.465000e+01 -8.100000e+00 0.000000e+00
      vertex   -3.382702e+01 -8.531935e+00 0.000000e+00
      vertex   -3.376454e+01 -8.635277e+00 0.000000e+00
    endloop
  endfacet
  facet normal 0.000000e+00 0.000000e+00 -1.000000e+00
    outer loop
      vertex   -3.465000e+01 -8.100000e+00 0.000000e+00
      vertex   -3.376454e+01 -8.635277e+00 0.000000e+00
      vertex   -3.371498e+01 -8.745395e+00 0.000000e+00
    endloop
  endfacet
  facet normal -0.000000e+00 -0.000000e+00 -1.000000e+00
    outer loop
      vertex   -3.371498e+01 -8.745395e+00 0.000000e+00
      vertex   -3.367906e+01 -8.860684e+00 0.000000e+00
      vertex   -3.465000e+01 -8.100000e+00 0.000000e+00
    endloop
  endfacet
  facet normal 0.000000e+00 0.000000e+00 -1.000000e+00
    outer loop
      vertex   -3.465000e+01 -8.100000e+00 0.000000e+00
      vertex   -3.367906e+01 -8.860684e+00 0.000000e+00
      vertex   -3.365729e+01 -8.979463e+00 0.000000e+00
    endloop
  endfacet
  facet normal 0.000000e+00 0.000000e+00 -1.000000e+00
    outer loop
      vertex   -3.465000e+01 -8.100000e+00 0.000000e+00
      vertex   -3.365729e+01 -8.979463e+00 0.000000e+00
      vertex   -3.365000e+01 -9.100000e+00 0.000000e+00
    endloop
  endfacet
  facet normal 0.000000e+00 -0.000000e+00 -1.000000e+00
    outer loop
      vertex   -3.465000e+01 -8.100000e+00 0.000000e+00
      vertex   -3.365000e+01 -9.100000e+00 0.000000e+00
      vertex   -4.300000e+01 -1.015000e+01 0.000000e+00
    endloop
  endfacet
  facet normal 0.000000e+00 0.000000e+00 -1.000000e+00
    outer loop
      vertex   -4.300000e+01 -1.015000e+01 0.000000e+00
      vertex   -3.365000e+01 -9.100000e+00 0.000000e+00
      vertex   -3.365000e+01 -1.015000e+01 0.000000e+00
    endloop
  endfacet
  facet normal 0.000000e+00 0.000000e+00 -1.000000e+00
    outer loop
      vertex   -4.300000e+01 -1.015000e+01 0.000000e+00
      vertex   -3.365000e+01 -1.015000e+01 0.000000e+00
      vertex   -4.300000e+01 -1.175000e+01 0.000000e+00
    endloop
  endfacet
  facet normal 0.000000e+00 0.000000e+00 -1.000000e+00
    outer loop
      vertex   -4.300000e+01 -1.175000e+01 0.000000e+00
      vertex   -3.365000e+01 -1.015000e+01 0.000000e+00
      vertex   -3.365000e+01 -1.175000e+01 0.000000e+00
    endloop
  endfacet
  facet normal 0.000000e+00 0.000000e+00 -1.000000e+00
    outer loop
      vertex   -4.300000e+01 -1.175000e+01 0.000000e+00
      vertex   -3.365000e+01 -1.175000e+01 0.000000e+00
      vertex   -4.300000e+01 -1.280000e+01 0.000000e+00
    endloop
  endfacet
  facet normal 0.000000e+00 0.000000e+00 -1.000000e+00
    outer loop
      vertex   -4.300000e+01 -1.280000e+01 0.000000e+00
      vertex   -3.365000e+01 -1.175000e+01 0.000000e+00
      vertex   -4.200000e+01 -1.380000e+01 0.000000e+00
    endloop
  endfacet
  facet normal 0.000000e+00 0.000000e+00 -1.000000e+00
    outer loop
      vertex   -4.300000e+01 -1.280000e+01 0.000000e+00
      vertex   -4.200000e+01 -1.380000e+01 0.000000e+00
      vertex   -4.299271e+01 -1.292054e+01 0.000000e+00
    endloop
  endfacet
  facet normal 0.000000e+00 0.000000e+00 -1.000000e+00
    outer loop
      vertex   -4.299271e+01 -1.292054e+01 0.000000e+00
      vertex   -4.200000e+01 -1.380000e+01 0.000000e+00
      vertex   -4.297094e+01 -1.303932e+01 0.000000e+00
    endloop
  endfacet
  facet normal 0.000000e+00 0.000000e+00 -1.000000e+00
    outer loop
      vertex   -4.297094e+01 -1.303932e+01 0.000000e+00
      vertex   -4.200000e+01 -1.380000e+01 0.000000e+00
      vertex   -4.293502e+01 -1.315460e+01 0.000000e+00
    endloop
  endfacet
  facet normal 0.000000e+00 0.000000e+00 -1.000000e+00
    outer loop
      vertex   -4.293502e+01 -1.315460e+01 0.000000e+00
      vertex   -4.200000e+01 -1.380000e+01 0.000000e+00
      vertex   -4.288546e+01 -1.326472e+01 0.000000e+00
    endloop
  endfacet
  facet normal 0.000000e+00 0.000000e+00 -1.000000e+00
    outer loop
      vertex   -4.288546e+01 -1.326472e+01 0.000000e+00
      vertex   -4.200000e+01 -1.380000e+01 0.000000e+00
      vertex   -4.282298e+01 -1.336806e+01 0.000000e+00
    endloop
  endfacet
  facet normal 0.000000e+00 0.000000e+00 -1.000000e+00
    outer loop
      vertex   -4.282298e+01 -1.336806e+01 0.000000e+00
      vertex   -4.200000e+01 -1.380000e+01 0.000000e+00
      vertex   -4.274851e+01 -1.346312e+01 0.000000e+00
    endloop
  endfacet
  facet normal 0.000000e+00 0.000000e+00 -1.000000e+00
    outer loop
      vertex   -4.274851e+01 -1.346312e+01 0.000000e+00
      vertex   -4.200000e+01 -1.380000e+01 0.000000e+00
      vertex   -4.266312e+01 -1.354851e+01 0.000000e+00
    endloop
  endfacet
  facet normal 0.000000e+00 0.000000e+00 -1.000000e+00
    outer loop
      vertex   -4.266312e+01 -1.354851e+01 0.000000e+00
      vertex   -4.200000e+01 -1.380000e+01 0.000000e+00
      vertex   -4.256806e+01 -1.362298e+01 0.000000e+00
    endloop
  endfacet
  facet normal 0.000000e+00 0.000000e+00 -1.000000e+00
    outer loop
      vertex   -4.256806e+01 -1.362298e+01 0.000000e+00
      vertex   -4.200000e+01 -1.380000e+01 0.000000e+00
      vertex   -4.246472e+01 -1.368546e+01 0.000000e+00
    endloop
  endfacet
  facet normal 0.000000e+00 0.000000e+00 -1.000000e+00
    outer loop
      vertex   -4.246472e+01 -1.368546e+01 0.000000e+00
      vertex   -4.200000e+01 -1.380000e+01 0.000000e+00
      vertex   -4.235460e+01 -1.373502e+01 0.000000e+00
    endloop
  endfacet
  facet normal 0.000000e+00 0.000000e+00 -1.000000e+00
    outer loop
      vertex   -4.235460e+01 -1.373502e+01 0.000000e+00
      vertex   -4.200000e+01 -1.380000e+01 0.000000e+00
      vertex   -4.223932e+01 -1.377094e+01 0.000000e+00
    endloop
  endfacet
  facet normal 0.000000e+00 0.000000e+00 -1.000000e+00
    outer loop
      vertex   -4.223932e+01 -1.377094e+01 0.000000e+00
      vertex   -4.200000e+01 -1.380000e+01 0.000000e+00
      vertex   -4.212054e+01 -1.379271e+01 0.000000e+00
    endloop
  endfacet
  facet normal 0.000000e+00 0.000000e+00 -1.000000e+00
    outer loop
      vertex   -3.365000e+01 -1.015000e+01 0.000000e+00
      vertex   -3.305000e+01 -1.015000e+01 0.000000e+00
      vertex   -3.365000e+01 -1.175000e+01 0.000000e+00
    endloop
  endfacet
  facet normal 0.000000e+00 0.000000e+00 -1.000000e+00
    outer loop
      vertex   -3.365000e+01 -1.175000e+01 0.000000e+00
      vertex   -3.305000e+01 -1.015000e+01 0.000000e+00
      vertex   -3.305000e+01 -1.175000e+01 0.000000e+00
    endloop
  endfacet
  facet normal 0.000000e+00 -0.000000e+00 -1.000000e+00
    outer loop
      vertex   -3.365000e+01 -1.175000e+01 0.000000e+00
      vertex   -3.365000e+01 -1.280000e+01 0.000000e+00
      vertex   -4.200000e+01 -1.380000e+01 0.000000e+00
    endloop
  endfacet
  facet normal 0.000000e+00 0.000000e+00 -1.000000e+00
    outer loop
      vertex   -4.200000e+01 -1.380000e+01 0.000000e+00
      vertex   -3.365000e+01 -1.280000e+01 0.000000e+00
      vertex   -3.465000e+01 -1.380000e+01 0.000000e+00
    endloop
  endfacet
  facet normal 0.000000e+00 0.000000e+00 -1.000000e+00
    outer loop
      vertex   -3.465000e+01 -1.380000e+01 0.000000e+00
      vertex   -3.365000e+01 -1.280000e+01 0.000000e+00
      vertex   -3.365729e+01 -1.292054e+01 0.000000e+00
    endloop
  endfacet
  facet normal 0.000000e+00 0.000000e+00 -1.000000e+00
    outer loop
      vertex   -3.465000e+01 -1.380000e+01 0.000000e+00
      vertex   -3.365729e+01 -1.292054e+01 0.000000e+00
      vertex   -3.367906e+01 -1.303932e+01 0.000000e+00
    endloop
  endfacet
  facet normal 0.000000e+00 0.000000e+00 -1.000000e+00
    outer loop
      vertex   -3.367906e+01 -1.303932e+01 0.000000e+00
      vertex   -3.371498e+01 -1.315460e+01 0.000000e+00
      vertex   -3.465000e+01 -1.380000e+01 0.000000e+00
    endloop
  endfacet
  facet normal 0.000000e+00 0.000000e+00 -1.000000e+00
    outer loop
      vertex   -3.465000e+01 -1.380000e+01 0.000000e+00
      vertex   -3.371498e+01 -1.315460e+01 0.000000e+00
      vertex   -3.376454e+01 -1.326472e+01 0.000000e+00
    endloop
  endfacet
  facet normal 0.000000e+00 0.000000e+00 -1.000000e+00
    outer loop
      vertex   -3.465000e+01 -1.380000e+01 0.000000e+00
      vertex   -3.376454e+01 -1.326472e+01 0.000000e+00
      vertex   -3.382702e+01 -1.336806e+01 0.000000e+00
    endloop
  endfacet
  facet normal 0.000000e+00 0.000000e+00 -1.000000e+00
    outer loop
      vertex   -3.382702e+01 -1.336806e+01 0.000000e+00
      vertex   -3.390149e+01 -1.346312e+01 0.000000e+00
      vertex   -3.465000e+01 -1.380000e+01 0.000000e+00
    endloop
  endfacet
  facet normal 0.000000e+00 0.000000e+00 -1.000000e+00
    outer loop
      vertex   -3.465000e+01 -1.380000e+01 0.000000e+00
      vertex   -3.390149e+01 -1.346312e+01 0.000000e+00
      vertex   -3.398688e+01 -1.354851e+01 0.000000e+00
    endloop
  endfacet
  facet normal 0.000000e+00 0.000000e+00 -1.000000e+00
    outer loop
      vertex   -3.465000e+01 -1.380000e+01 0.000000e+00
      vertex   -3.398688e+01 -1.354851e+01 0.000000e+00
      vertex   -3.408194e+01 -1.362298e+01 0.000000e+00
    endloop
  endfacet
  facet normal 0.000000e+00 0.000000e+00 -1.000000e+00
    outer loop
      vertex   -3.408194e+01 -1.362298e+01 0.000000e+00
      vertex   -3.418528e+01 -1.368546e+01 0.000000e+00
      vertex   -3.465000e+01 -1.380000e+01 0.000000e+00
    endloop
  endfacet
  facet normal 0.000000e+00 0.000000e+00 -1.000000e+00
    outer loop
      vertex   -3.465000e+01 -1.380000e+01 0.000000e+00
      vertex   -3.418528e+01 -1.368546e+01 0.000000e+00
      vertex   -3.429540e+01 -1.373502e+01 0.000000e+00
    endloop
  endfacet
  facet normal 0.000000e+00 0.000000e+00 -1.000000e+00
    outer loop
      vertex   -3.465000e+01 -1.380000e+01 0.000000e+00
      vertex   -3.429540e+01 -1.373502e+01 0.000000e+00
      vertex   -3.441068e+01 -1.377094e+01 0.000000e+00
    endloop
  endfacet
  facet normal 0.000000e+00 0.000000e+00 -1.000000e+00
    outer loop
      vertex   -3.441068e+01 -1.377094e+01 0.000000e+00
      vertex   -3.452946e+01 -1.379271e+01 0.000000e+00
      vertex   -3.465000e+01 -1.380000e+01 0.000000e+00
    endloop
  endfacet
  facet normal 0.000000e+00 0.000000e+00 -1.000000e+00
    outer loop
      vertex   -4.300000e+01 -1.175000e+01 0.000000e+00
      vertex   -4.360000e+01 -1.175000e+01 0.000000e+00
      vertex   -4.300000e+01 -1.015000e+01 0.000000e+00
    endloop
  endfacet
  facet normal -0.000000e+00 0.000000e+00 -1.000000e+00
    outer loop
      vertex   -4.300000e+01 -1.015000e+01 0.000000e+00
      vertex   -4.360000e+01 -1.175000e+01 0.000000e+00
      vertex   -4.360000e+01 -1.015000e+01 0.000000e+00
    endloop
  endfacet
  facet normal 0.000000e+00 0.000000e+00 -1.000000e+00
    outer loop
      vertex   -4.300000e+01 -1.015000e+01 0.000000e+00
      vertex   -4.300000e+01 -9.100000e+00 0.000000e+00
      vertex   -3.465000e+01 -8.100000e+00 0.000000e+00
    endloop
  endfacet
  facet normal 0.000000e+00 0.000000e+00 -1.000000e+00
    outer loop
      vertex   -3.465000e+01 -8.100000e+00 0.000000e+00
      vertex   -4.300000e+01 -9.100000e+00 0.000000e+00
      vertex   -4.200000e+01 -8.100000e+00 0.000000e+00
    endloop
  endfacet
  facet normal 0.000000e+00 0.000000e+00 -1.000000e+00
    outer loop
      vertex   -4.200000e+01 -8.100000e+00 0.000000e+00
      vertex   -4.300000e+01 -9.100000e+00 0.000000e+00
      vertex   -4.299271e+01 -8.979463e+00 0.000000e+00
    endloop
  endfacet
  facet normal 0.000000e+00 0.000000e+00 -1.000000e+00
    outer loop
      vertex   -4.200000e+01 -8.100000e+00 0.000000e+00
      vertex   -4.299271e+01 -8.979463e+00 0.000000e+00
      vertex   -4.297094e+01 -8.860684e+00 0.000000e+00
    endloop
  endfacet
  facet normal 0.000000e+00 0.000000e+00 -1.000000e+00
    outer loop
      vertex   -4.297094e+01 -8.860684e+00 0.000000e+00
      vertex   -4.293502e+01 -8.745395e+00 0.000000e+00
      vertex   -4.200000e+01 -8.100000e+00 0.000000e+00
    endloop
  endfacet
  facet normal 0.000000e+00 0.000000e+00 -1.000000e+00
    outer loop
      vertex   -4.200000e+01 -8.100000e+00 0.000000e+00
      vertex   -4.293502e+01 -8.745395e+00 0.000000e+00
      vertex   -4.288546e+01 -8.635277e+00 0.000000e+00
    endloop
  endfacet
  facet normal 0.000000e+00 0.000000e+00 -1.000000e+00
    outer loop
      vertex   -4.200000e+01 -8.100000e+00 0.000000e+00
      vertex   -4.288546e+01 -8.635277e+00 0.000000e+00
      vertex   -4.282298e+01 -8.531935e+00 0.000000e+00
    endloop
  endfacet
  facet normal 0.000000e+00 0.000000e+00 -1.000000e+00
    outer loop
      vertex   -4.282298e+01 -8.531935e+00 0.000000e+00
      vertex   -4.274851e+01 -8.436877e+00 0.000000e+00
      vertex   -4.200000e+01 -8.100000e+00 0.000000e+00
    endloop
  endfacet
  facet normal 0.000000e+00 0.000000e+00 -1.000000e+00
    outer loop
      vertex   -4.200000e+01 -8.100000e+00 0.000000e+00
      vertex   -4.274851e+01 -8.436877e+00 0.000000e+00
      vertex   -4.266312e+01 -8.351489e+00 0.000000e+00
    endloop
  endfacet
  facet normal 0.000000e+00 0.000000e+00 -1.000000e+00
    outer loop
      vertex   -4.200000e+01 -8.100000e+00 0.000000e+00
      vertex   -4.266312e+01 -8.351489e+00 0.000000e+00
      vertex   -4.256806e+01 -8.277016e+00 0.000000e+00
    endloop
  endfacet
  facet normal 0.000000e+00 0.000000e+00 -1.000000e+00
    outer loop
      vertex   -4.256806e+01 -8.277016e+00 0.000000e+00
      vertex   -4.246472e+01 -8.214544e+00 0.000000e+00
      vertex   -4.200000e+01 -8.100000e+00 0.000000e+00
    endloop
  endfacet
  facet normal 0.000000e+00 0.000000e+00 -1.000000e+00
    outer loop
      vertex   -4.200000e+01 -8.100000e+00 0.000000e+00
      vertex   -4.246472e+01 -8.214544e+00 0.000000e+00
      vertex   -4.235460e+01 -8.164984e+00 0.000000e+00
    endloop
  endfacet
  facet normal 0.000000e+00 0.000000e+00 -1.000000e+00
    outer loop
      vertex   -4.200000e+01 -8.100000e+00 0.000000e+00
      vertex   -4.235460e+01 -8.164984e+00 0.000000e+00
      vertex   -4.223932e+01 -8.129058e+00 0.000000e+00
    endloop
  endfacet
  facet normal 0.000000e+00 0.000000e+00 -1.000000e+00
    outer loop
      vertex   -4.223932e+01 -8.129058e+00 0.000000e+00
      vertex   -4.212054e+01 -8.107291e+00 0.000000e+00
      vertex   -4.200000e+01 -8.100000e+00 0.000000e+00
    endloop
  endfacet
endsolid
